<svg xmlns="http://www.w3.org/2000/svg" width="442.669" height="292.595" viewBox="0 0 442.669 292.595">
  <g id="grand-zion" transform="translate(0 -0.002)">
    <g id="Group_13200" data-name="Group 13200" transform="translate(0 0.002)">
      <path id="Path_21074" data-name="Path 21074" d="M26.7,184.263c.315-.172.368-1.014,1.017-.429.123.111.234.246.35.374v-8.654c.046-1.656.33-2.083,1.655-2.083H31v-3.833H16.186v3.833h2.082c1.893.048,2.083.238,2.083,2.415v2.556c0,1.656-.143,2.177-.711,2.98a4.686,4.686,0,0,1-3.739,1.705c-3.707,0-6.16-3.233-6.876-8.855-.067.151-.148.3-.224.449-.109-.108-.218-.217-.348-.348.113-.206.231-.417.348-.631.049.049.119.1.18.155a29.417,29.417,0,0,1-.179-3.264c0-8,2.7-12.589,7.384-12.589a5.829,5.829,0,0,1,5.11,3.03c.028.043.05.087.078.129l.01,0c.551-.148.677.333.634.818-.027.064-.057.13-.084.194a15.123,15.123,0,0,1,1.114,5.061h3.881V154.446H23.284L22.432,157c-3.218-2.413-5.064-3.124-8.141-3.124C6.057,153.878,0,161.024,0,170.679c0,7.047,2.994,12.525,7.781,15.079a1.164,1.164,0,0,1,.208-.084c.08-.017.213.2.322.306l-.052.029a13.067,13.067,0,0,0,1.391.574c.048-.039.094-.077.13-.113.036.067.071.13.108.2a14.127,14.127,0,0,0,4.356.67,10.8,10.8,0,0,0,6.119-1.617.845.845,0,0,1,.242-.151c.628-.39,1.287-.848,2.016-1.4l1.561,2.554h1.781c-.029-.888-.3-1.893.734-2.458m.662-5.615a9.974,9.974,0,0,1,.56.915c-.092.866-.519,1.167-1.311,1.013A1.22,1.22,0,0,1,26,180.09c.273-.5,1.031-.69.915-1.454.152,0,.39-.062.442.011m-.457-.027c-.073.073-.276.015-.421.015-.151-.193-.471-.485-.425-.564.346-.589.624-.186.851.136a.427.427,0,0,1,0,.413m-.616-5.719.631.348c-.109.109-.241.325-.322.306a3.005,3.005,0,0,1-.658-.306c.109-.109.218-.217.348-.348m-6.572-15.668.348.348a3.072,3.072,0,0,1-.658.306c-.08.018-.213-.2-.322-.306l.631-.348M8.633,156.3a3.108,3.108,0,0,1,.658.306c-.109.109-.217.218-.348.348l-.631-.348c.109-.108.242-.323.322-.306M4.58,169.508a.372.372,0,0,1-.024-.326,1.057,1.057,0,0,1,1.61-.022c.056.076.022.218.031.329a1.072,1.072,0,0,1-1.617.02m1.142,12.9-.348-.348a3.068,3.068,0,0,1,.658-.306c.081-.018.213.2.322.306l-.631.348M5.7,171.6c-.08.018-.213-.2-.322-.306a3.138,3.138,0,0,1,.658-.306c.081-.017.213.2.322.306a3.04,3.04,0,0,1-.658.306m.844,5.716c-.147-.551.333-.677.82-.634.26.108.536.208.79.344.041.021.032.242-.024.318-.365.49-1.444.5-1.586-.028m2.742,2.527c-.092.488-.348.872-.939.754a.912.912,0,0,1-1-1.2.814.814,0,0,1,.958-.767c.739.057,1.125.453.981,1.217m6.375,4.671a3.04,3.04,0,0,1-.306-.658c-.018-.08.2-.213.306-.322a3.071,3.071,0,0,1,.306.658c.018.081-.2.214-.306.322m1.959,1.959-.348-.631c.132-.13.239-.239.348-.348a3.072,3.072,0,0,1,.306.658c.018.081-.2.214-.306.322m2.77-5.08c-.08.018-.213-.2-.322-.306l.631-.348c.13.13.239.241.348.348a3.072,3.072,0,0,1-.658.306m3.106-9.609a3.06,3.06,0,0,1-.306-.656c-.018-.081.2-.214.306-.323.118.213.235.427.348.631l-.348.348m.838,3.776-.348-.348a3.072,3.072,0,0,1,.658-.306c.081-.017.213.2.322.306l-.631.348" transform="translate(0 61.389)" fill="#313133"/>
      <path id="Path_21075" data-name="Path 21075" d="M19.587,177.349a1.375,1.375,0,0,1,.337.362h.453v-1.251a2.135,2.135,0,0,0-.831.192c-.4.239-.367.424.041.7" transform="translate(7.685 70.398)" fill="#313133"/>
      <path id="Path_21076" data-name="Path 21076" d="M63.173,182.431c-.852,0-1.088-.616-1.184-3.029l-.1-3.314c-.236-4.022-1.182-5.252-4.874-6.246a10.862,10.862,0,0,0,4.4-2.082,6.633,6.633,0,0,0,2.25-4.11,4.121,4.121,0,0,1-.667-.118.522.522,0,0,1-.319-.33c-.015-.092.161-.284.285-.323.252-.081.534-.13.8-.2.006-.137.018-.271.018-.414a7.216,7.216,0,0,0-2.6-5.82c-1.7-1.325-4.165-1.894-8-1.894H35.63v3.881H37.1c.077,0,.133,0,.2,0,.069-.161.15-.319.231-.471.021-.041.245-.035.316.022a6.713,6.713,0,0,1,.6.536c.953.218,1.112.916,1.112,2.8v18.031c0,2.556-.283,2.934-2.461,2.886H35.63v3.881h6.795c-.143-.12-.29-.236-.434-.355.873-.939,1.781-.555,2.647-.431-.018-.241.032-.5,0-.74.063-.443-.194-.974.329-1.293a.352.352,0,0,1,.325,0,2.57,2.57,0,0,1,0,2.584.352.352,0,0,1-.325,0c-.052-.031-.066-.071-.1-.106-.1.113-.208.227-.315.339h6.935V182.24h-1.75c-2.178.048-2.462-.33-2.462-2.886v-7.9H51.01c2.65-.141,3.974,1.372,4.07,4.686l.048,3.17c.048,3.313.379,4.59,1.42,5.773a6.226,6.226,0,0,0,4.685,1.988,5.766,5.766,0,0,0,5.773-3.928,8.927,8.927,0,0,0,.435-2.208A4.283,4.283,0,0,1,65.9,182.11c-.1-.113-.3-.231-.3-.34.017-.441-.239-1.031.318-1.252a3.066,3.066,0,0,1,1.272-.038c.094.007.214.129.269.234.063-.831.1-1.9.116-3.49H64.545c-.048,4.4-.284,5.207-1.372,5.207m-24.519,1.813a3.07,3.07,0,0,1-.306-.658c-.018-.081.2-.214.306-.322L39,183.9l-.348.348m3.079-29.237.348.348a3.071,3.071,0,0,1-.658.306c-.08.018-.213-.2-.322-.306l.631-.348m-1.121,1.817c.164.248.327.494.491.743a6.986,6.986,0,0,1-.168.877c-.043.134-.211.227-.323.339a4.957,4.957,0,0,1-.456-1.22c-.025-.227.292-.491.456-.739m0,11.751a3.07,3.07,0,0,1-.306-.658c-.018-.081.2-.213.306-.322l.348.631c-.13.132-.239.239-.348.348m1.135,13.554c-.112-.008-.253.025-.329-.031a1.057,1.057,0,0,1,.022-1.61.364.364,0,0,1,.325.024,1.071,1.071,0,0,1-.018,1.617m3.11-.192c-.256.137-.53.236-.79.344-.487.043-.967-.083-.818-.634.141-.53,1.22-.519,1.585-.028.056.076.064.3.024.318m16.488-21.993c.08-.018.213.2.322.306l-.631.348c-.13-.132-.239-.239-.348-.348a3.006,3.006,0,0,1,.658-.306M60.2,162.7c.109.109.218.217.348.348l-.348.631c-.109-.109-.325-.242-.306-.322a3.039,3.039,0,0,1,.306-.658m-4.9-4.9c.109.109.325.241.306.322a3.068,3.068,0,0,1-.306.657c-.109-.109-.217-.218-.348-.348l.348-.631M55.767,167c-.074.211-.358.347-.55.516a2.5,2.5,0,0,1-.383-.747,1.385,1.385,0,0,1,.112-.627,2.867,2.867,0,0,1-.481.581c-.9.757-1.94.946-4.874.946H47.271v-9.229h2.508c3.267,0,3.835.1,4.733.995a4.746,4.746,0,0,1,1.231,3.549,6.2,6.2,0,0,1-.6,2.785.612.612,0,0,1,.192-.119c.449-.172.606-.008.453.448a2.8,2.8,0,0,1-.024.9m.053-1.819c.034-.2.428-.474.676-.494a10.342,10.342,0,0,1,1.823.069c.119.013.327.284.313.3-.151.21-.316.518-.522.557a8.115,8.115,0,0,1-1.424.025c-.238-.229-1.018.476-.866-.46m3.566,15.945a3.139,3.139,0,0,1-.658-.306l.348-.348.631.348c-.109.108-.241.325-.322.306m1.791-6.672a3.07,3.07,0,0,1-.306-.657c-.018-.081.2-.214.306-.322l.348.631-.348.348" transform="translate(14.215 61.659)" fill="#313133"/>
      <path id="Path_21077" data-name="Path 21077" d="M88.045,182.24H86.483v3.881h15.191V182.24h-1.041c-2.035.046-2.367-.284-3.36-3.171L89.7,154.555h-7.24L80.8,159.944l.166.165-.348.631c-.014-.014-.032-.028-.049-.043L75.085,178.55c.375.413,1.063.375,1.772.334-.224,1.224-1.391,1.684-2.065,2.546-.5.642-.736.159-.82-.2a2.813,2.813,0,0,1-2.208,1.01h-1.42v3.881H83.123V182.24h-1.8c-1.609,0-2.129-.284-2.129-1.231a5.779,5.779,0,0,1,.283-1.609l1.088-3.408h8.661l1.041,3.265a6.206,6.206,0,0,1,.332,1.563c0,1.136-.52,1.42-2.556,1.42m10.2,2,.348.348-.348.631c-.109-.108-.325-.241-.306-.322a3.1,3.1,0,0,1,.306-.658M86.5,161.719l.348.632c-.13.13-.239.238-.348.348a3.082,3.082,0,0,1-.306-.659c-.018-.08.2-.213.306-.322m-8.681,16.442a1.225,1.225,0,0,1-.5.7c-.431.229-.516.029-.48-.451.071-.934-.01-1.882.048-2.817.011-.193.346-.376.554-.533.018-.013.294.2.306.318.066.611.084,1.23.092,1.375a6.665,6.665,0,0,1-.02,1.406m1.663-3.38a.372.372,0,0,1-.326.024,1.057,1.057,0,0,1-.022-1.61c.076-.056.218-.022.329-.031a1.071,1.071,0,0,1,.02,1.617m.652-4.737c.248-.165.5-.327.743-.491l1.216.491a4.955,4.955,0,0,1-1.22.455c-.227.025-.491-.292-.739-.455m1.619,2.02,3.124-10.175,2.226,7.143a.81.81,0,0,1,.2-.273c.076-.056.217-.022.329-.031a1.071,1.071,0,0,1,.018,1.617.279.279,0,0,1-.129.041l.523,1.677ZM94.268,177.4a3.564,3.564,0,0,1,.473.557c-.113.113-.274.322-.311.3a1.935,1.935,0,0,1-.576-.445.293.293,0,0,1,.414-.414m-1.312-1.561c.041-.129.276-.326.3-.309.211.14.522.3.558.5a5.914,5.914,0,0,1,.007,1.363.884.884,0,0,1-.42-.008,1.176,1.176,0,0,1-.446-1.54m-.081,8.956a3.493,3.493,0,0,1,.557-.471c.113.113.322.273.3.309a1.958,1.958,0,0,1-.445.576.293.293,0,0,1-.414-.414m-.442.438a.43.43,0,0,1,.414.006c.073.073.015.276.015.421-.193.151-.485.47-.564.424-.589-.344-.187-.624.134-.851m-1.207-21.37a3.066,3.066,0,0,1,.658.305c-.109.109-.217.218-.348.348l-.631-.348c.109-.108.242-.323.322-.305m-.644,7.466a3.07,3.07,0,0,1-.658-.306c.109-.108.218-.217.348-.348l.631.348c-.109.109-.242.325-.322.306" transform="translate(28.064 61.659)" fill="#313133"/>
      <path id="Path_21078" data-name="Path 21078" d="M138.121,158.436v-3.881h-3.545c0,.081-.2.206-.3.311-.057-.1-.115-.206-.171-.311h-1.384a1.528,1.528,0,0,1-.067,1.329.654.654,0,0,1-.329.294c-.448.173-.585.014-.459-.449.1-.386.157-.785.252-1.174h-1.448a.886.886,0,0,1-.8.311,1.328,1.328,0,0,1,.034-.311h-4.983v3.881h1.8c2.272-.046,2.556.332,2.556,2.887v15.759l-11.5-22.527H105.23v3.881h1.325c2.224-.046,2.508.332,2.508,2.887v13.118c.165,0,.33,0,.494-.01.944-.063.348.628.452.95a.751.751,0,0,1-.658.995c-.1.017-.193.027-.288.036v2.942c0,2.556-.284,2.934-2.508,2.886H105.23v3.881h13.346V182.24h-1.8c-2.272.048-2.556-.33-2.556-2.886V161.418l12.542,24.7h4.66c.173-.2.378-.385.569-.575.109-.106.221-.21.332-.313.161.246.431.481.46.743.007.057,0,.094,0,.145h1.645V170.516c-.312,0-.624-.007-.934-.015-.118,0-.344-.235-.325-.306.066-.232.2-.613.346-.63a8.26,8.26,0,0,1,.914-.038v-.982a3.412,3.412,0,0,1-.361-1.006c-.021-.19.193-.4.361-.614v-5.6c0-2.556.283-2.934,2.508-2.887Zm-32.246-1.612c-.109-.109-.325-.241-.306-.322a3.039,3.039,0,0,1,.306-.658l.348.348-.348.631m5.064,9.976c.08-.018.213.2.322.306l-.631.348c-.13-.132-.239-.239-.348-.348a3.073,3.073,0,0,1,.657-.306m-.532,10.7a3.072,3.072,0,0,1-.306-.658c-.018-.081.2-.213.306-.322a3.038,3.038,0,0,1,.306.658c.018.08-.2.213-.306.322m1.511-7.144a3.071,3.071,0,0,1-.658-.306l.348-.348.631.348c-.109.109-.242.325-.322.306m14.521,6.059a3.072,3.072,0,0,1-.306-.658c-.018-.08.2-.213.306-.322l.348.631c-.131.13-.239.239-.348.348m.979,7.13a3.1,3.1,0,0,1-.306-.658c-.018-.081.2-.214.306-.322l.348.631-.348.348m2.448-28.238c-.193.151-.485.471-.564.425-.59-.344-.187-.624.134-.852a.43.43,0,0,1,.414.006c.073.073.015.276.015.421" transform="translate(41.982 61.659)" fill="#313133"/>
      <path id="Path_21079" data-name="Path 21079" d="M144.706,185.318c.546-.146.674.323.635.8h11.92c5.775,0,9.134-.993,11.879-3.454,3.076-2.7,4.591-6.862,4.591-12.353s-1.515-9.653-4.591-12.351c-2.745-2.461-6.1-3.408-11.879-3.408h-11.05c-.083.151-.166.3-.252.456-.109-.109-.323-.242-.306-.322a1.221,1.221,0,0,1,.053-.134h-1.95l.024.017c-.248.162-.512.48-.739.456a2.752,2.752,0,0,1-.828-.281v3.643h1.413a1.166,1.166,0,0,1,.3-1.227c.076-.056.3-.064.318-.024.136.256.236.53.344.79a1.384,1.384,0,0,1-.045.49c1.286.123,1.5.743,1.5,2.9v10.194c.108.108.214.215.344.344l-.344.623v6.823c0,2.6-.284,2.981-2.413,2.934h-1.42v3.881h2.105c-.024-.368.1-.726.388-.8m24.756-14.784.348.631-.348.348a3.068,3.068,0,0,1-.306-.658c-.017-.08.2-.213.306-.322m-25.177-14.965-.348-.631c.13-.131.239-.239.348-.348a3.107,3.107,0,0,1,.306.658c.017.081-.2.213-.306.322m23.721,12.579a3.5,3.5,0,0,1,.557-.473c.113.113.322.274.3.309a1.941,1.941,0,0,1-.445.578.293.293,0,0,1-.414-.414m-.442.438a.426.426,0,0,1,.414,0c.073.073.015.276.015.421-.193.151-.485.471-.564.425-.589-.346-.187-.624.134-.851m-1.5,8.364c.017-.151.388-.3.62-.369.07-.022.3.193.315.319a6.376,6.376,0,0,1,.015.954,2.862,2.862,0,0,1-.027.944c-.069.183-.39.3-.621.375-.07.022-.311-.2-.316-.318a12.028,12.028,0,0,1,.014-1.905M164.4,182.1c-.08.017-.213-.2-.322-.306l.631-.348c.132.13.239.239.348.348a3.041,3.041,0,0,1-.657.306m-1.791-26.257c.109.109.218.217.348.348l-.348.631c-.109-.109-.323-.241-.306-.322a3.035,3.035,0,0,1,.306-.658m.141,2.1c.131.13.239.239.348.348a2.973,2.973,0,0,1-.658.3c-.08.02-.213-.2-.322-.3l.631-.348m-8.988.491h3.408c2.934,0,5.11,1.042,6.151,3.029,1.042,1.94,1.61,5.017,1.61,8.85,0,3.787-.557,6.876-1.574,8.776a.784.784,0,0,1,.169.36c.1.845-.185,1.161-.94,1.206l-.346-.13a7.459,7.459,0,0,1-5.071,1.669H153.76Zm-4.292,19.76a5.019,5.019,0,0,1,.456,1.22c.025.227-.292.492-.456.74-.164-.249-.481-.513-.456-.74a4.905,4.905,0,0,1,.456-1.22m-2.087-1.939c.01-.119.207-.222.354-.371.431.45.884.881,1.269,1.368.055.07-.217.576-.358.586-.432.031-1.03.257-1.245-.311a3.061,3.061,0,0,1-.02-1.273m-.442-10.619c.109.109.218.217.348.348l-.348.631c-.109-.109-.323-.241-.306-.322a3.042,3.042,0,0,1,.306-.658m-.569,18.9.348.631-.348.348a3.072,3.072,0,0,1-.306-.658c-.018-.081.2-.213.306-.322" transform="translate(56.736 61.659)" fill="#313133"/>
      <path id="Path_21080" data-name="Path 21080" d="M200.261,167.05h3.5c.379-6.673,1.988-8.615,7.193-8.615h5.112L207.4,170.742c.041-.022.081-.046.122-.067.13.13.239.239.347.348a3.061,3.061,0,0,1-.656.306c-.041.008-.1-.041-.151-.106l-7.7,10.923v3.974h24.847V172.588h-3.787c-.039.79-.092,1.5-.155,2.175.111.057.22.122.332.178-.109.109-.218.217-.348.348l-.032-.017c-.6,5.427-2.28,6.851-7.226,7.016H207.6l16.611-23.378v-4.355H200.261Zm18.866,16.214.348.631-.348.348a3.063,3.063,0,0,1-.3-.658c-.018-.081.2-.213.3-.322m-2.77,2.142c.081-.018.214.2.322.306a3.06,3.06,0,0,1-.656.306c-.081.018-.214-.2-.323-.306a3.105,3.105,0,0,1,.658-.306m-14.9-2.16a1.274,1.274,0,0,1-.923,0c-.527-.27-.408-.639,0-.979.241-.2.444-.443.67-.659a4.067,4.067,0,0,1,.332-.262,1.754,1.754,0,0,1,.326.336,1.133,1.133,0,0,1-.408,1.568m3.8-1.144c-.081.018-.214-.2-.323-.306l.631-.348c.131.13.241.239.348.348a3.063,3.063,0,0,1-.656.306m1.637-8.194c-.194.151-.487.471-.565.425-.589-.344-.186-.624.136-.851a.424.424,0,0,1,.413,0c.073.073.015.276.017.421m.425-.449a.293.293,0,0,1-.414-.414,3.511,3.511,0,0,1,.558-.473c.113.113.32.274.3.311a1.953,1.953,0,0,1-.445.576m11.673-10.618.631.348c-.108.109-.241.325-.322.306a3.1,3.1,0,0,1-.658-.306c.109-.109.218-.217.348-.348m-4.755-6.017c.109.109.325.241.306.322a3.008,3.008,0,0,1-.306.658l-.347-.348c.113-.206.229-.418.347-.631m-11.925,1.165c.076-.057.3-.064.318-.024.136.256.236.53.344.79.043.487-.084.967-.635.818-.529-.141-.518-1.22-.027-1.585" transform="translate(79.536 61.659)" fill="#313133"/>
      <path id="Path_21081" data-name="Path 21081" d="M286.549,163.793l-.631-.348c.109-.108.241-.323.322-.305a2.115,2.115,0,0,1,.534.239,14.458,14.458,0,0,0-6.376-7.455c-.294.52-.374,1.157-.674,1.673-.032.055-.238.068-.319.024-.133-.074-.32-.21-.326-.327a6.881,6.881,0,0,1,.02-1.89.679.679,0,0,1,.05-.1,16.79,16.79,0,0,0-6.845-1.391c-9.418,0-15.759,6.721-15.759,16.659,0,9.891,6.341,16.706,15.523,16.706,9.7,0,16-6.579,16-16.754a19.519,19.519,0,0,0-1.232-7.012c-.088.09-.176.176-.281.281m-28.673,2.918c-.021.041-.241.032-.316-.024-.491-.365-.5-1.444.027-1.586.551-.147.677.333.634.818-.108.26-.207.536-.344.792m18.739-10.885.348.631c-.132.13-.239.239-.348.348a3.068,3.068,0,0,1-.306-.658c-.018-.081.2-.213.306-.322m-2.938.274c.109.111.217.218.348.348l-.348.632c-.109-.109-.325-.242-.306-.322a3.08,3.08,0,0,1,.306-.659m-5.876-.978.348.631-.348.347a3.057,3.057,0,0,1-.306-.656c-.018-.081.2-.214.306-.322m-4.085,27.932c-.081.018-.213-.2-.322-.306a3.033,3.033,0,0,1,.657-.3c.08-.02.213.2.322.3a3.07,3.07,0,0,1-.658.306m0-11.469c-.081.018-.213-.2-.322-.3a2.972,2.972,0,0,1,.657-.306c.08-.018.213.2.322.306a3,3,0,0,1-.658.3m2.461,9.642a1.071,1.071,0,0,1-1.617.02.364.364,0,0,1-.024-.325,1.057,1.057,0,0,1,1.61-.024c.056.076.022.218.031.329m12.4-.645c-.109-.108-.218-.217-.348-.348l.348-.63c.109.108.325.241.306.322a3.062,3.062,0,0,1-.306.656m-6.27,2.531c-4.354,0-6.957-4.638-6.957-12.446,0-4.071.52-6.721,1.7-9.039,1.231-2.367,3.076-3.6,5.348-3.6a6.023,6.023,0,0,1,5.158,3.6c1.184,2.177,1.7,4.968,1.7,8.991,0,7.857-2.556,12.494-6.957,12.494" transform="translate(102.349 61.402)" fill="#313133"/>
      <path id="Path_21082" data-name="Path 21082" d="M312.605,158.436h1.8c2.272-.046,2.556.332,2.556,2.887v15.759l-11.5-22.527H292.918v3.881h1.325a4.419,4.419,0,0,1,1.63.172.811.811,0,0,1,.354-.642.364.364,0,0,1,.325.024,1.073,1.073,0,0,1,.055,1.533,7.741,7.741,0,0,1,.146,1.8v16.294l.055-.1c.109.109.325.241.306.322a3.1,3.1,0,0,1-.306.658c-.017-.018-.036-.038-.055-.055v.911c0,2.556-.284,2.934-2.508,2.886h-1.325v3.881h13.346V182.24h-1.8c-2.272.048-2.555-.33-2.555-2.886V161.418l12.54,24.7h7.668V176.4c-.091,0-.176.006-.28.007a6.249,6.249,0,0,1-.944-.013c-.126-.018-.231-.193-.523-.457.571-.589,1.15-1.171,1.747-1.735v-4.929l-.28.28a3.072,3.072,0,0,1-.306-.658c-.018-.081.2-.214.306-.322.094.171.187.339.28.506v-7.759c0-2.556.283-2.934,2.507-2.887h1.183v-3.881h-13.2Zm-9.373,24.27a3.044,3.044,0,0,1,.306.658c.018.08-.2.213-.306.322a3.106,3.106,0,0,1-.306-.658c-.018-.081.2-.213.306-.322m-5.3-.432-.632-.348c.109-.109.242-.325.322-.306a3.041,3.041,0,0,1,.658.306l-.347.348m2.8-.838c-.108-.109-.323-.242-.306-.322a3.151,3.151,0,0,1,.306-.659c.109.111.218.218.348.35-.113.2-.231.417-.348.631m6.427-15.8-.348-.348.348-.631c.109.109.325.241.306.322a3.078,3.078,0,0,1-.306.658m3.917,2.938a3.07,3.07,0,0,1-.306-.658c-.018-.081.2-.213.306-.322l.348.631c-.132.13-.239.239-.348.348m1.959,13.006a3.052,3.052,0,0,1-.306-.659c-.018-.08.2-.211.306-.322l.348.632-.348.348m1.032-8.11c-.151-.193-.471-.485-.425-.565.344-.588.624-.186.851.136a.43.43,0,0,1,0,.414c-.073.071-.276.015-.421.015m1.025.872a1.983,1.983,0,0,1-.576-.445.293.293,0,0,1,.414-.414,3.5,3.5,0,0,1,.473.557c-.113.113-.274.322-.311.3m6.756-17.519.348.631c-.132.13-.239.239-.348.348a3.072,3.072,0,0,1-.306-.658c-.018-.081.2-.213.306-.322m-2.938-1.959.348.631-.348.348a3.076,3.076,0,0,1-.306-.658c-.018-.081.2-.213.306-.322" transform="translate(116.861 61.659)" fill="#313133"/>
      <path id="Path_21083" data-name="Path 21083" d="M58.027,211.9c-.108-.111-.217-.218-.347-.348.108-.2.218-.4.33-.6L54.588,195.3h-2.4l-1.953,8.937.014-.013c.118.214.235.427.348.631l-.348.35c-.05-.1-.108-.2-.159-.3l-2.077,9.506h2.729l.9-4.1h3.495l.9,4.1h2.731l-.6-2.757c-.045.083-.092.166-.136.252m-5.807-14.23c.109.109.217.218.348.348l-.348.631c-.109-.109-.325-.242-.306-.322a3.072,3.072,0,0,1,.306-.658m2.587,10.21H51.912l1.42-7.262,1.165,5.737c.059-.108.116-.213.176-.32.109.109.323.242.306.323a3.061,3.061,0,0,1-.306.656c-.017-.015-.036-.036-.053-.053Z" transform="translate(19.153 77.913)" fill="#dc7644"/>
      <path id="Path_21084" data-name="Path 21084" d="M64.011,197.891H67.4v15.426a1.237,1.237,0,0,1,.252-.1c.08-.017.213.2.322.306a4.2,4.2,0,0,1-.574.273v.611h2.731V203.257a1.779,1.779,0,0,1-.445-.361.293.293,0,0,1,.414-.414c.011.008.02.022.031.032v-4.624h3.385V195.3h-9.5Zm1.648-1.641a3.04,3.04,0,0,1,.306.657c.018.08-.2.213-.306.322l-.348-.631c.13-.132.239-.239.348-.348" transform="translate(25.537 77.913)" fill="#dc7644"/>
      <path id="Path_21085" data-name="Path 21085" d="M93.695,197.891h3.387v15.137c.1-.007.22.007.327.007.248.134.72.306.705.4a.671.671,0,0,1-.919.56.37.37,0,0,0-.113-.008v.422h2.731v-9.046a.29.29,0,0,1-.4-.417,2.136,2.136,0,0,1,.4-.355v-6.7H103.2V195.3h-9.5Zm7.968-2.483c.109.109.218.217.348.348l-.348.631c-.109-.109-.325-.241-.306-.322a3.04,3.04,0,0,1,.306-.657m-2.8,15.81c.13.131.239.239.348.348a3.069,3.069,0,0,1-.658.306c-.08.017-.213-.2-.322-.306l.631-.348" transform="translate(37.38 77.913)" fill="#dc7644"/>
      <path id="Path_21086" data-name="Path 21086" d="M118.653,205.017a3.51,3.51,0,0,0,.779-.86,4.1,4.1,0,0,0,.505-1.146,5.415,5.415,0,0,0,.178-1.434v-1.365a7.033,7.033,0,0,0-.22-1.856,4.321,4.321,0,0,0-.6-1.337,3.248,3.248,0,0,0-.887-.874,4.9,4.9,0,0,0-1.052-.518,5.287,5.287,0,0,0-1.119-.26,9.429,9.429,0,0,0-1.093-.069h-4.313v19.112h2.731v-8.245h1.61l2.648,8.245h2.84l-3-8.819a3.991,3.991,0,0,0,1-.574m-.361-2.157a3.072,3.072,0,0,1,.658.306c-.109.108-.218.217-.348.348l-.631-.348c.109-.109.242-.325.322-.306m-6.649,6.074a3,3,0,0,1-.658-.306c.109-.108.218-.217.348-.348l.631.348c-.109.109-.241.325-.322.306m5.741-7.3a2.029,2.029,0,0,1-.2.941,1.933,1.933,0,0,1-.519.642,2.189,2.189,0,0,1-.725.369,2.851,2.851,0,0,1-.818.122h-1.556v-5.951h1.8a2.5,2.5,0,0,1,.737.109,1.626,1.626,0,0,1,.642.382,2.044,2.044,0,0,1,.463.7,2.715,2.715,0,0,1,.178,1.051Z" transform="translate(44.216 77.913)" fill="#dc7644"/>
      <path id="Path_21087" data-name="Path 21087" d="M131.027,205.972h4.751v-2.457h-3.565a.085.085,0,0,1,.018.049,3.072,3.072,0,0,1-.306.657c-.109-.109-.218-.217-.348-.348l.2-.358h-.747v-5.625h5.379V195.3H128.3v19.112h8.191v-2.594h-5.462Zm2.85-10a.423.423,0,0,1,.413.006c.073.073.017.276.017.421-.193.15-.485.47-.565.424-.589-.344-.186-.624.136-.851m-3.769,10.394-.631-.348c.109-.109.242-.323.322-.306a3.042,3.042,0,0,1,.657.306c-.109.109-.217.218-.348.348" transform="translate(51.185 77.913)" fill="#dc7644"/>
      <path id="Path_21088" data-name="Path 21088" d="M147.518,205.972h4.751v-2.458h-4.751v-5.624H152.9V195.3h-2.682a1.9,1.9,0,0,1,.071.348c.007.242-.3.494-.459.741a2.508,2.508,0,0,1-.47-.747,1.433,1.433,0,0,1-.031-.343h-4.538v12.985l.143-.144a3.073,3.073,0,0,1,.306.658c.018.081-.2.214-.306.322-.049-.087-.1-.172-.143-.259v5.55h8.191v-2.594h-5.461Zm-.908-3.718c-.109-.109-.325-.241-.306-.322a3.069,3.069,0,0,1,.306-.658l.348.348-.348.631" transform="translate(57.764 77.913)" fill="#dc7644"/>
      <path id="Path_21089" data-name="Path 21089" d="M169.806,210.537c.109-.109.241-.323.322-.306a1.415,1.415,0,0,1,.344.137,9.89,9.89,0,0,0,.071-1.1v-.656a10.455,10.455,0,0,0-.137-1.719,3.763,3.763,0,0,0-.683-1.584,3.588,3.588,0,0,0-1.2-1.079,9.817,9.817,0,0,0-1.283-.56l-1.666-.6c-.2-.091-.424-.2-.669-.315a1.373,1.373,0,0,1-.588-.532,2.2,2.2,0,0,1-.355-1,7.859,7.859,0,0,1-.081-1,5.739,5.739,0,0,1,.1-1,1.824,1.824,0,0,1,.478-.941,1.531,1.531,0,0,1,.683-.423,2.507,2.507,0,0,1,.655-.1,1.77,1.77,0,0,1,.929.2,2.37,2.37,0,0,1,.519.424,1.852,1.852,0,0,1,.395.929,6.523,6.523,0,0,1,.069.818v.519h2.731v-.628a6.245,6.245,0,0,0-.329-2.117,4.594,4.594,0,0,0-.322-.684c-.017.024-.041.036-.059.062s-.583-.21-.592-.344c-.013-.2-.063-.443-.066-.669a3.988,3.988,0,0,0-1.323-.862,5.072,5.072,0,0,0-1.869-.327,5.97,5.97,0,0,0-1.789.259,3.818,3.818,0,0,0-1.515.915,4.725,4.725,0,0,0-1.01,1.461,4.95,4.95,0,0,0-.41,2.089v.546q0,.711.055,1.42a3.959,3.959,0,0,0,.355,1.365,3.059,3.059,0,0,0,1.093,1.406,6.923,6.923,0,0,0,1.419.723l1.993.709q.218.084.628.274a1.728,1.728,0,0,1,.683.574,2.108,2.108,0,0,1,.355.927,7.027,7.027,0,0,1,.081,1.038v.711a7.531,7.531,0,0,1-.069.968,1.817,1.817,0,0,1-.368.915,1.924,1.924,0,0,1-.546.45,2.315,2.315,0,0,1-1.175.232,3.52,3.52,0,0,1-.709-.1,1.426,1.426,0,0,1-.792-.533,1.777,1.777,0,0,1-.368-.874c-.013-.091-.02-.168-.029-.25a1.136,1.136,0,0,1-.22.087c-.08.018-.213-.2-.322-.306l.505-.278c0-.022,0-.05,0-.07v-.519h-2.731v.628c0,.055,0,.2.014.436a5.845,5.845,0,0,0,.1.82,6.78,6.78,0,0,0,.259,1,3.368,3.368,0,0,0,.505.969,3.976,3.976,0,0,0,1.406,1.16,5.082,5.082,0,0,0,2.416.506,5.716,5.716,0,0,0,2.1-.355,4.183,4.183,0,0,0,1.447-.9,4.455,4.455,0,0,0,.955-1.693,6.685,6.685,0,0,0,.215-.944l-.6-.33m-6.017,3.413-.348-.348a3.068,3.068,0,0,1,.658-.306c.08-.017.213.2.322.306l-.631.348" transform="translate(64.226 77.835)" fill="#dc7644"/>
      <path id="Path_21090" data-name="Path 21090" d="M201.808,214.409l-3-8.819a3.99,3.99,0,0,0,1-.574,3.51,3.51,0,0,0,.779-.86,4.1,4.1,0,0,0,.505-1.146,5.415,5.415,0,0,0,.178-1.434v-1.365a7.033,7.033,0,0,0-.22-1.856,4.319,4.319,0,0,0-.6-1.337,3.249,3.249,0,0,0-.887-.874,4.9,4.9,0,0,0-1.052-.518,5.288,5.288,0,0,0-1.119-.26,9.429,9.429,0,0,0-1.093-.069h-4.313v19.112h2.731v-8.245h1.61l1.035,3.223c.025-.024.035-.063.063-.084.076-.056.218-.022.329-.031a1.063,1.063,0,0,1,.07,1.55l1.151,3.587Zm-2.258-18.023c.109.109.325.242.306.322a3.082,3.082,0,0,1-.306.659c-.109-.109-.217-.218-.348-.348l.348-.632m-.168,2.143a3.032,3.032,0,0,1,.658.3c-.109.109-.217.218-.348.348l-.631-.348c.109-.108.242-.323.322-.3m-6.687,9.608a3.06,3.06,0,0,1-.306-.656c-.017-.081.2-.214.306-.322a3.064,3.064,0,0,1,.306.656c.018.081-.2.214-.306.322m3-12.481a.43.43,0,0,1,.414.006c.073.073.015.276.015.421-.193.151-.485.471-.564.425-.589-.346-.187-.624.134-.852m2.838,5.975a2.028,2.028,0,0,1-.2.941,1.933,1.933,0,0,1-.519.642,2.189,2.189,0,0,1-.725.369,2.851,2.851,0,0,1-.818.122H194.71v-5.951h1.8a2.5,2.5,0,0,1,.737.109,1.626,1.626,0,0,1,.642.382,2.044,2.044,0,0,1,.463.7,2.715,2.715,0,0,1,.178,1.051Z" transform="translate(76.591 77.913)" fill="#dc7644"/>
      <path id="Path_21091" data-name="Path 21091" d="M216.125,202.579a4.872,4.872,0,0,1-.456-1.218c-.022-.194.2-.416.372-.631l-1.186-5.432h-2.4l-2.7,12.378c.388,0,.5.4.46.82a8.51,8.51,0,0,1-.346.79c-.021.041-.241.032-.316-.024a.709.709,0,0,1-.119-.123l-1.153,5.271H211l.9-4.1H215.4l.9,4.1h2.731l-2.682-12.267-.225.436m-3.509-5.212.348.631-.348.348a3.039,3.039,0,0,1-.306-.658c-.018-.08.2-.213.306-.322m-.438,10.517,1.42-7.262,1.475,7.262Z" transform="translate(83.092 77.913)" fill="#dc7644"/>
      <path id="Path_21092" data-name="Path 21092" d="M236.01,202.4c-.53-.141-.519-1.221-.028-1.586a.341.341,0,0,1,.151-.039v-3.946a5.5,5.5,0,0,1-.257.534l-.348-.348.348-.631c.073.074.192.157.257.228V195.3H233.4v12.013L228.843,195.3h-2.731v9.036a.8.8,0,0,1,.274.2c.056.074.022.217.031.329a.711.711,0,0,1-.3.263v9.279h2.731V202.4l4.559,12.013h2.731v-12a.611.611,0,0,1-.123,0m-7.479,8.129c-.193.151-.487.471-.565.425-.589-.346-.186-.624.136-.851a.427.427,0,0,1,.413,0c.073.074.017.276.017.421m5.523-6.312c-.109-.109-.218-.217-.348-.348l.348-.631c.109.109.325.242.306.322a3.07,3.07,0,0,1-.306.658" transform="translate(90.208 77.914)" fill="#dc7644"/>
      <path id="Path_21093" data-name="Path 21093" d="M250.73,209.872a3.134,3.134,0,0,1-.138,1.066,2.061,2.061,0,0,1-.243.491,1.49,1.49,0,0,1-.658.491,2.322,2.322,0,0,1-.872.164,1.6,1.6,0,0,1-.916-.232,1.623,1.623,0,0,1-.477-.45,1.605,1.605,0,0,1-.313-.806,8.549,8.549,0,0,1-.042-.887v-9.419a7.474,7.474,0,0,1,.067-.982,1.829,1.829,0,0,1,.4-.9,2.186,2.186,0,0,1,.546-.438,1.731,1.731,0,0,1,.874-.19,1.5,1.5,0,0,1,.982.273,3.474,3.474,0,0,1,.438.41,1.806,1.806,0,0,1,.271.614,2.765,2.765,0,0,1,.084.641v1.093h2.648V199.5a4.555,4.555,0,0,0-.357-1.828,4.267,4.267,0,0,0-.872-1.339,4.2,4.2,0,0,0-1.53-.915,5.077,5.077,0,0,0-3.4-.041,3.961,3.961,0,0,0-1.49.846,3.732,3.732,0,0,0-.736.86,4.018,4.018,0,0,0-.422.941,4.523,4.523,0,0,0-.192.983q-.042.491-.042.955v9.91c0,.238.006.5.014.778a6.036,6.036,0,0,0,.1.874,3.718,3.718,0,0,0,.287.9,4.061,4.061,0,0,0,.558.887,4.606,4.606,0,0,0,.914.74c-.112-.2-.221-.4-.329-.59l.35-.35a3.069,3.069,0,0,1,.306.658c.015.078-.178.2-.291.308.113.073.21.148.334.218a4.353,4.353,0,0,0,2.156.464,5.361,5.361,0,0,0,2.282-.41,4.355,4.355,0,0,0,1.3-.874,4.207,4.207,0,0,0,.762-1.228,5.561,5.561,0,0,0,.383-2.266v-.79H250.73Zm.7-13.507c.078-.018.211.2.32.306a3.012,3.012,0,0,1-.658.306c-.081.018-.211-.2-.322-.306a3.018,3.018,0,0,1,.659-.306m-2.755,17.185c-.193.15-.485.47-.564.424-.589-.344-.187-.624.136-.851a.427.427,0,0,1,.413.006c.073.073.015.276.015.421m3.455-1.385-.743.49-1.214-.49a4.948,4.948,0,0,1,1.218-.456c.228-.025.491.292.739.456" transform="translate(97.48 77.835)" fill="#dc7644"/>
      <path id="Path_21094" data-name="Path 21094" d="M270.476,196.984c-.018-.08.2-.213.306-.322.017.034.036.067.055.1V195.3h-2.731v8.217H264.42V195.3h-2.729v11.6c.679.062.8.6.73,1.188a.749.749,0,0,1-.73.743v5.582h2.729v-8.436h3.686v8.436h2.731V197.593c-.02.017-.039.034-.055.049a3.006,3.006,0,0,1-.306-.658M262.5,214.014a3,3,0,0,1-.306-.658c-.018-.08.2-.213.306-.322a3.061,3.061,0,0,1,.3.658c.018.081-.2.213-.3.322m.165-10.913-.348-.348a3.074,3.074,0,0,1,.658-.306c.081-.018.213.2.322.306l-.631.348m6.185,6.813a3.071,3.071,0,0,1-.657-.306l.348-.348.631.348c-.109.109-.241.325-.322.306" transform="translate(104.402 77.913)" fill="#dc7644"/>
      <path id="Path_21095" data-name="Path 21095" d="M265.227,58.287c.185-.872.732-3.139,1.093-4.186s-1.025-2.458-1.185-3.858a6.009,6.009,0,0,0-2.059-3.868c-1.042-.709-5.21-3.563-6.073-4.621s-4.163-3.378-5.028-4.263-5.743-2.68-7.144-2.52-6.3.285-7.69-.253-2.6-2.824-3.64-3.184-1.89-3.342-2.059-3.868-2.062-3.517-2.577-4.572a11.232,11.232,0,0,1-.947-5.08c.241-1.4-1.6-2.29-2.981-4.053s-4.337-3.541-5.545-4.951a8.964,8.964,0,0,0-2.4-1.6c0,.228.013.456.013.683a6.356,6.356,0,0,1-.015.953c-.02.127-.246.343-.316.319-.231-.073-.569-.194-.624-.372-.218-.7.28-1.508-.3-2.2-.764-.36-1.542-.7-2.237-1a1.325,1.325,0,0,1-.159.171.415.415,0,0,1-.41,0,.416.416,0,0,1,0-.408c-.69-.29-1.249-.518-1.546-.649-1.218-.537-4.7-2.321-5.4-2.328a75.715,75.715,0,0,1-9.6-2.2c-1.915-.718-6.466-.239-7.168-.071-.294.07-1.209.1-2.325.183a2.19,2.19,0,0,1,.246.543c.017.081-.2.214-.306.323A3.07,3.07,0,0,1,186.536.7c-.011-.05.07-.122.158-.194a16.658,16.658,0,0,0-4.47.781c-2.107.853-4.891-.574-6.818-.069s-7,.628-8.052.793-4.759,3.8-5.3,5.017a4.845,4.845,0,0,1-2.472,2.437c-1.231.7-.364,1.381-1.252,2.771s-3.518,2.062-4.222,2.58-1.779,2.955-2.84,4.167a5.873,5.873,0,0,0-1.346,2.506,37.025,37.025,0,0,1-2.075,3.756c-.382.621-.332,1.192-.653,1.656.039.048.078.1.115.132a4.8,4.8,0,0,1-.555.266,1.624,1.624,0,0,1-.171.1c-1.055.515-1.963,3.828-2.672,4.87-.522.764-.582,1.732-.732,3.774a2.131,2.131,0,0,1,1.094.266c.19.122.228.555.249.849.041.569-.466.909-.747.522a1.593,1.593,0,0,0-.678-.558c-.038.488-.083,1.011-.14,1.607-.39,4.018-.02,1.924-.05,4.895a12.311,12.311,0,0,0,1.511,6.309,5.763,5.763,0,0,1,.842,3.156,26.563,26.563,0,0,0,1.523,4.912,5.184,5.184,0,0,0,3.467,1.056c.776-.084,2.318-2.4,2.154-3.622s.537-1.218.9-2.788a45.642,45.642,0,0,1,1.465-6.63c.716-1.943.874-3.006,1.357-4.148,0-.372-.007-.744-.007-1.116a17.2,17.2,0,0,1,.028-1.9c.017-.151.32-.291.546-.385a6.776,6.776,0,0,1-.049-3.388c.723-2.382,1.775-2.665,2.49-4.232s4.66-5.972,6.961-8.746,4.41-3.8,6.171-5.008,1.771-2.255,2.475-2.6a45.657,45.657,0,0,0,5.624-2.915c1.41-1.035,3.334-1.016,4.563-1.672s3.665.705,5.593.2,6.115.585,7.16.946,3.963,2.48,6.41,2.5,8.517,5.157,9.207,6.038,6.795,5.848,7.308,6.9,2.242,3,2.585,3.7,1.323,1.557,1.662,2.609-1.591,1.732-1.761,1.206-3.583-2.8-4.451-3.337-2.906-5.586-4.295-6.473S209.7,20.431,209,19.9s-3.524-1.063-5.264-1.954-11.161-2.911-14.129-3.29-7.528.8-9.98,1.3-2.29,1.726-3,2.942a20.614,20.614,0,0,1-4.415,4.327c-1.586,1.209-4.244,4.678-5.308,6.067s-1.435,3.657-2.147,4.874c-.459.785-1.286,2.216-1.96,3.462l.043.043-.348.631a.41.41,0,0,0-.038-.032c-.225.431-.418.818-.547,1.112a77.591,77.591,0,0,0-2.715,9.065c-.189,1.4.109,6.47-.076,7.518s1,4.73.635,6.3.158,1.75.856,1.879-.008.753,2.273-.1,2.792.553,3.672.038.891-1.739,1.781-3.3,3.545-4.685,4.808-8.52-.484-4.026.07-6.993a15.127,15.127,0,0,0,.052-5.07c.011-1.049,1.232-.862,2.464-1.549s1.419-1.91,1.849-3.3a6.728,6.728,0,0,0,.147-3.959c-.329-2.041.185-.933,1.241-1.621s2.107-.853,2.817-1.9a2.462,2.462,0,0,1,1.76-1.206,18.228,18.228,0,0,0,2.981-.844c1.756-.683,1.578-.334,3.5.035s5.07.052,6.993.07a21.2,21.2,0,0,1,5.408,1.1c2.093.547,3.668.388,5.411.93a1.785,1.785,0,0,1,1.2,2.283,2.452,2.452,0,0,0,1.558,1.591c1.221.362.86,1.407,1.89,3.342s.334,1.577,1.023,2.633c0,0-1.6,2.257-2.121,2.251s-4-2.138-4.7-2.319-3.849.136-4.2.656a12.794,12.794,0,0,0-.727,2.791s2.794.378,3.668.386,2.272.2,2.97.206,1.914,1.069,1.914,1.069a6.452,6.452,0,0,1-2.809,1.02c-1.223-.013-2.276.327-3.325.316s-2.294,2.076-2.294,2.076a4.242,4.242,0,0,0,.68,1.929c.52.53,2.27.374,3.493.385a25.647,25.647,0,0,1,3.842.564c1.048.186,2.441.725,3.313.908s2.426,2.3,2.426,2.3l-.729,2.79s-.371,2.094-.572,4.714-1.07,2.089-1.428,2.959-1.07,2.087-1.427,2.784-2.511,6.269-2.522,7.318a31.539,31.539,0,0,1-.558,3.317c-.189,1.4-1.585,1.207-2.465,1.724s-4.023.134-5.073.123-6.276-1.812-7.151-1.645c-.567.106-3.611.042-5.7-.017l-.056.087c-.02-.029-.046-.06-.069-.09-1.076-.031-1.872-.059-1.872-.059s-14.33-.845-14.858-.5-4.887-.923-6.108-1.109a38.827,38.827,0,0,0-6.472.109c-.876.165-7.333-.95-7.333-.95a7.354,7.354,0,0,0-2.443-.548c-.527.169-3.686,1.361-4.563,1.7s-7.5-1.475-7.5-1.475l-6.644-.067a19.472,19.472,0,0,0-2.957-1.6c-1.045-.361-4.712-.923-4.712-.923s-4.176-1.966-5.906-3.731-5.417-.4-5.947.115-1.589,1.557-2.3,2.424,1.716,3.164,2.23,4.219,3.99,3.188,4.221,4.239,2.349,3.171,3.39,4.056-.018,5.536-.2,6.409a9.613,9.613,0,0,1-1.49,2.522s.919,3.822-.025,5.215a7.971,7.971,0,0,0-.919,4.362c-.008.874.166.877.681,1.756s-.364,1.4-.733,3.316.126,4.9.118,5.771-.027,2.623.491,3.328-.823,3.665-1.15,5.236a38.973,38.973,0,0,0-.5,6.462c.021,1.749.971,3.857.953,5.606s.127,4.721.127,4.721.5,2.978.663,3.679-.929,5.411-1.638,6.279-.041,4.021-.046,4.545a22.979,22.979,0,0,0,1,4.731,10.785,10.785,0,0,0,1.908,1.593l4.191.392s3.152-.318,3.331-.841a11.382,11.382,0,0,0,1.4-2.657,10.894,10.894,0,0,0,.228-2.748,14.147,14.147,0,0,1-.754-3.605c.1-1.151-.852-3.317-.848-3.774.008-.873,1.558-5.559,1.083-6.09s.327-2.094.159-2.8a26.211,26.211,0,0,1-.094-2.925c-.849-.053-1.434.147-1.388,1.228.01.245-.3.5-.464.753a7.108,7.108,0,0,1-.48-.758,1.209,1.209,0,0,1-.01-.473,4.793,4.793,0,0,1,.011-.951c.1-.491.347-.835.957-.767.455.052.929-.031,1.377.038a43.94,43.94,0,0,1,.178-4.712c.18-.522.684-5.266.684-5.266l.989-6.235a3.063,3.063,0,0,1,1.824,1.3c.607,1.039.6,2.855,1.564,3.127,1.918.544,1.627,2.767,1.627,2.767s.993,5.431.8,6.828a34.9,34.9,0,0,1-.921,4.537c-.361,1.22,1.728,2.115,1.728,2.115l-.011,1.049a40.63,40.63,0,0,1-1.454,5.406,14.681,14.681,0,0,0-.555,3.142c-.011,1.049-.374,2.269-.4,4.717s-.039,3.846-.045,4.37-2.845,4.692-2.5,5.4,3.3,2.655,3.3,2.655l5.943.235a25.527,25.527,0,0,0,3.863-1.535c.7-.518.72-2.091.725-2.615s-.656-4.2-.656-4.2l-.126-4.9s1.263-3.835,1.621-4.7,1.272-4.709,1.453-5.407-.683-1.579-1.024-2.458a7.017,7.017,0,0,1-.141-3.324c.186-1.046-.99-5.78-.972-7.528s.2-2.1,1.074-2.612.382-3.143.214-3.844-1.349-4.91-.814-5.954,1.575-.159,3.5-.14,1.558,1.589,1.9,2.118,3.3,1.957,4,2.314,1.729,1.94,3.644,2.659,5.943.235,7.343.074,2.266.722,3.839.914a27.608,27.608,0,0,0,6.641.241c1.928-.329,8.03,1.307,8.9,1.315s2.457-.849,3.146.207,7.652,4.1,9.748,4.295a4.913,4.913,0,0,1,2.962,1.079s1.034,1.585.327,2.277-.536,1.044-1.073,2.262-.4,4.892-.581,5.589a9.733,9.733,0,0,0,.662,3.679,5.048,5.048,0,0,1-.028,2.8c-.186,1.048-1.253,2.96-1.267,4.359s-1.1,4.689-1.8,5.207-2.531,2.023-2.718,3.244-1.2,4.645-.336,5.178,3.118,2.266,3.118,2.266l2.094.369s3.681-.837,4.382-1a28.776,28.776,0,0,0,3.868-2.059c.879-.516,1.437-3.833,1.617-4.355a12.883,12.883,0,0,0-.491-3.328c-.166-.876.729-2.964.734-3.489s1.462-5.8,1.467-6.325,1.26-3.965,1.272-5.189.934-5.936.946-6.985-.316-3.325.046-4.545-.32-2.976-.313-3.675.539-1.393,1.6-2.606,1.391.888,1.914.893a12.565,12.565,0,0,1,2.44.9,20.173,20.173,0,0,1,1.006,4.207,50.809,50.809,0,0,1-.944,6.971,19.3,19.3,0,0,0-.032,5.5c.116,1.014.3,2.883.313,4.569a.985.985,0,0,1,.75.344c.056.074.022.217.031.329a.9.9,0,0,1-.792.375c-.011.262-.027.511-.05.744-.111,1.1-.063,2.343-.167,3.79a17.138,17.138,0,0,1-.625,3.627,23.971,23.971,0,0,1-1.484,3.879c-.541,1.568-2.04,1.472-2.224,2.518s-2.682,2.872-2.513,3.4a12.114,12.114,0,0,0,2.073,2.468,4.422,4.422,0,0,0,2.962,1.08c.526-.169,1.763,1.491,1.932,2.017s3.65,2.31,5.046,2.5a3.615,3.615,0,0,0,2.806-.845c.88-.516,1.091-4.187,1.273-4.884s1.263-3.835,1.1-5.06c-.108-.814-.217-1.557-.323-2.524-.1-.064-.123-.218-.053-.476v-.008c-.036-.361-.071-.753-.108-1.193a8.3,8.3,0,0,1,.74-4.014,19.708,19.708,0,0,0,.87-3.907,48.407,48.407,0,0,0-1.02-4.874c-.168-.7-.61-2.592-.942-4.345s.551-2.616.569-4.365.95-7.51.961-8.557.9-2.79.915-4.014-1-4.731-1.164-5.957-.313-3.675-.481-4.376.732-3.139.743-4.188,1.606-3.307,1.966-4.177-.329-2.1-.664-3.5.762-6.287,1.129-7.857-.505-1.928-.505-1.928l-1.708-4.04a15.178,15.178,0,0,1-1.884-3.865c-.162-1.225,1.95-2.6,2.308-3.474a8.512,8.512,0,0,0,.043-4.2c-.34-1.052-.467-5.775-.628-7.175s1.581-.683,1.777-2.778,2.3-2.776,2.839-3.994-.309-4.025-.3-4.9a18.678,18.678,0,0,1-.127-4.721c.369-1.919,2.637-1.372,3.864-1.71a8.42,8.42,0,0,1,3.145.206,13.557,13.557,0,0,1,3.309,1.433,21.352,21.352,0,0,0,4.351,1.968c1.4.364,2.259,1.421,3.128,1.954s2.448.025,3.324-.141,2.255,1.785,3.474,2.322a5.737,5.737,0,0,0,3.314.747c1.225-.162,4.2-.481,4.384-1.354M144.7,46.929c-.081.018-.214-.2-.322-.306l.631-.348.348.348a3.172,3.172,0,0,1-.658.306m1.959-16.648c-.081.017-.214-.2-.322-.306a3.061,3.061,0,0,1,.656-.306c.081-.018.214.2.323.306a3.1,3.1,0,0,1-.658.306m6.73,14.3c-.069.183-.39.3-.621.375-.07.021-.311-.2-.316-.318a12.2,12.2,0,0,1,.013-1.879,1.4,1.4,0,0,1-1.1.032c-.129-.039-.326-.274-.309-.3.138-.21.3-.52.5-.558a5.993,5.993,0,0,1,1.363-.007.871.871,0,0,1-.008.421,1.2,1.2,0,0,1-.116.131,2.872,2.872,0,0,1,.3-.115c.07-.022.3.192.315.319a6.352,6.352,0,0,1,.015.953,2.871,2.871,0,0,1-.027.946m1.272-26.852-.348-.631c.13-.132.239-.239.348-.348a3.034,3.034,0,0,1,.3.658c.018.08-.2.213-.3.322M190.3,6.64c-.081.018-.213-.2-.322-.306l.631-.348c.13.132.239.241.348.348a2.941,2.941,0,0,1-.658.306m22.6.7c-.074.21-.359.346-.55.515a2.469,2.469,0,0,1-.385-.747,1.841,1.841,0,0,1,.18-.825.6.6,0,0,1,.325-.3c.448-.171.6-.007.453.449a2.854,2.854,0,0,1-.024.9M161.647,58.719c-.56.323-1.445.166-1.568-.367-.087-.383.172-.845.277-1.273a3.428,3.428,0,0,1,.659.322c.365.283.7.609,1.042.916a2.77,2.77,0,0,1-.41.4m8.678-27.275-.348-.348.348-.631c.108.109.323.241.3.322a3.1,3.1,0,0,1-.3.658M186.075,20.8a.412.412,0,0,1-.41,0,.421.421,0,0,1,0-.411,3.566,3.566,0,0,1,.558-.471c.113.113.322.273.3.309a1.963,1.963,0,0,1-.446.576m3.689,1.648c-.53-.143-.519-1.221-.028-1.586.076-.057.3-.064.318-.024.136.255.236.53.344.79.043.485-.083.967-.634.82m23.8,20.6a2.557,2.557,0,0,1-.877.132,2.519,2.519,0,0,1-.747-.466,2.49,2.49,0,0,1,.747-.466,1.862,1.862,0,0,1,.873.143c.133.043.227.211.339.323-.112.112-.224.222-.334.334M119,94.437c.08-.017.213.2.322.306a3.07,3.07,0,0,1-.658.306c-.081.018-.213-.2-.322-.306a3.108,3.108,0,0,1,.658-.306m-1.051,38.1a1.012,1.012,0,0,1,.595-1.224,4.964,4.964,0,0,1,.333,1.228c.008.243-.3.5-.457.743a2.507,2.507,0,0,1-.47-.747m1.592,16.253c-.022.041-.242.032-.318-.024-.491-.365-.5-1.444.028-1.586.551-.147.677.333.634.82-.108.26-.208.534-.344.79m5.036-40.126c-.109-.108-.325-.241-.306-.322a3.06,3.06,0,0,1,.306-.656c.109.108.218.217.348.348l-.348.63m3.634-33.157a3.036,3.036,0,0,1-.306-.658c-.018-.081.2-.213.306-.322l.348.631c-.131.13-.241.239-.348.348m4.39,5.86c-.073.071-.274.015-.421.015-.15-.193-.47-.485-.424-.564.344-.59.624-.187.851.134a.43.43,0,0,1-.006.414m.506-4.881a3,3,0,0,1-.306-.658c-.018-.08.2-.214.306-.322a3.033,3.033,0,0,1,.3.658c.018.08-.2.213-.3.322m1.389,33.5c-.193.151-.485.471-.564.425-.589-.344-.186-.624.136-.852a.431.431,0,0,1,.413.006c.073.073.015.276.015.421m.148,43.319a3.07,3.07,0,0,1-.306-.657c-.018-.081.2-.213.306-.322l.348.631c-.131.13-.239.239-.348.348m5.948,7.344a5.015,5.015,0,0,1-.456-1.22c-.025-.227.294-.491.456-.739.164.248.327.494.568.859-.169.327-.368.713-.568,1.1m.6-38.169c-.243.007-.494-.3-.741-.459a2.519,2.519,0,0,1,.746-.47,1.013,1.013,0,0,1,1.225.6,5.1,5.1,0,0,1-1.23.333m1.193-40.719c-.074.211-.36.347-.55.516a2.468,2.468,0,0,1-.385-.747,1.841,1.841,0,0,1,.18-.825.594.594,0,0,1,.325-.294c.448-.173.6-.008.453.448a2.844,2.844,0,0,1-.024.9M154.632,108a.671.671,0,0,1-.56-.921c.1-.312-.474-1.032.432-.888.2.032.378.407.516.653.064.115.011.3.011.449-.134.249-.306.72-.4.706m.583,3.318c-.109-.109-.218-.217-.348-.348l.348-.631c.109.109.323.241.306.322a3.041,3.041,0,0,1-.306.658m4.338,8.966a2.994,2.994,0,0,1-.306-.656c-.018-.081.2-.214.306-.322a3.061,3.061,0,0,1,.306.656c.017.081-.2.214-.306.322m2.208-42.019c-.228.025-.491-.292-.739-.456.248-.164.512-.481.739-.456a4.959,4.959,0,0,1,1.22.456,5.017,5.017,0,0,1-1.22.456m9.878,39.3a1.073,1.073,0,0,1-1.619.02.372.372,0,0,1-.022-.326,1.057,1.057,0,0,1,1.61-.022c.056.076.022.218.031.329m11.417-24.892a3,3,0,0,1-.306-.658c-.018-.08.2-.213.306-.322l.348.631-.348.348m8.956-4.355c-.022.041-.242.034-.318-.022-.491-.365-.5-1.445.028-1.586.55-.147.677.333.634.818-.108.26-.208.536-.344.79m2.511,28.6c-.064.445.194.974-.329,1.293a.344.344,0,0,1-.325,0,2.572,2.572,0,0,1,0-2.585.353.353,0,0,1,.325,0c.523.319.264.849.329,1.294m.576,3.632-.568-.859c.169-.327.369-.713.568-1.1a4.959,4.959,0,0,1,.456,1.22c.025.227-.292.491-.456.739m4.77,18.789c.081-.018.214.2.323.306a3.1,3.1,0,0,1-.658.306c-.081.018-.214-.2-.322-.306a3.06,3.06,0,0,1,.656-.306m-1.146,14.506c-.109-.109-.325-.242-.306-.322a3.042,3.042,0,0,1,.306-.658c.108.109.217.218.348.348l-.348.631m1.458-3.7c-.1.49-.347.852-.944.761-.155-.024-.351.056-.469-.014-.483-.283-.463-.561-.067-.989a4.878,4.878,0,0,0,.519-1.2,6.074,6.074,0,0,1,.49-.733,6.971,6.971,0,0,1,.471.754,1.193,1.193,0,0,1,.011.47,5.1,5.1,0,0,1-.011.949m1.227-.4a3.108,3.108,0,0,1-.657-.306c.109-.109.217-.218.348-.348l.631.348c-.109.108-.242.325-.322.306m5.383-66c-.038.067-.288.01-.441.01.116-.762-.642-.953-.915-1.454-.025-.046.39-.332.6-.505.8-.1,1.3.171,1.265.821a2.833,2.833,0,0,1-.511,1.128m1.353-1.388c-.53-.141-.519-1.221-.028-1.586.076-.056.3-.064.318-.024.136.256.236.532.344.792.043.485-.084.965-.634.818m5.268-10.766-.348-.631c.13-.132.239-.239.348-.348a3.034,3.034,0,0,1,.3.658c.018.08-.2.213-.3.322m4.9,69.528-.348-.348.348-.631c.108.108.323.241.306.322a3.139,3.139,0,0,1-.306.658m1.959-98.761c-.109-.109-.325-.242-.306-.322a2.973,2.973,0,0,1,.306-.658c.108.109.217.217.348.348l-.348.631m.979,59.59c-.109-.109-.325-.242-.306-.322a3,3,0,0,1,.306-.658l.348.348c-.113.2-.231.418-.348.631m2.636,10.5a.655.655,0,0,1-.294-.329c-.172-.448-.014-.585.449-.459.414.112.845.161,1.259.27.076.02.106.2.158.309-.106.425-.9.541-1.572.208m2.082,17.36c-.024-.228.294-.492.456-.74l.568.859c-.169.327-.368.713-.568,1.1a4.983,4.983,0,0,1-.456-1.219m1.631,29.929c.073.073.017.276.017.421-.194.151-.487.471-.565.425-.589-.346-.186-.624.136-.851a.424.424,0,0,1,.413,0m-.393-7.77c.113.113.322.273.3.311a2,2,0,0,1-.446.576.293.293,0,0,1-.414-.414,3.575,3.575,0,0,1,.558-.473m-.053-26.345c.523.319.264.849.329,1.294-.064.445.194.974-.329,1.293a.349.349,0,0,1-.325,0,2.573,2.573,0,0,1,0-2.585.352.352,0,0,1,.325,0M228.827,62.6a1.057,1.057,0,0,1-1.61-.024.368.368,0,0,1,.022-.325,1.071,1.071,0,0,1,1.617.018c-.007.112.027.253-.029.33m.116-.795a3.058,3.058,0,0,1-.306-.656c-.017-.081.2-.214.306-.322a3.062,3.062,0,0,1,.306.656c.018.081-.2.214-.306.322m6.825-24.542c-.081.017-.214-.2-.322-.306l.631-.348.348.348a3.174,3.174,0,0,1-.657.306m11.151,14.309a.412.412,0,0,1-.41,0,.418.418,0,0,1,0-.411,3.583,3.583,0,0,1,.558-.473c.113.113.322.274.3.311a1.953,1.953,0,0,1-.445.576m7.347-1.966c-.313-.1-1.034.473-.89-.432.032-.2.407-.378.653-.516.115-.066.3-.011.449-.013.249.136.72.308.706.4a.67.67,0,0,1-.919.56m9.188,6.209a2.007,2.007,0,0,1-.578-.445.293.293,0,0,1,.415-.414,3.5,3.5,0,0,1,.471.557c-.113.113-.273.322-.309.3" transform="translate(43.142 -0.001)" fill="#313133"/>
      <path id="Path_21096" data-name="Path 21096" d="M247.1,154.555H242a1.645,1.645,0,0,1-.137,1.128.66.66,0,0,1-.327.3c-.449.171-.585.013-.459-.45.087-.32.14-.649.208-.972h-9.849v3.879h1.466c2.177-.046,2.461.285,2.461,2.887v18.031c0,2.6-.284,2.934-2.461,2.887h-1.466v3.881h7.116c-.108-.088-.228-.18-.215-.242a3.069,3.069,0,0,1,.306-.658l.348.348c-.1.179-.2.365-.3.551H247.1V182.24H245.54c-.039,0-.07,0-.108,0a.646.646,0,0,1,.028.333,3.387,3.387,0,0,1-.231,1.144c-.192.266-.5,1.1-.653,1.181s-.152.115-.346,0-.115-.115-.192-.343-.192-.152-.153-.725a3.691,3.691,0,0,1,.306-1.143l-.228-.6a1.654,1.654,0,0,1-.166-.063c-.088.09-.176.176-.256.256a3.036,3.036,0,0,1-.306-.658c-.007-.036.034-.083.09-.133a5.282,5.282,0,0,1-.242-1.924c-.035.07-.07.137-.1.206a4.959,4.959,0,0,1-.456-1.22c-.025-.227.292-.491.456-.739l.1.154V161.322c0-2.6.283-2.934,2.459-2.887H247.1V156.4c-.045-.024-.088-.049-.133-.071l.133-.133Zm-10.411,20.732-.631-.348c.109-.109.241-.325.322-.3a3,3,0,0,1,.657.3l-.348.348m.838-3.776a3.07,3.07,0,0,1-.306-.658c-.018-.08.2-.213.306-.322a3.072,3.072,0,0,1,.306.658c.017.081-.2.214-.306.322m-.008-.979a3.037,3.037,0,0,1-.306-.658c-.018-.08.2-.213.306-.322l.348.631c-.13.132-.239.239-.348.348m3.539-13.188c-.074.21-.358.346-.55.515a2.5,2.5,0,0,1-.383-.746,1.807,1.807,0,0,1,.18-.827.6.6,0,0,1,.323-.3c.449-.171.606-.007.453.449a2.815,2.815,0,0,1-.024.9m1.1,8.755c-.53-.143-.518-1.221-.027-1.586.076-.056.3-.064.316-.024.137.256.236.532.344.79.043.487-.083.967-.634.82" transform="translate(92.333 61.659)" fill="#313133"/>
      <path id="Path_21097" data-name="Path 21097" d="M272.248,195.988h-1.035V195.3h2.893v.691h-1v4.405h-.858Zm2.227-.691h.834l.94,3,.942-3h.832v5.1h-.785v-3.275l-.678,2.251h-.62l-.679-2.251v3.275h-.786Z" transform="translate(108.201 77.913)" fill="#dc7644"/>
      <path id="Path_21098" data-name="Path 21098" d="M26.7,184.263c.315-.172.368-1.014,1.017-.429.123.111.234.246.35.374v-8.654c.046-1.656.33-2.083,1.655-2.083H31v-3.833H16.186v3.833h2.082c1.893.048,2.083.238,2.083,2.415v2.556c0,1.656-.143,2.177-.711,2.98a4.686,4.686,0,0,1-3.739,1.705c-3.707,0-6.16-3.233-6.876-8.855-.067.151-.148.3-.224.449-.109-.108-.218-.217-.348-.348.113-.206.231-.417.348-.631.049.049.119.1.18.155a29.417,29.417,0,0,1-.179-3.264c0-8,2.7-12.589,7.384-12.589a5.829,5.829,0,0,1,5.11,3.03c.028.043.05.087.078.129l.01,0c.551-.148.677.333.634.818-.027.064-.057.13-.084.194a15.123,15.123,0,0,1,1.114,5.061h3.881V154.446H23.284L22.432,157c-3.218-2.413-5.064-3.124-8.141-3.124C6.057,153.878,0,161.024,0,170.679c0,7.047,2.994,12.525,7.781,15.079a1.164,1.164,0,0,1,.208-.084c.08-.017.213.2.322.306l-.052.029a13.067,13.067,0,0,0,1.391.574c.048-.039.094-.077.13-.113.036.067.071.13.108.2a14.127,14.127,0,0,0,4.356.67,10.8,10.8,0,0,0,6.119-1.617.845.845,0,0,1,.242-.151c.628-.39,1.287-.848,2.016-1.4l1.561,2.554h1.781c-.029-.888-.3-1.893.734-2.458m.662-5.615a9.974,9.974,0,0,1,.56.915c-.092.866-.519,1.167-1.311,1.013A1.22,1.22,0,0,1,26,180.09c.273-.5,1.031-.69.915-1.454.152,0,.39-.062.442.011m-.457-.027c-.073.073-.276.015-.421.015-.151-.193-.471-.485-.425-.564.346-.589.624-.186.851.136a.427.427,0,0,1,0,.413m-.616-5.719.631.348c-.109.109-.241.325-.322.306a3.005,3.005,0,0,1-.658-.306c.109-.109.218-.217.348-.348m-6.572-15.668.348.348a3.072,3.072,0,0,1-.658.306c-.08.018-.213-.2-.322-.306l.631-.348M8.633,156.3a3.108,3.108,0,0,1,.658.306c-.109.109-.217.218-.348.348l-.631-.348c.109-.108.242-.323.322-.306M4.58,169.508a.372.372,0,0,1-.024-.326,1.057,1.057,0,0,1,1.61-.022c.056.076.022.218.031.329a1.072,1.072,0,0,1-1.617.02m1.142,12.9-.348-.348a3.068,3.068,0,0,1,.658-.306c.081-.018.213.2.322.306l-.631.348M5.7,171.6c-.08.018-.213-.2-.322-.306a3.138,3.138,0,0,1,.658-.306c.081-.017.213.2.322.306a3.04,3.04,0,0,1-.658.306m.844,5.716c-.147-.551.333-.677.82-.634.26.108.536.208.79.344.041.021.032.242-.024.318-.365.49-1.444.5-1.586-.028m2.742,2.527c-.092.488-.348.872-.939.754a.912.912,0,0,1-1-1.2.814.814,0,0,1,.958-.767c.739.057,1.125.453.981,1.217m6.375,4.671a3.04,3.04,0,0,1-.306-.658c-.018-.08.2-.213.306-.322a3.071,3.071,0,0,1,.306.658c.018.081-.2.214-.306.322m1.959,1.959-.348-.631c.132-.13.239-.239.348-.348a3.072,3.072,0,0,1,.306.658c.018.081-.2.214-.306.322m2.77-5.08c-.08.018-.213-.2-.322-.306l.631-.348c.13.13.239.241.348.348a3.072,3.072,0,0,1-.658.306m3.106-9.609a3.06,3.06,0,0,1-.306-.656c-.018-.081.2-.214.306-.323.118.213.235.427.348.631l-.348.348m.838,3.776-.348-.348a3.072,3.072,0,0,1,.658-.306c.081-.017.213.2.322.306l-.631.348" transform="translate(0 61.389)" fill="#313133"/>
      <path id="Path_21099" data-name="Path 21099" d="M19.587,177.349a1.375,1.375,0,0,1,.337.362h.453v-1.251a2.135,2.135,0,0,0-.831.192c-.4.239-.367.424.041.7" transform="translate(7.685 70.398)" fill="#313133"/>
      <path id="Path_21100" data-name="Path 21100" d="M63.173,182.431c-.852,0-1.088-.616-1.184-3.029l-.1-3.314c-.236-4.022-1.182-5.252-4.874-6.246a10.862,10.862,0,0,0,4.4-2.082,6.633,6.633,0,0,0,2.25-4.11,4.121,4.121,0,0,1-.667-.118.522.522,0,0,1-.319-.33c-.015-.092.161-.284.285-.323.252-.081.534-.13.8-.2.006-.137.018-.271.018-.414a7.216,7.216,0,0,0-2.6-5.82c-1.7-1.325-4.165-1.894-8-1.894H35.63v3.881H37.1c.077,0,.133,0,.2,0,.069-.161.15-.319.231-.471.021-.041.245-.035.316.022a6.713,6.713,0,0,1,.6.536c.953.218,1.112.916,1.112,2.8v18.031c0,2.556-.283,2.934-2.461,2.886H35.63v3.881h6.795c-.143-.12-.29-.236-.434-.355.873-.939,1.781-.555,2.647-.431-.018-.241.032-.5,0-.74.063-.443-.194-.974.329-1.293a.352.352,0,0,1,.325,0,2.57,2.57,0,0,1,0,2.584.352.352,0,0,1-.325,0c-.052-.031-.066-.071-.1-.106-.1.113-.208.227-.315.339h6.935V182.24h-1.75c-2.178.048-2.462-.33-2.462-2.886v-7.9H51.01c2.65-.141,3.974,1.372,4.07,4.686l.048,3.17c.048,3.313.379,4.59,1.42,5.773a6.226,6.226,0,0,0,4.685,1.988,5.766,5.766,0,0,0,5.773-3.928,8.927,8.927,0,0,0,.435-2.208A4.283,4.283,0,0,1,65.9,182.11c-.1-.113-.3-.231-.3-.34.017-.441-.239-1.031.318-1.252a3.066,3.066,0,0,1,1.272-.038c.094.007.214.129.269.234.063-.831.1-1.9.116-3.49H64.545c-.048,4.4-.284,5.207-1.372,5.207m-24.519,1.813a3.07,3.07,0,0,1-.306-.658c-.018-.081.2-.214.306-.322L39,183.9l-.348.348m3.079-29.237.348.348a3.071,3.071,0,0,1-.658.306c-.08.018-.213-.2-.322-.306l.631-.348m-1.121,1.817c.164.248.327.494.491.743a6.986,6.986,0,0,1-.168.877c-.043.134-.211.227-.323.339a4.957,4.957,0,0,1-.456-1.22c-.025-.227.292-.491.456-.739m0,11.751a3.07,3.07,0,0,1-.306-.658c-.018-.081.2-.213.306-.322l.348.631c-.13.132-.239.239-.348.348m1.135,13.554c-.112-.008-.253.025-.329-.031a1.057,1.057,0,0,1,.022-1.61.364.364,0,0,1,.325.024,1.071,1.071,0,0,1-.018,1.617m3.11-.192c-.256.137-.53.236-.79.344-.487.043-.967-.083-.818-.634.141-.53,1.22-.519,1.585-.028.056.076.064.3.024.318m16.488-21.993c.08-.018.213.2.322.306l-.631.348c-.13-.132-.239-.239-.348-.348a3.006,3.006,0,0,1,.658-.306M60.2,162.7c.109.109.218.217.348.348l-.348.631c-.109-.109-.325-.242-.306-.322a3.039,3.039,0,0,1,.306-.658m-4.9-4.9c.109.109.325.241.306.322a3.068,3.068,0,0,1-.306.657c-.109-.109-.217-.218-.348-.348l.348-.631M55.767,167c-.074.211-.358.347-.55.516a2.5,2.5,0,0,1-.383-.747,1.385,1.385,0,0,1,.112-.627,2.867,2.867,0,0,1-.481.581c-.9.757-1.94.946-4.874.946H47.271v-9.229h2.508c3.267,0,3.835.1,4.733.995a4.746,4.746,0,0,1,1.231,3.549,6.2,6.2,0,0,1-.6,2.785.612.612,0,0,1,.192-.119c.449-.172.606-.008.453.448a2.8,2.8,0,0,1-.024.9m.053-1.819c.034-.2.428-.474.676-.494a10.342,10.342,0,0,1,1.823.069c.119.013.327.284.313.3-.151.21-.316.518-.522.557a8.115,8.115,0,0,1-1.424.025c-.238-.229-1.018.476-.866-.46m3.566,15.945a3.139,3.139,0,0,1-.658-.306l.348-.348.631.348c-.109.108-.241.325-.322.306m1.791-6.672a3.07,3.07,0,0,1-.306-.657c-.018-.081.2-.214.306-.322l.348.631-.348.348" transform="translate(14.215 61.659)" fill="#313133"/>
      <path id="Path_21101" data-name="Path 21101" d="M88.045,182.24H86.483v3.881h15.191V182.24h-1.041c-2.035.046-2.367-.284-3.36-3.171L89.7,154.555h-7.24L80.8,159.944l.166.165-.348.631c-.014-.014-.032-.028-.049-.043L75.085,178.55c.375.413,1.063.375,1.772.334-.224,1.224-1.391,1.684-2.065,2.546-.5.642-.736.159-.82-.2a2.813,2.813,0,0,1-2.208,1.01h-1.42v3.881H83.123V182.24h-1.8c-1.609,0-2.129-.284-2.129-1.231a5.779,5.779,0,0,1,.283-1.609l1.088-3.408h8.661l1.041,3.265a6.206,6.206,0,0,1,.332,1.563c0,1.136-.52,1.42-2.556,1.42m10.2,2,.348.348-.348.631c-.109-.108-.325-.241-.306-.322a3.1,3.1,0,0,1,.306-.658M86.5,161.719l.348.632c-.13.13-.239.238-.348.348a3.082,3.082,0,0,1-.306-.659c-.018-.08.2-.213.306-.322m-8.681,16.442a1.225,1.225,0,0,1-.5.7c-.431.229-.516.029-.48-.451.071-.934-.01-1.882.048-2.817.011-.193.346-.376.554-.533.018-.013.294.2.306.318.066.611.084,1.23.092,1.375a6.665,6.665,0,0,1-.02,1.406m1.663-3.38a.372.372,0,0,1-.326.024,1.057,1.057,0,0,1-.022-1.61c.076-.056.218-.022.329-.031a1.071,1.071,0,0,1,.02,1.617m.652-4.737c.248-.165.5-.327.743-.491l1.216.491a4.955,4.955,0,0,1-1.22.455c-.227.025-.491-.292-.739-.455m1.619,2.02,3.124-10.175,2.226,7.143a.81.81,0,0,1,.2-.273c.076-.056.217-.022.329-.031a1.071,1.071,0,0,1,.018,1.617.279.279,0,0,1-.129.041l.523,1.677ZM94.268,177.4a3.564,3.564,0,0,1,.473.557c-.113.113-.274.322-.311.3a1.935,1.935,0,0,1-.576-.445.293.293,0,0,1,.414-.414m-1.312-1.561c.041-.129.276-.326.3-.309.211.14.522.3.558.5a5.914,5.914,0,0,1,.007,1.363.884.884,0,0,1-.42-.008,1.176,1.176,0,0,1-.446-1.54m-.081,8.956a3.493,3.493,0,0,1,.557-.471c.113.113.322.273.3.309a1.958,1.958,0,0,1-.445.576.293.293,0,0,1-.414-.414m-.442.438a.43.43,0,0,1,.414.006c.073.073.015.276.015.421-.193.151-.485.47-.564.424-.589-.344-.187-.624.134-.851m-1.207-21.37a3.066,3.066,0,0,1,.658.305c-.109.109-.217.218-.348.348l-.631-.348c.109-.108.242-.323.322-.305m-.644,7.466a3.07,3.07,0,0,1-.658-.306c.109-.108.218-.217.348-.348l.631.348c-.109.109-.242.325-.322.306" transform="translate(28.064 61.659)" fill="#313133"/>
      <path id="Path_21102" data-name="Path 21102" d="M138.121,158.436v-3.881h-3.545c0,.081-.2.206-.3.311-.057-.1-.115-.206-.171-.311h-1.384a1.528,1.528,0,0,1-.067,1.329.654.654,0,0,1-.329.294c-.448.173-.585.014-.459-.449.1-.386.157-.785.252-1.174h-1.448a.886.886,0,0,1-.8.311,1.328,1.328,0,0,1,.034-.311h-4.983v3.881h1.8c2.272-.046,2.556.332,2.556,2.887v15.759l-11.5-22.527H105.23v3.881h1.325c2.224-.046,2.508.332,2.508,2.887v13.118c.165,0,.33,0,.494-.01.944-.063.348.628.452.95a.751.751,0,0,1-.658.995c-.1.017-.193.027-.288.036v2.942c0,2.556-.284,2.934-2.508,2.886H105.23v3.881h13.346V182.24h-1.8c-2.272.048-2.556-.33-2.556-2.886V161.418l12.542,24.7h4.66c.173-.2.378-.385.569-.575.109-.106.221-.21.332-.313.161.246.431.481.46.743.007.057,0,.094,0,.145h1.645V170.516c-.312,0-.624-.007-.934-.015-.118,0-.344-.235-.325-.306.066-.232.2-.613.346-.63a8.26,8.26,0,0,1,.914-.038v-.982a3.412,3.412,0,0,1-.361-1.006c-.021-.19.193-.4.361-.614v-5.6c0-2.556.283-2.934,2.508-2.887Zm-32.246-1.612c-.109-.109-.325-.241-.306-.322a3.039,3.039,0,0,1,.306-.658l.348.348-.348.631m5.064,9.976c.08-.018.213.2.322.306l-.631.348c-.13-.132-.239-.239-.348-.348a3.073,3.073,0,0,1,.657-.306m-.532,10.7a3.072,3.072,0,0,1-.306-.658c-.018-.081.2-.213.306-.322a3.038,3.038,0,0,1,.306.658c.018.08-.2.213-.306.322m1.511-7.144a3.071,3.071,0,0,1-.658-.306l.348-.348.631.348c-.109.109-.242.325-.322.306m14.521,6.059a3.072,3.072,0,0,1-.306-.658c-.018-.08.2-.213.306-.322l.348.631c-.131.13-.239.239-.348.348m.979,7.13a3.1,3.1,0,0,1-.306-.658c-.018-.081.2-.214.306-.322l.348.631-.348.348m2.448-28.238c-.193.151-.485.471-.564.425-.59-.344-.187-.624.134-.852a.43.43,0,0,1,.414.006c.073.073.015.276.015.421" transform="translate(41.982 61.659)" fill="#313133"/>
      <path id="Path_21103" data-name="Path 21103" d="M144.706,185.318c.546-.146.674.323.635.8h11.92c5.775,0,9.134-.993,11.879-3.454,3.076-2.7,4.591-6.862,4.591-12.353s-1.515-9.653-4.591-12.351c-2.745-2.461-6.1-3.408-11.879-3.408h-11.05c-.083.151-.166.3-.252.456-.109-.109-.323-.242-.306-.322a1.221,1.221,0,0,1,.053-.134h-1.95l.024.017c-.248.162-.512.48-.739.456a2.752,2.752,0,0,1-.828-.281v3.643h1.413a1.166,1.166,0,0,1,.3-1.227c.076-.056.3-.064.318-.024.136.256.236.53.344.79a1.384,1.384,0,0,1-.045.49c1.286.123,1.5.743,1.5,2.9v10.194c.108.108.214.215.344.344l-.344.623v6.823c0,2.6-.284,2.981-2.413,2.934h-1.42v3.881h2.105c-.024-.368.1-.726.388-.8m24.756-14.784.348.631-.348.348a3.068,3.068,0,0,1-.306-.658c-.017-.08.2-.213.306-.322m-25.177-14.965-.348-.631c.13-.131.239-.239.348-.348a3.107,3.107,0,0,1,.306.658c.017.081-.2.213-.306.322m23.721,12.579a3.5,3.5,0,0,1,.557-.473c.113.113.322.274.3.309a1.941,1.941,0,0,1-.445.578.293.293,0,0,1-.414-.414m-.442.438a.426.426,0,0,1,.414,0c.073.073.015.276.015.421-.193.151-.485.471-.564.425-.589-.346-.187-.624.134-.851m-1.5,8.364c.017-.151.388-.3.62-.369.07-.022.3.193.315.319a6.376,6.376,0,0,1,.015.954,2.862,2.862,0,0,1-.027.944c-.069.183-.39.3-.621.375-.07.022-.311-.2-.316-.318a12.028,12.028,0,0,1,.014-1.905M164.4,182.1c-.08.017-.213-.2-.322-.306l.631-.348c.132.13.239.239.348.348a3.041,3.041,0,0,1-.657.306m-1.791-26.257c.109.109.218.217.348.348l-.348.631c-.109-.109-.323-.241-.306-.322a3.035,3.035,0,0,1,.306-.658m.141,2.1c.131.13.239.239.348.348a2.973,2.973,0,0,1-.658.3c-.08.02-.213-.2-.322-.3l.631-.348m-8.988.491h3.408c2.934,0,5.11,1.042,6.151,3.029,1.042,1.94,1.61,5.017,1.61,8.85,0,3.787-.557,6.876-1.574,8.776a.784.784,0,0,1,.169.36c.1.845-.185,1.161-.94,1.206l-.346-.13a7.459,7.459,0,0,1-5.071,1.669H153.76Zm-4.292,19.76a5.019,5.019,0,0,1,.456,1.22c.025.227-.292.492-.456.74-.164-.249-.481-.513-.456-.74a4.905,4.905,0,0,1,.456-1.22m-2.087-1.939c.01-.119.207-.222.354-.371.431.45.884.881,1.269,1.368.055.07-.217.576-.358.586-.432.031-1.03.257-1.245-.311a3.061,3.061,0,0,1-.02-1.273m-.442-10.619c.109.109.218.217.348.348l-.348.631c-.109-.109-.323-.241-.306-.322a3.042,3.042,0,0,1,.306-.658m-.569,18.9.348.631-.348.348a3.072,3.072,0,0,1-.306-.658c-.018-.081.2-.213.306-.322" transform="translate(56.736 61.659)" fill="#313133"/>
      <path id="Path_21104" data-name="Path 21104" d="M200.261,167.05h3.5c.379-6.673,1.988-8.615,7.193-8.615h5.112L207.4,170.742c.041-.022.081-.046.122-.067.13.13.239.239.347.348a3.061,3.061,0,0,1-.656.306c-.041.008-.1-.041-.151-.106l-7.7,10.923v3.974h24.847V172.588h-3.787c-.039.79-.092,1.5-.155,2.175.111.057.22.122.332.178-.109.109-.218.217-.348.348l-.032-.017c-.6,5.427-2.28,6.851-7.226,7.016H207.6l16.611-23.378v-4.355H200.261Zm18.866,16.214.348.631-.348.348a3.063,3.063,0,0,1-.3-.658c-.018-.081.2-.213.3-.322m-2.77,2.142c.081-.018.214.2.322.306a3.06,3.06,0,0,1-.656.306c-.081.018-.214-.2-.323-.306a3.105,3.105,0,0,1,.658-.306m-14.9-2.16a1.274,1.274,0,0,1-.923,0c-.527-.27-.408-.639,0-.979.241-.2.444-.443.67-.659a4.067,4.067,0,0,1,.332-.262,1.754,1.754,0,0,1,.326.336,1.133,1.133,0,0,1-.408,1.568m3.8-1.144c-.081.018-.214-.2-.323-.306l.631-.348c.131.13.241.239.348.348a3.063,3.063,0,0,1-.656.306m1.637-8.194c-.194.151-.487.471-.565.425-.589-.344-.186-.624.136-.851a.424.424,0,0,1,.413,0c.073.073.015.276.017.421m.425-.449a.293.293,0,0,1-.414-.414,3.511,3.511,0,0,1,.558-.473c.113.113.32.274.3.311a1.953,1.953,0,0,1-.445.576m11.673-10.618.631.348c-.108.109-.241.325-.322.306a3.1,3.1,0,0,1-.658-.306c.109-.109.218-.217.348-.348m-4.755-6.017c.109.109.325.241.306.322a3.008,3.008,0,0,1-.306.658l-.347-.348c.113-.206.229-.418.347-.631m-11.925,1.165c.076-.057.3-.064.318-.024.136.256.236.53.344.79.043.487-.084.967-.635.818-.529-.141-.518-1.22-.027-1.585" transform="translate(79.536 61.659)" fill="#313133"/>
      <path id="Path_21105" data-name="Path 21105" d="M286.549,163.793l-.631-.348c.109-.108.241-.323.322-.305a2.115,2.115,0,0,1,.534.239,14.458,14.458,0,0,0-6.376-7.455c-.294.52-.374,1.157-.674,1.673-.032.055-.238.068-.319.024-.133-.074-.32-.21-.326-.327a6.881,6.881,0,0,1,.02-1.89.679.679,0,0,1,.05-.1,16.79,16.79,0,0,0-6.845-1.391c-9.418,0-15.759,6.721-15.759,16.659,0,9.891,6.341,16.706,15.523,16.706,9.7,0,16-6.579,16-16.754a19.519,19.519,0,0,0-1.232-7.012c-.088.09-.176.176-.281.281m-28.673,2.918c-.021.041-.241.032-.316-.024-.491-.365-.5-1.444.027-1.586.551-.147.677.333.634.818-.108.26-.207.536-.344.792m18.739-10.885.348.631c-.132.13-.239.239-.348.348a3.068,3.068,0,0,1-.306-.658c-.018-.081.2-.213.306-.322m-2.938.274c.109.111.217.218.348.348l-.348.632c-.109-.109-.325-.242-.306-.322a3.08,3.08,0,0,1,.306-.659m-5.876-.978.348.631-.348.347a3.057,3.057,0,0,1-.306-.656c-.018-.081.2-.214.306-.322m-4.085,27.932c-.081.018-.213-.2-.322-.306a3.033,3.033,0,0,1,.657-.3c.08-.02.213.2.322.3a3.07,3.07,0,0,1-.658.306m0-11.469c-.081.018-.213-.2-.322-.3a2.972,2.972,0,0,1,.657-.306c.08-.018.213.2.322.306a3,3,0,0,1-.658.3m2.461,9.642a1.071,1.071,0,0,1-1.617.02.364.364,0,0,1-.024-.325,1.057,1.057,0,0,1,1.61-.024c.056.076.022.218.031.329m12.4-.645c-.109-.108-.218-.217-.348-.348l.348-.63c.109.108.325.241.306.322a3.062,3.062,0,0,1-.306.656m-6.27,2.531c-4.354,0-6.957-4.638-6.957-12.446,0-4.071.52-6.721,1.7-9.039,1.231-2.367,3.076-3.6,5.348-3.6a6.023,6.023,0,0,1,5.158,3.6c1.184,2.177,1.7,4.968,1.7,8.991,0,7.857-2.556,12.494-6.957,12.494" transform="translate(102.349 61.402)" fill="#313133"/>
      <path id="Path_21106" data-name="Path 21106" d="M312.605,158.436h1.8c2.272-.046,2.556.332,2.556,2.887v15.759l-11.5-22.527H292.918v3.881h1.325a4.419,4.419,0,0,1,1.63.172.811.811,0,0,1,.354-.642.364.364,0,0,1,.325.024,1.073,1.073,0,0,1,.055,1.533,7.741,7.741,0,0,1,.146,1.8v16.294l.055-.1c.109.109.325.241.306.322a3.1,3.1,0,0,1-.306.658c-.017-.018-.036-.038-.055-.055v.911c0,2.556-.284,2.934-2.508,2.886h-1.325v3.881h13.346V182.24h-1.8c-2.272.048-2.555-.33-2.555-2.886V161.418l12.54,24.7h7.668V176.4c-.091,0-.176.006-.28.007a6.249,6.249,0,0,1-.944-.013c-.126-.018-.231-.193-.523-.457.571-.589,1.15-1.171,1.747-1.735v-4.929l-.28.28a3.072,3.072,0,0,1-.306-.658c-.018-.081.2-.214.306-.322.094.171.187.339.28.506v-7.759c0-2.556.283-2.934,2.507-2.887h1.183v-3.881h-13.2Zm-9.373,24.27a3.044,3.044,0,0,1,.306.658c.018.08-.2.213-.306.322a3.106,3.106,0,0,1-.306-.658c-.018-.081.2-.213.306-.322m-5.3-.432-.632-.348c.109-.109.242-.325.322-.306a3.041,3.041,0,0,1,.658.306l-.347.348m2.8-.838c-.108-.109-.323-.242-.306-.322a3.151,3.151,0,0,1,.306-.659c.109.111.218.218.348.35-.113.2-.231.417-.348.631m6.427-15.8-.348-.348.348-.631c.109.109.325.241.306.322a3.078,3.078,0,0,1-.306.658m3.917,2.938a3.07,3.07,0,0,1-.306-.658c-.018-.081.2-.213.306-.322l.348.631c-.132.13-.239.239-.348.348m1.959,13.006a3.052,3.052,0,0,1-.306-.659c-.018-.08.2-.211.306-.322l.348.632-.348.348m1.032-8.11c-.151-.193-.471-.485-.425-.565.344-.588.624-.186.851.136a.43.43,0,0,1,0,.414c-.073.071-.276.015-.421.015m1.025.872a1.983,1.983,0,0,1-.576-.445.293.293,0,0,1,.414-.414,3.5,3.5,0,0,1,.473.557c-.113.113-.274.322-.311.3m6.756-17.519.348.631c-.132.13-.239.239-.348.348a3.072,3.072,0,0,1-.306-.658c-.018-.081.2-.213.306-.322m-2.938-1.959.348.631-.348.348a3.076,3.076,0,0,1-.306-.658c-.018-.081.2-.213.306-.322" transform="translate(116.861 61.659)" fill="#313133"/>
      <path id="Path_21107" data-name="Path 21107" d="M58.027,211.9c-.108-.111-.217-.218-.347-.348.108-.2.218-.4.33-.6L54.588,195.3h-2.4l-1.953,8.937.014-.013c.118.214.235.427.348.631l-.348.35c-.05-.1-.108-.2-.159-.3l-2.077,9.506h2.729l.9-4.1h3.495l.9,4.1h2.731l-.6-2.757c-.045.083-.092.166-.136.252m-5.807-14.23c.109.109.217.218.348.348l-.348.631c-.109-.109-.325-.242-.306-.322a3.072,3.072,0,0,1,.306-.658m2.587,10.21H51.912l1.42-7.262,1.165,5.737c.059-.108.116-.213.176-.32.109.109.323.242.306.323a3.061,3.061,0,0,1-.306.656c-.017-.015-.036-.036-.053-.053Z" transform="translate(19.153 77.913)" fill="#dc7644"/>
      <path id="Path_21108" data-name="Path 21108" d="M64.011,197.891H67.4v15.426a1.237,1.237,0,0,1,.252-.1c.08-.017.213.2.322.306a4.2,4.2,0,0,1-.574.273v.611h2.731V203.257a1.779,1.779,0,0,1-.445-.361.293.293,0,0,1,.414-.414c.011.008.02.022.031.032v-4.624h3.385V195.3h-9.5Zm1.648-1.641a3.04,3.04,0,0,1,.306.657c.018.08-.2.213-.306.322l-.348-.631c.13-.132.239-.239.348-.348" transform="translate(25.537 77.913)" fill="#dc7644"/>
      <path id="Path_21109" data-name="Path 21109" d="M93.695,197.891h3.387v15.137c.1-.007.22.007.327.007.248.134.72.306.705.4a.671.671,0,0,1-.919.56.37.37,0,0,0-.113-.008v.422h2.731v-9.046a.29.29,0,0,1-.4-.417,2.136,2.136,0,0,1,.4-.355v-6.7H103.2V195.3h-9.5Zm7.968-2.483c.109.109.218.217.348.348l-.348.631c-.109-.109-.325-.241-.306-.322a3.04,3.04,0,0,1,.306-.657m-2.8,15.81c.13.131.239.239.348.348a3.069,3.069,0,0,1-.658.306c-.08.017-.213-.2-.322-.306l.631-.348" transform="translate(37.38 77.913)" fill="#dc7644"/>
      <path id="Path_21110" data-name="Path 21110" d="M118.653,205.017a3.51,3.51,0,0,0,.779-.86,4.1,4.1,0,0,0,.505-1.146,5.415,5.415,0,0,0,.178-1.434v-1.365a7.033,7.033,0,0,0-.22-1.856,4.321,4.321,0,0,0-.6-1.337,3.248,3.248,0,0,0-.887-.874,4.9,4.9,0,0,0-1.052-.518,5.287,5.287,0,0,0-1.119-.26,9.429,9.429,0,0,0-1.093-.069h-4.313v19.112h2.731v-8.245h1.61l2.648,8.245h2.84l-3-8.819a3.991,3.991,0,0,0,1-.574m-.361-2.157a3.072,3.072,0,0,1,.658.306c-.109.108-.218.217-.348.348l-.631-.348c.109-.109.242-.325.322-.306m-6.649,6.074a3,3,0,0,1-.658-.306c.109-.108.218-.217.348-.348l.631.348c-.109.109-.241.325-.322.306m5.741-7.3a2.029,2.029,0,0,1-.2.941,1.933,1.933,0,0,1-.519.642,2.189,2.189,0,0,1-.725.369,2.851,2.851,0,0,1-.818.122h-1.556v-5.951h1.8a2.5,2.5,0,0,1,.737.109,1.626,1.626,0,0,1,.642.382,2.044,2.044,0,0,1,.463.7,2.715,2.715,0,0,1,.178,1.051Z" transform="translate(44.216 77.913)" fill="#dc7644"/>
      <path id="Path_21111" data-name="Path 21111" d="M131.027,205.972h4.751v-2.457h-3.565a.085.085,0,0,1,.018.049,3.072,3.072,0,0,1-.306.657c-.109-.109-.218-.217-.348-.348l.2-.358h-.747v-5.625h5.379V195.3H128.3v19.112h8.191v-2.594h-5.462Zm2.85-10a.423.423,0,0,1,.413.006c.073.073.017.276.017.421-.193.15-.485.47-.565.424-.589-.344-.186-.624.136-.851m-3.769,10.394-.631-.348c.109-.109.242-.323.322-.306a3.042,3.042,0,0,1,.657.306c-.109.109-.217.218-.348.348" transform="translate(51.185 77.913)" fill="#dc7644"/>
      <path id="Path_21112" data-name="Path 21112" d="M147.518,205.972h4.751v-2.458h-4.751v-5.624H152.9V195.3h-2.682a1.9,1.9,0,0,1,.071.348c.007.242-.3.494-.459.741a2.508,2.508,0,0,1-.47-.747,1.433,1.433,0,0,1-.031-.343h-4.538v12.985l.143-.144a3.073,3.073,0,0,1,.306.658c.018.081-.2.214-.306.322-.049-.087-.1-.172-.143-.259v5.55h8.191v-2.594h-5.461Zm-.908-3.718c-.109-.109-.325-.241-.306-.322a3.069,3.069,0,0,1,.306-.658l.348.348-.348.631" transform="translate(57.764 77.913)" fill="#dc7644"/>
      <path id="Path_21113" data-name="Path 21113" d="M169.806,210.537c.109-.109.241-.323.322-.306a1.415,1.415,0,0,1,.344.137,9.89,9.89,0,0,0,.071-1.1v-.656a10.455,10.455,0,0,0-.137-1.719,3.763,3.763,0,0,0-.683-1.584,3.588,3.588,0,0,0-1.2-1.079,9.817,9.817,0,0,0-1.283-.56l-1.666-.6c-.2-.091-.424-.2-.669-.315a1.373,1.373,0,0,1-.588-.532,2.2,2.2,0,0,1-.355-1,7.859,7.859,0,0,1-.081-1,5.739,5.739,0,0,1,.1-1,1.824,1.824,0,0,1,.478-.941,1.531,1.531,0,0,1,.683-.423,2.507,2.507,0,0,1,.655-.1,1.77,1.77,0,0,1,.929.2,2.37,2.37,0,0,1,.519.424,1.852,1.852,0,0,1,.395.929,6.523,6.523,0,0,1,.069.818v.519h2.731v-.628a6.245,6.245,0,0,0-.329-2.117,4.594,4.594,0,0,0-.322-.684c-.017.024-.041.036-.059.062s-.583-.21-.592-.344c-.013-.2-.063-.443-.066-.669a3.988,3.988,0,0,0-1.323-.862,5.072,5.072,0,0,0-1.869-.327,5.97,5.97,0,0,0-1.789.259,3.818,3.818,0,0,0-1.515.915,4.725,4.725,0,0,0-1.01,1.461,4.95,4.95,0,0,0-.41,2.089v.546q0,.711.055,1.42a3.959,3.959,0,0,0,.355,1.365,3.059,3.059,0,0,0,1.093,1.406,6.923,6.923,0,0,0,1.419.723l1.993.709q.218.084.628.274a1.728,1.728,0,0,1,.683.574,2.108,2.108,0,0,1,.355.927,7.027,7.027,0,0,1,.081,1.038v.711a7.531,7.531,0,0,1-.069.968,1.817,1.817,0,0,1-.368.915,1.924,1.924,0,0,1-.546.45,2.315,2.315,0,0,1-1.175.232,3.52,3.52,0,0,1-.709-.1,1.426,1.426,0,0,1-.792-.533,1.777,1.777,0,0,1-.368-.874c-.013-.091-.02-.168-.029-.25a1.136,1.136,0,0,1-.22.087c-.08.018-.213-.2-.322-.306l.505-.278c0-.022,0-.05,0-.07v-.519h-2.731v.628c0,.055,0,.2.014.436a5.845,5.845,0,0,0,.1.82,6.78,6.78,0,0,0,.259,1,3.368,3.368,0,0,0,.505.969,3.976,3.976,0,0,0,1.406,1.16,5.082,5.082,0,0,0,2.416.506,5.716,5.716,0,0,0,2.1-.355,4.183,4.183,0,0,0,1.447-.9,4.455,4.455,0,0,0,.955-1.693,6.685,6.685,0,0,0,.215-.944l-.6-.33m-6.017,3.413-.348-.348a3.068,3.068,0,0,1,.658-.306c.08-.017.213.2.322.306l-.631.348" transform="translate(64.226 77.835)" fill="#dc7644"/>
      <path id="Path_21114" data-name="Path 21114" d="M201.808,214.409l-3-8.819a3.99,3.99,0,0,0,1-.574,3.51,3.51,0,0,0,.779-.86,4.1,4.1,0,0,0,.505-1.146,5.415,5.415,0,0,0,.178-1.434v-1.365a7.033,7.033,0,0,0-.22-1.856,4.319,4.319,0,0,0-.6-1.337,3.249,3.249,0,0,0-.887-.874,4.9,4.9,0,0,0-1.052-.518,5.288,5.288,0,0,0-1.119-.26,9.429,9.429,0,0,0-1.093-.069h-4.313v19.112h2.731v-8.245h1.61l1.035,3.223c.025-.024.035-.063.063-.084.076-.056.218-.022.329-.031a1.063,1.063,0,0,1,.07,1.55l1.151,3.587Zm-2.258-18.023c.109.109.325.242.306.322a3.082,3.082,0,0,1-.306.659c-.109-.109-.217-.218-.348-.348l.348-.632m-.168,2.143a3.032,3.032,0,0,1,.658.3c-.109.109-.217.218-.348.348l-.631-.348c.109-.108.242-.323.322-.3m-6.687,9.608a3.06,3.06,0,0,1-.306-.656c-.017-.081.2-.214.306-.322a3.064,3.064,0,0,1,.306.656c.018.081-.2.214-.306.322m3-12.481a.43.43,0,0,1,.414.006c.073.073.015.276.015.421-.193.151-.485.471-.564.425-.589-.346-.187-.624.134-.852m2.838,5.975a2.028,2.028,0,0,1-.2.941,1.933,1.933,0,0,1-.519.642,2.189,2.189,0,0,1-.725.369,2.851,2.851,0,0,1-.818.122H194.71v-5.951h1.8a2.5,2.5,0,0,1,.737.109,1.626,1.626,0,0,1,.642.382,2.044,2.044,0,0,1,.463.7,2.715,2.715,0,0,1,.178,1.051Z" transform="translate(76.591 77.913)" fill="#dc7644"/>
      <path id="Path_21115" data-name="Path 21115" d="M216.125,202.579a4.872,4.872,0,0,1-.456-1.218c-.022-.194.2-.416.372-.631l-1.186-5.432h-2.4l-2.7,12.378c.388,0,.5.4.46.82a8.51,8.51,0,0,1-.346.79c-.021.041-.241.032-.316-.024a.709.709,0,0,1-.119-.123l-1.153,5.271H211l.9-4.1H215.4l.9,4.1h2.731l-2.682-12.267-.225.436m-3.509-5.212.348.631-.348.348a3.039,3.039,0,0,1-.306-.658c-.018-.08.2-.213.306-.322m-.438,10.517,1.42-7.262,1.475,7.262Z" transform="translate(83.092 77.913)" fill="#dc7644"/>
      <path id="Path_21116" data-name="Path 21116" d="M236.01,202.4c-.53-.141-.519-1.221-.028-1.586a.341.341,0,0,1,.151-.039v-3.946a5.5,5.5,0,0,1-.257.534l-.348-.348.348-.631c.073.074.192.157.257.228V195.3H233.4v12.013L228.843,195.3h-2.731v9.036a.8.8,0,0,1,.274.2c.056.074.022.217.031.329a.711.711,0,0,1-.3.263v9.279h2.731V202.4l4.559,12.013h2.731v-12a.611.611,0,0,1-.123,0m-7.479,8.129c-.193.151-.487.471-.565.425-.589-.346-.186-.624.136-.851a.427.427,0,0,1,.413,0c.073.074.017.276.017.421m5.523-6.312c-.109-.109-.218-.217-.348-.348l.348-.631c.109.109.325.242.306.322a3.07,3.07,0,0,1-.306.658" transform="translate(90.208 77.914)" fill="#dc7644"/>
      <path id="Path_21117" data-name="Path 21117" d="M250.73,209.872a3.134,3.134,0,0,1-.138,1.066,2.061,2.061,0,0,1-.243.491,1.49,1.49,0,0,1-.658.491,2.322,2.322,0,0,1-.872.164,1.6,1.6,0,0,1-.916-.232,1.623,1.623,0,0,1-.477-.45,1.605,1.605,0,0,1-.313-.806,8.549,8.549,0,0,1-.042-.887v-9.419a7.474,7.474,0,0,1,.067-.982,1.829,1.829,0,0,1,.4-.9,2.186,2.186,0,0,1,.546-.438,1.731,1.731,0,0,1,.874-.19,1.5,1.5,0,0,1,.982.273,3.474,3.474,0,0,1,.438.41,1.806,1.806,0,0,1,.271.614,2.765,2.765,0,0,1,.084.641v1.093h2.648V199.5a4.555,4.555,0,0,0-.357-1.828,4.267,4.267,0,0,0-.872-1.339,4.2,4.2,0,0,0-1.53-.915,5.077,5.077,0,0,0-3.4-.041,3.961,3.961,0,0,0-1.49.846,3.732,3.732,0,0,0-.736.86,4.018,4.018,0,0,0-.422.941,4.523,4.523,0,0,0-.192.983q-.042.491-.042.955v9.91c0,.238.006.5.014.778a6.036,6.036,0,0,0,.1.874,3.718,3.718,0,0,0,.287.9,4.061,4.061,0,0,0,.558.887,4.606,4.606,0,0,0,.914.74c-.112-.2-.221-.4-.329-.59l.35-.35a3.069,3.069,0,0,1,.306.658c.015.078-.178.2-.291.308.113.073.21.148.334.218a4.353,4.353,0,0,0,2.156.464,5.361,5.361,0,0,0,2.282-.41,4.355,4.355,0,0,0,1.3-.874,4.207,4.207,0,0,0,.762-1.228,5.561,5.561,0,0,0,.383-2.266v-.79H250.73Zm.7-13.507c.078-.018.211.2.32.306a3.012,3.012,0,0,1-.658.306c-.081.018-.211-.2-.322-.306a3.018,3.018,0,0,1,.659-.306m-2.755,17.185c-.193.15-.485.47-.564.424-.589-.344-.187-.624.136-.851a.427.427,0,0,1,.413.006c.073.073.015.276.015.421m3.455-1.385-.743.49-1.214-.49a4.948,4.948,0,0,1,1.218-.456c.228-.025.491.292.739.456" transform="translate(97.48 77.835)" fill="#dc7644"/>
      <path id="Path_21118" data-name="Path 21118" d="M270.476,196.984c-.018-.08.2-.213.306-.322.017.034.036.067.055.1V195.3h-2.731v8.217H264.42V195.3h-2.729v11.6c.679.062.8.6.73,1.188a.749.749,0,0,1-.73.743v5.582h2.729v-8.436h3.686v8.436h2.731V197.593c-.02.017-.039.034-.055.049a3.006,3.006,0,0,1-.306-.658M262.5,214.014a3,3,0,0,1-.306-.658c-.018-.08.2-.213.306-.322a3.061,3.061,0,0,1,.3.658c.018.081-.2.213-.3.322m.165-10.913-.348-.348a3.074,3.074,0,0,1,.658-.306c.081-.018.213.2.322.306l-.631.348m6.185,6.813a3.071,3.071,0,0,1-.657-.306l.348-.348.631.348c-.109.109-.241.325-.322.306" transform="translate(104.402 77.913)" fill="#dc7644"/>
      <path id="Path_21119" data-name="Path 21119" d="M265.227,58.287c.185-.872.732-3.139,1.093-4.186s-1.025-2.458-1.185-3.858a6.009,6.009,0,0,0-2.059-3.868c-1.042-.709-5.21-3.563-6.073-4.621s-4.163-3.378-5.028-4.263-5.743-2.68-7.144-2.52-6.3.285-7.69-.253-2.6-2.824-3.64-3.184-1.89-3.342-2.059-3.868-2.062-3.517-2.577-4.572a11.232,11.232,0,0,1-.947-5.08c.241-1.4-1.6-2.29-2.981-4.053s-4.337-3.541-5.545-4.951a8.964,8.964,0,0,0-2.4-1.6c0,.228.013.456.013.683a6.356,6.356,0,0,1-.015.953c-.02.127-.246.343-.316.319-.231-.073-.569-.194-.624-.372-.218-.7.28-1.508-.3-2.2-.764-.36-1.542-.7-2.237-1a1.325,1.325,0,0,1-.159.171.415.415,0,0,1-.41,0,.416.416,0,0,1,0-.408c-.69-.29-1.249-.518-1.546-.649-1.218-.537-4.7-2.321-5.4-2.328a75.715,75.715,0,0,1-9.6-2.2c-1.915-.718-6.466-.239-7.168-.071-.294.07-1.209.1-2.325.183a2.19,2.19,0,0,1,.246.543c.017.081-.2.214-.306.323A3.07,3.07,0,0,1,186.536.7c-.011-.05.07-.122.158-.194a16.658,16.658,0,0,0-4.47.781c-2.107.853-4.891-.574-6.818-.069s-7,.628-8.052.793-4.759,3.8-5.3,5.017a4.845,4.845,0,0,1-2.472,2.437c-1.231.7-.364,1.381-1.252,2.771s-3.518,2.062-4.222,2.58-1.779,2.955-2.84,4.167a5.873,5.873,0,0,0-1.346,2.506,37.025,37.025,0,0,1-2.075,3.756c-.382.621-.332,1.192-.653,1.656.039.048.078.1.115.132a4.8,4.8,0,0,1-.555.266,1.624,1.624,0,0,1-.171.1c-1.055.515-1.963,3.828-2.672,4.87-.522.764-.582,1.732-.732,3.774a2.131,2.131,0,0,1,1.094.266c.19.122.228.555.249.849.041.569-.466.909-.747.522a1.593,1.593,0,0,0-.678-.558c-.038.488-.083,1.011-.14,1.607-.39,4.018-.02,1.924-.05,4.895a12.311,12.311,0,0,0,1.511,6.309,5.763,5.763,0,0,1,.842,3.156,26.563,26.563,0,0,0,1.523,4.912,5.184,5.184,0,0,0,3.467,1.056c.776-.084,2.318-2.4,2.154-3.622s.537-1.218.9-2.788a45.642,45.642,0,0,1,1.465-6.63c.716-1.943.874-3.006,1.357-4.148,0-.372-.007-.744-.007-1.116a17.2,17.2,0,0,1,.028-1.9c.017-.151.32-.291.546-.385a6.776,6.776,0,0,1-.049-3.388c.723-2.382,1.775-2.665,2.49-4.232s4.66-5.972,6.961-8.746,4.41-3.8,6.171-5.008,1.771-2.255,2.475-2.6a45.657,45.657,0,0,0,5.624-2.915c1.41-1.035,3.334-1.016,4.563-1.672s3.665.705,5.593.2,6.115.585,7.16.946,3.963,2.48,6.41,2.5,8.517,5.157,9.207,6.038,6.795,5.848,7.308,6.9,2.242,3,2.585,3.7,1.323,1.557,1.662,2.609-1.591,1.732-1.761,1.206-3.583-2.8-4.451-3.337-2.906-5.586-4.295-6.473S209.7,20.431,209,19.9s-3.524-1.063-5.264-1.954-11.161-2.911-14.129-3.29-7.528.8-9.98,1.3-2.29,1.726-3,2.942a20.614,20.614,0,0,1-4.415,4.327c-1.586,1.209-4.244,4.678-5.308,6.067s-1.435,3.657-2.147,4.874c-.459.785-1.286,2.216-1.96,3.462l.043.043-.348.631a.41.41,0,0,0-.038-.032c-.225.431-.418.818-.547,1.112a77.591,77.591,0,0,0-2.715,9.065c-.189,1.4.109,6.47-.076,7.518s1,4.73.635,6.3.158,1.75.856,1.879-.008.753,2.273-.1,2.792.553,3.672.038.891-1.739,1.781-3.3,3.545-4.685,4.808-8.52-.484-4.026.07-6.993a15.127,15.127,0,0,0,.052-5.07c.011-1.049,1.232-.862,2.464-1.549s1.419-1.91,1.849-3.3a6.728,6.728,0,0,0,.147-3.959c-.329-2.041.185-.933,1.241-1.621s2.107-.853,2.817-1.9a2.462,2.462,0,0,1,1.76-1.206,18.228,18.228,0,0,0,2.981-.844c1.756-.683,1.578-.334,3.5.035s5.07.052,6.993.07a21.2,21.2,0,0,1,5.408,1.1c2.093.547,3.668.388,5.411.93a1.785,1.785,0,0,1,1.2,2.283,2.452,2.452,0,0,0,1.558,1.591c1.221.362.86,1.407,1.89,3.342s.334,1.577,1.023,2.633c0,0-1.6,2.257-2.121,2.251s-4-2.138-4.7-2.319-3.849.136-4.2.656a12.794,12.794,0,0,0-.727,2.791s2.794.378,3.668.386,2.272.2,2.97.206,1.914,1.069,1.914,1.069a6.452,6.452,0,0,1-2.809,1.02c-1.223-.013-2.276.327-3.325.316s-2.294,2.076-2.294,2.076a4.242,4.242,0,0,0,.68,1.929c.52.53,2.27.374,3.493.385a25.647,25.647,0,0,1,3.842.564c1.048.186,2.441.725,3.313.908s2.426,2.3,2.426,2.3l-.729,2.79s-.371,2.094-.572,4.714-1.07,2.089-1.428,2.959-1.07,2.087-1.427,2.784-2.511,6.269-2.522,7.318a31.539,31.539,0,0,1-.558,3.317c-.189,1.4-1.585,1.207-2.465,1.724s-4.023.134-5.073.123-6.276-1.812-7.151-1.645c-.567.106-3.611.042-5.7-.017l-.056.087c-.02-.029-.046-.06-.069-.09-1.076-.031-1.872-.059-1.872-.059s-14.33-.845-14.858-.5-4.887-.923-6.108-1.109a38.827,38.827,0,0,0-6.472.109c-.876.165-7.333-.95-7.333-.95a7.354,7.354,0,0,0-2.443-.548c-.527.169-3.686,1.361-4.563,1.7s-7.5-1.475-7.5-1.475l-6.644-.067a19.472,19.472,0,0,0-2.957-1.6c-1.045-.361-4.712-.923-4.712-.923s-4.176-1.966-5.906-3.731-5.417-.4-5.947.115-1.589,1.557-2.3,2.424,1.716,3.164,2.23,4.219,3.99,3.188,4.221,4.239,2.349,3.171,3.39,4.056-.018,5.536-.2,6.409a9.613,9.613,0,0,1-1.49,2.522s.919,3.822-.025,5.215a7.971,7.971,0,0,0-.919,4.362c-.008.874.166.877.681,1.756s-.364,1.4-.733,3.316.126,4.9.118,5.771-.027,2.623.491,3.328-.823,3.665-1.15,5.236a38.973,38.973,0,0,0-.5,6.462c.021,1.749.971,3.857.953,5.606s.127,4.721.127,4.721.5,2.978.663,3.679-.929,5.411-1.638,6.279-.041,4.021-.046,4.545a22.979,22.979,0,0,0,1,4.731,10.785,10.785,0,0,0,1.908,1.593l4.191.392s3.152-.318,3.331-.841a11.382,11.382,0,0,0,1.4-2.657,10.894,10.894,0,0,0,.228-2.748,14.147,14.147,0,0,1-.754-3.605c.1-1.151-.852-3.317-.848-3.774.008-.873,1.558-5.559,1.083-6.09s.327-2.094.159-2.8a26.211,26.211,0,0,1-.094-2.925c-.849-.053-1.434.147-1.388,1.228.01.245-.3.5-.464.753a7.108,7.108,0,0,1-.48-.758,1.209,1.209,0,0,1-.01-.473,4.793,4.793,0,0,1,.011-.951c.1-.491.347-.835.957-.767.455.052.929-.031,1.377.038a43.94,43.94,0,0,1,.178-4.712c.18-.522.684-5.266.684-5.266l.989-6.235a3.063,3.063,0,0,1,1.824,1.3c.607,1.039.6,2.855,1.564,3.127,1.918.544,1.627,2.767,1.627,2.767s.993,5.431.8,6.828a34.9,34.9,0,0,1-.921,4.537c-.361,1.22,1.728,2.115,1.728,2.115l-.011,1.049a40.63,40.63,0,0,1-1.454,5.406,14.681,14.681,0,0,0-.555,3.142c-.011,1.049-.374,2.269-.4,4.717s-.039,3.846-.045,4.37-2.845,4.692-2.5,5.4,3.3,2.655,3.3,2.655l5.943.235a25.527,25.527,0,0,0,3.863-1.535c.7-.518.72-2.091.725-2.615s-.656-4.2-.656-4.2l-.126-4.9s1.263-3.835,1.621-4.7,1.272-4.709,1.453-5.407-.683-1.579-1.024-2.458a7.017,7.017,0,0,1-.141-3.324c.186-1.046-.99-5.78-.972-7.528s.2-2.1,1.074-2.612.382-3.143.214-3.844-1.349-4.91-.814-5.954,1.575-.159,3.5-.14,1.558,1.589,1.9,2.118,3.3,1.957,4,2.314,1.729,1.94,3.644,2.659,5.943.235,7.343.074,2.266.722,3.839.914a27.608,27.608,0,0,0,6.641.241c1.928-.329,8.03,1.307,8.9,1.315s2.457-.849,3.146.207,7.652,4.1,9.748,4.295a4.913,4.913,0,0,1,2.962,1.079s1.034,1.585.327,2.277-.536,1.044-1.073,2.262-.4,4.892-.581,5.589a9.733,9.733,0,0,0,.662,3.679,5.048,5.048,0,0,1-.028,2.8c-.186,1.048-1.253,2.96-1.267,4.359s-1.1,4.689-1.8,5.207-2.531,2.023-2.718,3.244-1.2,4.645-.336,5.178,3.118,2.266,3.118,2.266l2.094.369s3.681-.837,4.382-1a28.776,28.776,0,0,0,3.868-2.059c.879-.516,1.437-3.833,1.617-4.355a12.883,12.883,0,0,0-.491-3.328c-.166-.876.729-2.964.734-3.489s1.462-5.8,1.467-6.325,1.26-3.965,1.272-5.189.934-5.936.946-6.985-.316-3.325.046-4.545-.32-2.976-.313-3.675.539-1.393,1.6-2.606,1.391.888,1.914.893a12.565,12.565,0,0,1,2.44.9,20.173,20.173,0,0,1,1.006,4.207,50.809,50.809,0,0,1-.944,6.971,19.3,19.3,0,0,0-.032,5.5c.116,1.014.3,2.883.313,4.569a.985.985,0,0,1,.75.344c.056.074.022.217.031.329a.9.9,0,0,1-.792.375c-.011.262-.027.511-.05.744-.111,1.1-.063,2.343-.167,3.79a17.138,17.138,0,0,1-.625,3.627,23.971,23.971,0,0,1-1.484,3.879c-.541,1.568-2.04,1.472-2.224,2.518s-2.682,2.872-2.513,3.4a12.114,12.114,0,0,0,2.073,2.468,4.422,4.422,0,0,0,2.962,1.08c.526-.169,1.763,1.491,1.932,2.017s3.65,2.31,5.046,2.5a3.615,3.615,0,0,0,2.806-.845c.88-.516,1.091-4.187,1.273-4.884s1.263-3.835,1.1-5.06c-.108-.814-.217-1.557-.323-2.524-.1-.064-.123-.218-.053-.476v-.008c-.036-.361-.071-.753-.108-1.193a8.3,8.3,0,0,1,.74-4.014,19.708,19.708,0,0,0,.87-3.907,48.407,48.407,0,0,0-1.02-4.874c-.168-.7-.61-2.592-.942-4.345s.551-2.616.569-4.365.95-7.51.961-8.557.9-2.79.915-4.014-1-4.731-1.164-5.957-.313-3.675-.481-4.376.732-3.139.743-4.188,1.606-3.307,1.966-4.177-.329-2.1-.664-3.5.762-6.287,1.129-7.857-.505-1.928-.505-1.928l-1.708-4.04a15.178,15.178,0,0,1-1.884-3.865c-.162-1.225,1.95-2.6,2.308-3.474a8.512,8.512,0,0,0,.043-4.2c-.34-1.052-.467-5.775-.628-7.175s1.581-.683,1.777-2.778,2.3-2.776,2.839-3.994-.309-4.025-.3-4.9a18.678,18.678,0,0,1-.127-4.721c.369-1.919,2.637-1.372,3.864-1.71a8.42,8.42,0,0,1,3.145.206,13.557,13.557,0,0,1,3.309,1.433,21.352,21.352,0,0,0,4.351,1.968c1.4.364,2.259,1.421,3.128,1.954s2.448.025,3.324-.141,2.255,1.785,3.474,2.322a5.737,5.737,0,0,0,3.314.747c1.225-.162,4.2-.481,4.384-1.354M144.7,46.929c-.081.018-.214-.2-.322-.306l.631-.348.348.348a3.172,3.172,0,0,1-.658.306m1.959-16.648c-.081.017-.214-.2-.322-.306a3.061,3.061,0,0,1,.656-.306c.081-.018.214.2.323.306a3.1,3.1,0,0,1-.658.306m6.73,14.3c-.069.183-.39.3-.621.375-.07.021-.311-.2-.316-.318a12.2,12.2,0,0,1,.013-1.879,1.4,1.4,0,0,1-1.1.032c-.129-.039-.326-.274-.309-.3.138-.21.3-.52.5-.558a5.993,5.993,0,0,1,1.363-.007.871.871,0,0,1-.008.421,1.2,1.2,0,0,1-.116.131,2.872,2.872,0,0,1,.3-.115c.07-.022.3.192.315.319a6.352,6.352,0,0,1,.015.953,2.871,2.871,0,0,1-.027.946m1.272-26.852-.348-.631c.13-.132.239-.239.348-.348a3.034,3.034,0,0,1,.3.658c.018.08-.2.213-.3.322M190.3,6.64c-.081.018-.213-.2-.322-.306l.631-.348c.13.132.239.241.348.348a2.941,2.941,0,0,1-.658.306m22.6.7c-.074.21-.359.346-.55.515a2.469,2.469,0,0,1-.385-.747,1.841,1.841,0,0,1,.18-.825.6.6,0,0,1,.325-.3c.448-.171.6-.007.453.449a2.854,2.854,0,0,1-.024.9M161.647,58.719c-.56.323-1.445.166-1.568-.367-.087-.383.172-.845.277-1.273a3.428,3.428,0,0,1,.659.322c.365.283.7.609,1.042.916a2.77,2.77,0,0,1-.41.4m8.678-27.275-.348-.348.348-.631c.108.109.323.241.3.322a3.1,3.1,0,0,1-.3.658M186.075,20.8a.412.412,0,0,1-.41,0,.421.421,0,0,1,0-.411,3.566,3.566,0,0,1,.558-.471c.113.113.322.273.3.309a1.963,1.963,0,0,1-.446.576m3.689,1.648c-.53-.143-.519-1.221-.028-1.586.076-.057.3-.064.318-.024.136.255.236.53.344.79.043.485-.083.967-.634.82m23.8,20.6a2.557,2.557,0,0,1-.877.132,2.519,2.519,0,0,1-.747-.466,2.49,2.49,0,0,1,.747-.466,1.862,1.862,0,0,1,.873.143c.133.043.227.211.339.323-.112.112-.224.222-.334.334M119,94.437c.08-.017.213.2.322.306a3.07,3.07,0,0,1-.658.306c-.081.018-.213-.2-.322-.306a3.108,3.108,0,0,1,.658-.306m-1.051,38.1a1.012,1.012,0,0,1,.595-1.224,4.964,4.964,0,0,1,.333,1.228c.008.243-.3.5-.457.743a2.507,2.507,0,0,1-.47-.747m1.592,16.253c-.022.041-.242.032-.318-.024-.491-.365-.5-1.444.028-1.586.551-.147.677.333.634.82-.108.26-.208.534-.344.79m5.036-40.126c-.109-.108-.325-.241-.306-.322a3.06,3.06,0,0,1,.306-.656c.109.108.218.217.348.348l-.348.63m3.634-33.157a3.036,3.036,0,0,1-.306-.658c-.018-.081.2-.213.306-.322l.348.631c-.131.13-.241.239-.348.348m4.39,5.86c-.073.071-.274.015-.421.015-.15-.193-.47-.485-.424-.564.344-.59.624-.187.851.134a.43.43,0,0,1-.006.414m.506-4.881a3,3,0,0,1-.306-.658c-.018-.08.2-.214.306-.322a3.033,3.033,0,0,1,.3.658c.018.08-.2.213-.3.322m1.389,33.5c-.193.151-.485.471-.564.425-.589-.344-.186-.624.136-.852a.431.431,0,0,1,.413.006c.073.073.015.276.015.421m.148,43.319a3.07,3.07,0,0,1-.306-.657c-.018-.081.2-.213.306-.322l.348.631c-.131.13-.239.239-.348.348m5.948,7.344a5.015,5.015,0,0,1-.456-1.22c-.025-.227.294-.491.456-.739.164.248.327.494.568.859-.169.327-.368.713-.568,1.1m.6-38.169c-.243.007-.494-.3-.741-.459a2.519,2.519,0,0,1,.746-.47,1.013,1.013,0,0,1,1.225.6,5.1,5.1,0,0,1-1.23.333m1.193-40.719c-.074.211-.36.347-.55.516a2.468,2.468,0,0,1-.385-.747,1.841,1.841,0,0,1,.18-.825.594.594,0,0,1,.325-.294c.448-.173.6-.008.453.448a2.844,2.844,0,0,1-.024.9M154.632,108a.671.671,0,0,1-.56-.921c.1-.312-.474-1.032.432-.888.2.032.378.407.516.653.064.115.011.3.011.449-.134.249-.306.72-.4.706m.583,3.318c-.109-.109-.218-.217-.348-.348l.348-.631c.109.109.323.241.306.322a3.041,3.041,0,0,1-.306.658m4.338,8.966a2.994,2.994,0,0,1-.306-.656c-.018-.081.2-.214.306-.322a3.061,3.061,0,0,1,.306.656c.017.081-.2.214-.306.322m2.208-42.019c-.228.025-.491-.292-.739-.456.248-.164.512-.481.739-.456a4.959,4.959,0,0,1,1.22.456,5.017,5.017,0,0,1-1.22.456m9.878,39.3a1.073,1.073,0,0,1-1.619.02.372.372,0,0,1-.022-.326,1.057,1.057,0,0,1,1.61-.022c.056.076.022.218.031.329m11.417-24.892a3,3,0,0,1-.306-.658c-.018-.08.2-.213.306-.322l.348.631-.348.348m8.956-4.355c-.022.041-.242.034-.318-.022-.491-.365-.5-1.445.028-1.586.55-.147.677.333.634.818-.108.26-.208.536-.344.79m2.511,28.6c-.064.445.194.974-.329,1.293a.344.344,0,0,1-.325,0,2.572,2.572,0,0,1,0-2.585.353.353,0,0,1,.325,0c.523.319.264.849.329,1.294m.576,3.632-.568-.859c.169-.327.369-.713.568-1.1a4.959,4.959,0,0,1,.456,1.22c.025.227-.292.491-.456.739m4.77,18.789c.081-.018.214.2.323.306a3.1,3.1,0,0,1-.658.306c-.081.018-.214-.2-.322-.306a3.06,3.06,0,0,1,.656-.306m-1.146,14.506c-.109-.109-.325-.242-.306-.322a3.042,3.042,0,0,1,.306-.658c.108.109.217.218.348.348l-.348.631m1.458-3.7c-.1.49-.347.852-.944.761-.155-.024-.351.056-.469-.014-.483-.283-.463-.561-.067-.989a4.878,4.878,0,0,0,.519-1.2,6.074,6.074,0,0,1,.49-.733,6.971,6.971,0,0,1,.471.754,1.193,1.193,0,0,1,.011.47,5.1,5.1,0,0,1-.011.949m1.227-.4a3.108,3.108,0,0,1-.657-.306c.109-.109.217-.218.348-.348l.631.348c-.109.108-.242.325-.322.306m5.383-66c-.038.067-.288.01-.441.01.116-.762-.642-.953-.915-1.454-.025-.046.39-.332.6-.505.8-.1,1.3.171,1.265.821a2.833,2.833,0,0,1-.511,1.128m1.353-1.388c-.53-.141-.519-1.221-.028-1.586.076-.056.3-.064.318-.024.136.256.236.532.344.792.043.485-.084.965-.634.818m5.268-10.766-.348-.631c.13-.132.239-.239.348-.348a3.034,3.034,0,0,1,.3.658c.018.08-.2.213-.3.322m4.9,69.528-.348-.348.348-.631c.108.108.323.241.306.322a3.139,3.139,0,0,1-.306.658m1.959-98.761c-.109-.109-.325-.242-.306-.322a2.973,2.973,0,0,1,.306-.658c.108.109.217.217.348.348l-.348.631m.979,59.59c-.109-.109-.325-.242-.306-.322a3,3,0,0,1,.306-.658l.348.348c-.113.2-.231.418-.348.631m2.636,10.5a.655.655,0,0,1-.294-.329c-.172-.448-.014-.585.449-.459.414.112.845.161,1.259.27.076.02.106.2.158.309-.106.425-.9.541-1.572.208m2.082,17.36c-.024-.228.294-.492.456-.74l.568.859c-.169.327-.368.713-.568,1.1a4.983,4.983,0,0,1-.456-1.219m1.631,29.929c.073.073.017.276.017.421-.194.151-.487.471-.565.425-.589-.346-.186-.624.136-.851a.424.424,0,0,1,.413,0m-.393-7.77c.113.113.322.273.3.311a2,2,0,0,1-.446.576.293.293,0,0,1-.414-.414,3.575,3.575,0,0,1,.558-.473m-.053-26.345c.523.319.264.849.329,1.294-.064.445.194.974-.329,1.293a.349.349,0,0,1-.325,0,2.573,2.573,0,0,1,0-2.585.352.352,0,0,1,.325,0M228.827,62.6a1.057,1.057,0,0,1-1.61-.024.368.368,0,0,1,.022-.325,1.071,1.071,0,0,1,1.617.018c-.007.112.027.253-.029.33m.116-.795a3.058,3.058,0,0,1-.306-.656c-.017-.081.2-.214.306-.322a3.062,3.062,0,0,1,.306.656c.018.081-.2.214-.306.322m6.825-24.542c-.081.017-.214-.2-.322-.306l.631-.348.348.348a3.174,3.174,0,0,1-.657.306m11.151,14.309a.412.412,0,0,1-.41,0,.418.418,0,0,1,0-.411,3.583,3.583,0,0,1,.558-.473c.113.113.322.274.3.311a1.953,1.953,0,0,1-.445.576m7.347-1.966c-.313-.1-1.034.473-.89-.432.032-.2.407-.378.653-.516.115-.066.3-.011.449-.013.249.136.72.308.706.4a.67.67,0,0,1-.919.56m9.188,6.209a2.007,2.007,0,0,1-.578-.445.293.293,0,0,1,.415-.414,3.5,3.5,0,0,1,.471.557c-.113.113-.273.322-.309.3" transform="translate(43.142 -0.001)" fill="#313133"/>
      <path id="Path_21120" data-name="Path 21120" d="M247.1,154.555H242a1.645,1.645,0,0,1-.137,1.128.66.66,0,0,1-.327.3c-.449.171-.585.013-.459-.45.087-.32.14-.649.208-.972h-9.849v3.879h1.466c2.177-.046,2.461.285,2.461,2.887v18.031c0,2.6-.284,2.934-2.461,2.887h-1.466v3.881h7.116c-.108-.088-.228-.18-.215-.242a3.069,3.069,0,0,1,.306-.658l.348.348c-.1.179-.2.365-.3.551H247.1V182.24H245.54c-.039,0-.07,0-.108,0a.646.646,0,0,1,.028.333,3.387,3.387,0,0,1-.231,1.144c-.192.266-.5,1.1-.653,1.181s-.152.115-.346,0-.115-.115-.192-.343-.192-.152-.153-.725a3.691,3.691,0,0,1,.306-1.143l-.228-.6a1.654,1.654,0,0,1-.166-.063c-.088.09-.176.176-.256.256a3.036,3.036,0,0,1-.306-.658c-.007-.036.034-.083.09-.133a5.282,5.282,0,0,1-.242-1.924c-.035.07-.07.137-.1.206a4.959,4.959,0,0,1-.456-1.22c-.025-.227.292-.491.456-.739l.1.154V161.322c0-2.6.283-2.934,2.459-2.887H247.1V156.4c-.045-.024-.088-.049-.133-.071l.133-.133Zm-10.411,20.732-.631-.348c.109-.109.241-.325.322-.3a3,3,0,0,1,.657.3l-.348.348m.838-3.776a3.07,3.07,0,0,1-.306-.658c-.018-.08.2-.213.306-.322a3.072,3.072,0,0,1,.306.658c.017.081-.2.214-.306.322m-.008-.979a3.037,3.037,0,0,1-.306-.658c-.018-.08.2-.213.306-.322l.348.631c-.13.132-.239.239-.348.348m3.539-13.188c-.074.21-.358.346-.55.515a2.5,2.5,0,0,1-.383-.746,1.807,1.807,0,0,1,.18-.827.6.6,0,0,1,.323-.3c.449-.171.606-.007.453.449a2.815,2.815,0,0,1-.024.9m1.1,8.755c-.53-.143-.518-1.221-.027-1.586.076-.056.3-.064.316-.024.137.256.236.532.344.79.043.487-.083.967-.634.82" transform="translate(92.333 61.659)" fill="#313133"/>
      <path id="Path_21121" data-name="Path 21121" d="M272.248,195.988h-1.035V195.3h2.893v.691h-1v4.405h-.858Zm2.227-.691h.834l.94,3,.942-3h.832v5.1h-.785v-3.275l-.678,2.251h-.62l-.679-2.251v3.275h-.786Z" transform="translate(108.201 77.913)" fill="#dc7644"/>
    </g>
  </g>
</svg>
