<svg id="logo" xmlns="http://www.w3.org/2000/svg" xmlns:xlink="http://www.w3.org/1999/xlink" width="147" height="147" viewBox="0 0 147 147">
  <defs>
    <clipPath id="clip-path">
      <rect id="Rectangle_5440" data-name="Rectangle 5440" width="147" height="147" fill="none"/>
    </clipPath>
  </defs>
  <g id="Group_13203" data-name="Group 13203" clip-path="url(#clip-path)">
    <path id="Path_48239" data-name="Path 48239" d="M146.6,73.3A73.3,73.3,0,1,1,73.3,0a73.3,73.3,0,0,1,73.3,73.3" transform="translate(0 0)" fill="#e7e3dd"/>
    <path id="Path_48240" data-name="Path 48240" d="M145.836,75.467A70.369,70.369,0,1,1,75.468,5.1a70.369,70.369,0,0,1,70.369,70.369" transform="translate(-2.167 -2.166)" fill="#2e2e2e"/>
    <path id="Path_48241" data-name="Path 48241" d="M10.893,77.929a67.037,67.037,0,0,1,134.075,0Z" transform="translate(-4.629 -4.629)" fill="#87969e"/>
    <path id="Path_48242" data-name="Path 48242" d="M77.212,183.878l-.307-1.4h-1.19l-.307,1.4h-.93l1.422-6.511h.819l1.422,6.511Zm-.921-4.7-.484,2.473h.986Z" transform="translate(-31.65 -75.372)" fill="#e7e3dd"/>
    <path id="Path_48243" data-name="Path 48243" d="M95.337,177.367v.883H94.184v5.627h-.931V178.25H92.1v-.883Z" transform="translate(-39.138 -75.372)" fill="#e7e3dd"/>
    <path id="Path_48244" data-name="Path 48244" d="M125.724,177.367v.715l-1.953,4.958h1.907v.837h-2.884v-.818L124.7,178.2h-1.776v-.837Z" transform="translate(-52.181 -75.372)" fill="#e7e3dd"/>
    <rect id="Rectangle_5438" data-name="Rectangle 5438" width="0.931" height="6.511" transform="translate(81.212 101.994)" fill="#e7e3dd"/>
    <path id="Path_48245" data-name="Path 48245" d="M156.36,179.008a1.692,1.692,0,0,1,.484-1.386,1.773,1.773,0,0,1,2.288,0,1.691,1.691,0,0,1,.482,1.386V182.1a1.69,1.69,0,0,1-.482,1.385,1.769,1.769,0,0,1-2.288,0,1.691,1.691,0,0,1-.484-1.385Zm2.324-.139a.726.726,0,0,0-.194-.569.774.774,0,0,0-1.006,0,.73.73,0,0,0-.194.569v3.366a.731.731,0,0,0,.194.569.775.775,0,0,0,1.006,0,.727.727,0,0,0,.194-.569Z" transform="translate(-66.445 -75.303)" fill="#e7e3dd"/>
    <path id="Path_48246" data-name="Path 48246" d="M175.454,177.367l1.554,4.091v-4.091h.931v6.511h-.931l-1.554-4.093v4.093h-.93v-6.511Z" transform="translate(-74.164 -75.372)" fill="#e7e3dd"/>
    <path id="Path_48247" data-name="Path 48247" d="M103.935,217.419h2.348v.752h-1.556V219.8H106.1v.713h-1.374V222.2h1.581v.752h-2.373Z" transform="translate(-44.167 -92.393)" fill="#e7e3dd"/>
    <path id="Path_48248" data-name="Path 48248" d="M111.565,221.239a.448.448,0,0,0-.119-.285.393.393,0,0,0-.285-.1.371.371,0,0,0-.388.395.434.434,0,0,0,.08.253.659.659,0,0,0,.308.207l.475.2a1.286,1.286,0,0,1,.507.38,1.161,1.161,0,0,1,.2.719,1.215,1.215,0,0,1-.254.767,1.151,1.151,0,0,1-.957.4,1.179,1.179,0,0,1-.916-.348,1.221,1.221,0,0,1-.293-.813h.791a.455.455,0,0,0,.1.3.468.468,0,0,0,.324.127.4.4,0,0,0,.307-.134.448.448,0,0,0,.1-.317c0-.2-.064-.355-.4-.5l-.466-.2a1.285,1.285,0,0,1-.49-.333,1.017,1.017,0,0,1-.215-.665,1.226,1.226,0,0,1,.292-.853,1.144,1.144,0,0,1,.846-.316,1.225,1.225,0,0,1,.918.316,1.162,1.162,0,0,1,.3.807Z" transform="translate(-46.711 -93.539)" fill="#e7e3dd"/>
    <path id="Path_48249" data-name="Path 48249" d="M116.425,218.148v1.194h.506v.633h-.506v2.152a.442.442,0,0,0,.112.332.473.473,0,0,0,.292.07h.1v.735h-.214a.919.919,0,0,1-1.084-1.066v-2.224h-.4v-.633h.4v-1.194Z" transform="translate(-48.968 -92.702)" fill="#e7e3dd"/>
    <rect id="Rectangle_5439" data-name="Rectangle 5439" width="0.871" height="0.871" transform="translate(69.112 129.694)" fill="#e7e3dd"/>
    <path id="Path_48250" data-name="Path 48250" d="M128.3,218.265l-.855.616v-.814l.886-.649h.761v5.537H128.3Z" transform="translate(-54.159 -92.392)" fill="#e7e3dd"/>
    <path id="Path_48251" data-name="Path 48251" d="M136.873,219.18a1.055,1.055,0,0,1-.373.847.977.977,0,0,1,.373.98v.7a1.22,1.22,0,1,1-2.437,0v-.7a.977.977,0,0,1,.371-.98,1.06,1.06,0,0,1-.371-.847v-.625a1.22,1.22,0,1,1,2.437,0Zm-.792-.514c0-.207-.022-.609-.426-.609s-.427.4-.427.609v.419c0,.206.022.609.427.609s.426-.4.426-.609Zm0,2.214c0-.205-.022-.609-.426-.609s-.427.4-.427.609v.712c0,.206.022.609.427.609s.426-.4.426-.609Z" transform="translate(-57.128 -92.334)" fill="#e7e3dd"/>
    <path id="Path_48252" data-name="Path 48252" d="M143.574,217.419l-.981,2.4a.706.706,0,0,1,.419-.1.8.8,0,0,1,.61.285,1.1,1.1,0,0,1,.238.728v1.082a1.239,1.239,0,0,1-.317.9,1.3,1.3,0,0,1-.9.315,1.139,1.139,0,0,1-1.186-1.233V221a2.6,2.6,0,0,1,.284-1.125l.988-2.451Zm-.506,3.4a.453.453,0,0,0-.086-.317.356.356,0,0,0-.285-.134.426.426,0,0,0-.309.127.5.5,0,0,0-.143.355v.941a.509.509,0,0,0,.088.325.373.373,0,0,0,.3.142.432.432,0,0,0,.331-.135.583.583,0,0,0,.1-.4Z" transform="translate(-60.112 -92.393)" fill="#e7e3dd"/>
    <path id="Path_48253" data-name="Path 48253" d="M148.995,218.265l-.855.616v-.814l.886-.649h.761v5.537h-.792Z" transform="translate(-62.953 -92.392)" fill="#e7e3dd"/>
    <path id="Path_48254" data-name="Path 48254" d="M145.721,83.3c-.312-.326-3.815-5.144-5.1-6.012-.372-.25-1.167-.67-1.167-.67s-1.524-2.618-1.7-2.77a1.5,1.5,0,0,0-1.746-.295,13.494,13.494,0,0,0-1.819-.274l-1.043.875-4.255-1.647-.866-2.614-.661-.78a10.869,10.869,0,0,0-2.847-1.255c-.487-.013-2.957-2.412-3.092-2.461-.715-.265-2.17-.741-2.17-.741l-1.522-2.8-.161-1.127s-5.366-3.027-6.179-3.435a.863.863,0,0,1-.4-.382,10.993,10.993,0,0,1-.467-2.243,20.857,20.857,0,0,0-1.989-1.889c-.785-.288-1.512-2.246-1.512-2.246a29.015,29.015,0,0,0-4.01-1.37,4.812,4.812,0,0,0-.98.587,13.17,13.17,0,0,0-1.166,1.01L99.1,49.874a18.066,18.066,0,0,1-2.5-.2,5.381,5.381,0,0,1-.546-1.656,23.683,23.683,0,0,0-3.584-2.466,29.7,29.7,0,0,0-4.035-1.478,19.371,19.371,0,0,1-2.15-1.266,12.032,12.032,0,0,1-1.2-1.985c-.076-.186-.735-2.794-.715-3a2.28,2.28,0,0,0-.707-1.434A13.046,13.046,0,0,1,81.539,34.5a6.7,6.7,0,0,1-1.74-.545c-.539-.5-1.058-3.074-1.37-3.463a10.489,10.489,0,0,0-2.634-.921c-.45-.137-.945.482-1.224.834a1.758,1.758,0,0,0-.185.386,25.887,25.887,0,0,1-.749,2.833c-.227.062-1.247,2.2-1.505,2.393a2.284,2.284,0,0,1-2.255,0,6.9,6.9,0,0,0-.7-1.371,10.039,10.039,0,0,0-2.623-1.269L64.806,31.81s-1.033-2.943-2.384-3.255a8.9,8.9,0,0,0-3.712.344,4.7,4.7,0,0,1-1.558-.1c-.242-.029-1.558.11-1.558.11l-1.212,3.661S53.666,40,53.337,40.6a27.968,27.968,0,0,0-1.086,3.593s-.38,6.041-.609,6.549c-.459,1.025-.668,1.976-1.164,2.987A11.912,11.912,0,0,1,47.7,56.051a13.825,13.825,0,0,1-1.729-.4l-1.166.78-3.217-.577s-1.006-.233-1.256.029a32.885,32.885,0,0,0-2.013,5.451c-.293,0-2.584.581-2.584.581a5.058,5.058,0,0,0-.868.827c-.313.574-1.981,4.185-1.981,4.185S29.861,63.985,29.3,64.1s-2.076,2.392-2.426,2.68c-.234-.71-.933-2.984-1.592-3.2-.482-.156-1.04-.461-1.539-.1a17.381,17.381,0,0,0-2.189,1.762,8.577,8.577,0,0,1-.856,2.154c-.25.33-1.4,4.857-1.4,4.857a3.842,3.842,0,0,0-.786,1.444,50.8,50.8,0,0,1-1.04,6.078,10.7,10.7,0,0,1-1.068.44,19.571,19.571,0,0,0-2.869.228,16.042,16.042,0,0,0-2.466,2.5,7.75,7.75,0,0,0-.374,2.807H145.924s.109-2.125-.2-2.451" transform="translate(-4.542 -12.091)" fill="#2e2e2e"/>
    <path id="Path_48255" data-name="Path 48255" d="M132.877,72.626c.348,1.227-1.45,5.179-1.45,5.179l-.289,9.178-.7,4.75-1.334-7.845-.756-2.936.407-2.936,2.784-4.909Z" transform="translate(-54.543 -30.863)" fill="#dc7644"/>
    <path id="Path_48256" data-name="Path 48256" d="M113.1,54.929c.172.454-.6,10.034-.6,10.034s-1.2,3.1-.74,3.416S113.1,69.5,113.1,69.5s-2.378,6.458-2.495,8.058a16.252,16.252,0,0,0,0,2.669l-1.74-2.08-1.162-.537s-.4-1.173-.812-.852a7.1,7.1,0,0,0-.986.852,7.758,7.758,0,0,0-.7.856V79.8l-1.159.909-1.393.8-.29,3.15v1.814l-.58.748v1.227h-1.333l-.93-1.121-1.333.053-.813.375-1.1-.7a10.731,10.731,0,0,0,1.566-1.813A12.473,12.473,0,0,1,99,83.538a1.835,1.835,0,0,0,.057-1.388c-.232-.961-1.8,1.707-2.147.534s1.741-4,1.741-4a5.871,5.871,0,0,0,1.624-3.363,7.853,7.853,0,0,0-.289-3.2,23.612,23.612,0,0,0-.348-3.363c-.289-1.387-.812-.951-.289-2.21a20.66,20.66,0,0,0,1.45-3.874c.116-.962-.116-1.122,0-2.082s1.334-2.99,1.334-4.164-.4-.319-.869-1.708a13.23,13.23,0,0,1-.756-3.148c0-.534,1.277-.747,2.263-.374s1.566.641,1.566,1.547.638-2.027.812-2.027,1.683-1.441,1.277,0a10.337,10.337,0,0,0-.812,3.362c-.059,1.655-.754,3.363-.58,4.164a14.018,14.018,0,0,1-.348,3.308,4.506,4.506,0,0,0-.232,2.189c.115,1.495.115.908-.29,3.363a41.328,41.328,0,0,0-.639,4.7c-.174,2.081-.754,2.562-.754,2.562s-.638,2.135.232,1.44,1.162-2.455,1.683-2.348-.058,1.441.521,1.014.465-1.014.524-1.868-.7-4.591.115-7.952.754-4.538,1.335-5.55a6.648,6.648,0,0,0,.986-3.1c0-.961.58-.64.58-1.922s-.175-1.708.058-1.921.639-.748,1.45.052,1.422,1.388,1.813,1.174.565.322,1.03,1.549" transform="translate(-40.911 -21.278)" fill="#dc7644"/>
    <path id="Path_48257" data-name="Path 48257" d="M89.544,44.2c-.419.385.289,1.6,0,2.882a23.556,23.556,0,0,0-.465,3.2,20.417,20.417,0,0,1-.29,3.47c-.347,1.546-.406,1.493-.639,2.987s-.115,2.508-.521,2.883-1.1.855-1.045,1.655,1.221,2.4,1.277,3.308A10.056,10.056,0,0,0,89.428,68c.406.534.435,2.242.275,3.631s-1.144,2.186-1.2,3.254-.276,2.4-.312,2.882a2.831,2.831,0,0,0,.312,1.869c.407.479,1.294-.428,1.294-.428a23.782,23.782,0,0,1,1.433-2.72c.29-.267.7-.162.929-1.549s.694-1.014,1.159-1.708a2.872,2.872,0,0,0,.639-2.615,21.473,21.473,0,0,1-.465-3.869,12.546,12.546,0,0,1,.29-4.085c.407-.852,1.045-1.119,1.045-1.813s-.7-1.228-.7-2.028a22.554,22.554,0,0,1,.7-3.791c.289-1.174,1.45-2.88.521-2.561s-1.8,2.35-2.146,4-.811,1.547-.753.961.232-2.99.4-3.844.872-3.788.7-4.695a3.742,3.742,0,0,0-.928-1.763c-.29-.373-1.332-.478-1.478-.96s-1.248-2.3-1.6-1.975" transform="translate(-36.793 -18.766)" fill="#dc7644"/>
    <path id="Path_48258" data-name="Path 48258" d="M32.372,141.518H29.521V139.2H37.69v2.32H34.838V156.41H32.372Z" transform="translate(-12.545 -59.152)" fill="#e7e3dd"/>
    <path id="Path_48259" data-name="Path 48259" d="M47.722,139.2h3.964q4.353,0,4.352,5.054a6.4,6.4,0,0,1-.472,2.574,3.647,3.647,0,0,1-1.658,1.728l2.66,7.856H53.958l-2.3-7.349H50.188v7.349H47.722Zm2.466,7.688h1.4a2.5,2.5,0,0,0,1.039-.181,1.357,1.357,0,0,0,.592-.52,2.209,2.209,0,0,0,.278-.834,9.137,9.137,0,0,0,0-2.3,2.042,2.042,0,0,0-.3-.846,1.355,1.355,0,0,0-.641-.52,2.9,2.9,0,0,0-1.086-.171H50.188Z" transform="translate(-20.28 -59.152)" fill="#e7e3dd"/>
    <path id="Path_48260" data-name="Path 48260" d="M67.731,139.2H75.08v2.32H70.2v5.052h4.254v2.322H70.2v5.051H75.08v2.467H67.731Z" transform="translate(-28.782 -59.152)" fill="#e7e3dd"/>
    <path id="Path_48261" data-name="Path 48261" d="M85.387,139.2h7.349v2.32H87.853v5.052h4.254v2.322H87.853v5.051h4.883v2.467H85.387Z" transform="translate(-36.286 -59.152)" fill="#e7e3dd"/>
    <path id="Path_48262" data-name="Path 48262" d="M110.663,144.045H108.2v-.556a2.638,2.638,0,0,0-.4-1.462,1.477,1.477,0,0,0-1.342-.616,1.633,1.633,0,0,0-.834.193,1.449,1.449,0,0,0-.506.5,2.114,2.114,0,0,0-.256.7,4.726,4.726,0,0,0-.071.835,8.365,8.365,0,0,0,.036.858,1.516,1.516,0,0,0,.182.606,1.378,1.378,0,0,0,.423.446,3.8,3.8,0,0,0,.761.386l1.886.749a4.687,4.687,0,0,1,1.33.737,3.01,3.01,0,0,1,.784.992,4.222,4.222,0,0,1,.376,1.306,12.82,12.82,0,0,1,.1,1.679,8.9,8.9,0,0,1-.217,2.018,4.3,4.3,0,0,1-.713,1.6,3.434,3.434,0,0,1-1.318,1.049,4.682,4.682,0,0,1-2.007.389,4.388,4.388,0,0,1-1.668-.316,4.024,4.024,0,0,1-2.538-3.77v-.92h2.466v.776a2,2,0,0,0,.4,1.22,1.552,1.552,0,0,0,1.34.543,2.177,2.177,0,0,0,.98-.181,1.244,1.244,0,0,0,.531-.507,2.074,2.074,0,0,0,.229-.81,10.289,10.289,0,0,0,.049-1.066,9.949,9.949,0,0,0-.049-1.11,1.757,1.757,0,0,0-.2-.7,1.27,1.27,0,0,0-.436-.435,6.023,6.023,0,0,0-.737-.364l-1.764-.724a3.9,3.9,0,0,1-2.14-1.729,5.944,5.944,0,0,1-.545-2.694,6.226,6.226,0,0,1,.267-1.838,4.3,4.3,0,0,1,.786-1.5,3.786,3.786,0,0,1,1.318-1,4.336,4.336,0,0,1,1.861-.374,4.074,4.074,0,0,1,1.68.34,4.169,4.169,0,0,1,1.307.894,4.014,4.014,0,0,1,.833,1.245,3.623,3.623,0,0,1,.289,1.413Z" transform="translate(-43.431 -59.044)" fill="#e7e3dd"/>
    <path id="Path_48263" data-name="Path 48263" d="M132.135,139.2H136.1q4.351,0,4.352,5.054a6.382,6.382,0,0,1-.473,2.574,3.639,3.639,0,0,1-1.657,1.728l2.66,7.856h-2.611l-2.3-7.349H134.6v7.349h-2.466Zm2.466,7.688H136a2.5,2.5,0,0,0,1.039-.181,1.357,1.357,0,0,0,.592-.52,2.21,2.21,0,0,0,.278-.834,9.138,9.138,0,0,0,0-2.3,2.042,2.042,0,0,0-.3-.846,1.355,1.355,0,0,0-.641-.52,2.9,2.9,0,0,0-1.086-.171H134.6Z" transform="translate(-56.151 -59.152)" fill="#e7e3dd"/>
    <path id="Path_48264" data-name="Path 48264" d="M154.053,139.2h2.055l3.843,17.211h-2.466l-.725-3.7H153.4l-.725,3.7h-2.466Zm1.04,4.955h-.05l-1.206,6.238H156.3Z" transform="translate(-63.832 -59.152)" fill="#e7e3dd"/>
    <path id="Path_48265" data-name="Path 48265" d="M171.187,139.2h2.369l3.723,10.371h.048V139.2h2.466v17.212h-2.319L173.7,146.062h-.049v10.347h-2.466Z" transform="translate(-72.746 -59.152)" fill="#e7e3dd"/>
    <path id="Path_48266" data-name="Path 48266" d="M199.848,152.458a3.9,3.9,0,0,1-.3,1.522,3.993,3.993,0,0,1-.833,1.27,4.135,4.135,0,0,1-1.246.871,3.641,3.641,0,0,1-1.535.326,5.524,5.524,0,0,1-1.426-.193,3.467,3.467,0,0,1-1.305-.664,3.6,3.6,0,0,1-.955-1.246,4.469,4.469,0,0,1-.374-1.958V142.91a4.2,4.2,0,0,1,.29-1.572,3.69,3.69,0,0,1,.823-1.257,3.835,3.835,0,0,1,1.268-.834,4.264,4.264,0,0,1,1.633-.3,4.041,4.041,0,0,1,1.57.3,3.808,3.808,0,0,1,1.258.846,3.921,3.921,0,0,1,.833,1.305,4.45,4.45,0,0,1,.3,1.657v.966h-2.465V143.2a2,2,0,0,0-.413-1.258,1.328,1.328,0,0,0-1.11-.531,1.251,1.251,0,0,0-1.221.568,3.041,3.041,0,0,0-.3,1.439v8.8a2.29,2.29,0,0,0,.325,1.258,1.287,1.287,0,0,0,1.173.506,1.778,1.778,0,0,0,.519-.084,1.435,1.435,0,0,0,.508-.278,1.4,1.4,0,0,0,.374-.531,2.165,2.165,0,0,0,.146-.846v-.846h2.465Z" transform="translate(-81.535 -59.044)" fill="#e7e3dd"/>
    <path id="Path_48267" data-name="Path 48267" d="M211.334,139.2H213.8v7.373h3.045V139.2h2.467v17.212h-2.467v-7.663H213.8v7.663h-2.466Z" transform="translate(-89.807 -59.152)" fill="#e7e3dd"/>
    <path id="Path_48268" data-name="Path 48268" d="M215.514,227.485h-.657v-.439h1.836v.439h-.635v2.8h-.544Zm1.413-.439h.528l.6,1.9.6-1.9h.529v3.235h-.5V228.2l-.431,1.428h-.393l-.431-1.428v2.079h-.5Z" transform="translate(-91.304 -96.484)" fill="#2e2e2e"/>
  </g>
</svg>
