<svg xmlns="http://www.w3.org/2000/svg" xmlns:xlink="http://www.w3.org/1999/xlink" width="257.427" height="170.155" viewBox="0 0 257.427 170.155">
  <defs>
    <clipPath id="clip-path">
      <rect id="Rectangle_5412" data-name="Rectangle 5412" width="257.428" height="170.155" fill="none"/>
    </clipPath>
  </defs>
  <g id="Group_13199" data-name="Group 13199" transform="translate(0 5)">
    <g id="Group_13198" data-name="Group 13198" transform="translate(0 -5)" clip-path="url(#clip-path)">
      <path id="Path_21122" data-name="Path 21122" d="M15.526,171.548c.183-.1.214-.59.591-.25.072.064.136.143.2.217v-5.033c.027-.963.192-1.211.962-1.211h.744v-2.229H9.413v2.229h1.211c1.1.028,1.211.138,1.211,1.4v1.486a2.44,2.44,0,0,1-.413,1.733,2.725,2.725,0,0,1-2.175.992c-2.156,0-3.582-1.88-4-5.15-.039.088-.086.174-.13.261l-.2-.2.2-.367c.028.028.069.059.1.09a17.107,17.107,0,0,1-.1-1.9c0-4.651,1.569-7.321,4.294-7.321a3.39,3.39,0,0,1,2.972,1.762c.016.025.029.05.046.075l.006,0c.321-.086.394.194.369.476-.015.037-.033.076-.049.113a8.8,8.8,0,0,1,.648,2.943H15.66v-7.459H13.541l-.5,1.486c-1.871-1.4-2.945-1.817-4.734-1.817-4.788,0-8.311,4.156-8.311,9.771,0,4.1,1.741,7.284,4.525,8.769a.675.675,0,0,1,.121-.049c.046-.01.124.116.187.178l-.03.017a7.6,7.6,0,0,0,.809.334c.028-.023.055-.045.076-.066l.063.114a8.216,8.216,0,0,0,2.533.39,6.281,6.281,0,0,0,3.558-.94.491.491,0,0,1,.141-.088c.365-.227.748-.493,1.172-.815l.908,1.486H15.1c-.017-.517-.177-1.1.427-1.429m.385-3.266a5.806,5.806,0,0,1,.325.532c-.054.5-.3.678-.762.589a.71.71,0,0,1-.352-.282c.159-.291.6-.4.532-.845.089,0,.227-.036.257.007m-.266-.015c-.042.042-.16.009-.245.009-.088-.112-.274-.282-.247-.328.2-.343.363-.108.495.079a.248.248,0,0,1,0,.24m-.358-3.326.367.2c-.063.063-.14.189-.187.178a1.748,1.748,0,0,1-.382-.178l.2-.2m-3.822-9.112.2.2a1.786,1.786,0,0,1-.382.178c-.046.011-.124-.115-.187-.178l.367-.2m-6.444-.545a1.807,1.807,0,0,1,.382.178l-.2.2-.367-.2c.063-.063.141-.188.187-.178m-2.357,7.683a.216.216,0,0,1-.014-.19.615.615,0,0,1,.936-.013c.033.044.013.127.018.191a.623.623,0,0,1-.94.011m.664,7.5-.2-.2a1.786,1.786,0,0,1,.382-.178c.047-.011.124.116.187.178l-.367.2m-.015-6.289c-.046.011-.124-.115-.187-.178a1.825,1.825,0,0,1,.382-.178c.047-.01.124.116.187.178a1.768,1.768,0,0,1-.382.178m.491,3.324c-.085-.321.194-.394.477-.369.151.063.312.121.46.2.024.012.019.141-.014.185-.212.285-.84.292-.923-.016M5.4,168.976c-.054.284-.2.507-.546.438a.531.531,0,0,1-.582-.7.474.474,0,0,1,.557-.446c.43.033.654.264.57.708M9.1,171.693a1.768,1.768,0,0,1-.178-.382c-.011-.046.115-.124.178-.187a1.786,1.786,0,0,1,.178.382c.011.047-.115.124-.178.187m1.139,1.139-.2-.367.2-.2a1.786,1.786,0,0,1,.178.382c.011.047-.115.124-.178.187m1.611-2.954c-.046.011-.124-.115-.187-.178l.367-.2.2.2a1.786,1.786,0,0,1-.382.178m1.806-5.588a1.78,1.78,0,0,1-.178-.382c-.011-.047.115-.124.178-.188l.2.367-.2.2m.487,2.2-.2-.2a1.786,1.786,0,0,1,.382-.178c.047-.01.124.115.187.178l-.367.2" transform="translate(0 -28.692)" fill="#e7e3dd"/>
      <path id="Path_21123" data-name="Path 21123" d="M19.452,176.978a.8.8,0,0,1,.2.211h.264v-.727a1.241,1.241,0,0,0-.483.111c-.232.139-.213.246.024.405" transform="translate(-3.592 -32.903)" fill="#e7e3dd"/>
      <path id="Path_21124" data-name="Path 21124" d="M51.647,170.766c-.5,0-.633-.358-.688-1.761l-.055-1.927c-.137-2.339-.687-3.054-2.834-3.632a6.317,6.317,0,0,0,2.559-1.211,3.857,3.857,0,0,0,1.308-2.39,2.4,2.4,0,0,1-.388-.068.3.3,0,0,1-.185-.192c-.009-.054.094-.165.166-.188.146-.047.311-.076.465-.114,0-.08.011-.158.011-.241a4.2,4.2,0,0,0-1.513-3.384c-.991-.77-2.422-1.1-4.651-1.1H35.63v2.257h.853c.045,0,.077,0,.119,0,.04-.094.087-.185.134-.274.012-.024.142-.02.184.013a3.9,3.9,0,0,1,.347.312c.554.127.647.533.647,1.628v10.486c0,1.486-.164,1.706-1.431,1.678H35.63v2.257h3.951c-.083-.07-.168-.137-.252-.207.508-.546,1.036-.323,1.539-.251-.011-.14.019-.291,0-.43.037-.258-.113-.566.191-.752a.2.2,0,0,1,.189,0,1.5,1.5,0,0,1,0,1.5.2.2,0,0,1-.189,0c-.03-.018-.038-.042-.059-.062-.06.066-.121.132-.183.2h4.033v-2.257H43.831c-1.267.028-1.432-.192-1.432-1.678v-4.6h2.175c1.541-.082,2.311.8,2.367,2.725l.028,1.843c.028,1.926.22,2.669.826,3.357a3.621,3.621,0,0,0,2.725,1.156,3.353,3.353,0,0,0,3.357-2.284,5.191,5.191,0,0,0,.253-1.284,2.49,2.49,0,0,1-.9.685c-.061-.066-.176-.134-.173-.2.01-.256-.139-.6.185-.728a1.783,1.783,0,0,1,.74-.022c.055,0,.124.075.156.136.037-.483.055-1.107.068-2.03H52.445c-.028,2.559-.165,3.028-.8,3.028M37.388,171.82a1.786,1.786,0,0,1-.178-.382c-.011-.047.115-.124.178-.187l.2.367-.2.2m1.791-17,.2.2A1.785,1.785,0,0,1,39,155.2c-.046.011-.124-.115-.187-.178l.367-.2m-.652,1.057.286.432a4.063,4.063,0,0,1-.1.51c-.025.078-.123.132-.188.2a2.883,2.883,0,0,1-.265-.709c-.015-.132.17-.286.265-.43m0,6.834a1.785,1.785,0,0,1-.178-.382c-.011-.047.115-.124.178-.187l.2.367-.2.2m.66,7.882c-.065,0-.147.015-.191-.018a.615.615,0,0,1,.013-.936.212.212,0,0,1,.189.014.623.623,0,0,1-.011.94M41,170.479c-.149.08-.308.137-.46.2-.283.025-.562-.048-.476-.369s.709-.3.922-.016c.033.044.037.172.014.185m9.588-12.79c.046-.011.124.115.187.178l-.367.2-.2-.2a1.747,1.747,0,0,1,.382-.178m-.667,1.6.2.2-.2.367c-.063-.063-.189-.141-.178-.187a1.768,1.768,0,0,1,.178-.382m-2.847-2.847c.063.063.189.14.178.187a1.786,1.786,0,0,1-.178.382l-.2-.2.2-.367m.271,5.346c-.043.123-.208.2-.32.3a1.451,1.451,0,0,1-.223-.434.805.805,0,0,1,.065-.364,1.667,1.667,0,0,1-.28.338c-.522.44-1.128.55-2.834.55H42.4v-5.367h1.459c1.9,0,2.23.055,2.752.578a2.76,2.76,0,0,1,.716,2.064,3.6,3.6,0,0,1-.347,1.62A.356.356,0,0,1,47.09,161c.261-.1.352,0,.264.26a1.631,1.631,0,0,1-.014.525m.031-1.058c.02-.119.249-.276.393-.287a6.014,6.014,0,0,1,1.06.04c.069.007.19.165.182.177-.088.122-.184.3-.3.324a4.72,4.72,0,0,1-.828.015c-.138-.133-.592.277-.5-.268M49.445,170a1.826,1.826,0,0,1-.382-.178l.2-.2.367.2c-.063.063-.14.189-.187.178m1.041-3.88a1.786,1.786,0,0,1-.178-.382c-.011-.047.115-.124.178-.187l.2.367-.2.2" transform="translate(-6.644 -28.818)" fill="#e7e3dd"/>
      <path id="Path_21125" data-name="Path 21125" d="M80.638,170.655H79.73v2.257h8.834v-2.257h-.605c-1.184.027-1.377-.165-1.954-1.844l-4.4-14.256h-4.21l-.964,3.134.1.1-.2.367-.028-.025L73.1,168.509c.218.24.618.218,1.031.194-.13.712-.809.979-1.2,1.481-.292.373-.428.093-.477-.116a1.636,1.636,0,0,1-1.284.587h-.826v2.257h7.431v-2.257H76.73c-.936,0-1.238-.165-1.238-.716a3.361,3.361,0,0,1,.164-.936l.633-1.982h5.037l.605,1.9a3.609,3.609,0,0,1,.193.909c0,.661-.3.826-1.486.826m5.934,1.164.2.2-.2.367c-.063-.063-.189-.14-.178-.187a1.8,1.8,0,0,1,.178-.382m-6.834-13.1.2.368-.2.2a1.792,1.792,0,0,1-.178-.383c-.011-.046.115-.124.178-.187m-5.048,9.562a.713.713,0,0,1-.291.408c-.251.133-.3.017-.279-.262.041-.543-.006-1.094.028-1.638.007-.112.2-.219.322-.31.011-.007.171.114.178.185.038.356.049.715.054.8a3.875,3.875,0,0,1-.011.818m.967-1.965a.216.216,0,0,1-.19.014.615.615,0,0,1-.013-.936c.044-.033.127-.013.191-.018a.623.623,0,0,1,.011.94m.379-2.755.432-.286.707.286a2.881,2.881,0,0,1-.709.264c-.132.015-.286-.17-.43-.264m.941,1.175,1.817-5.917,1.294,4.154a.471.471,0,0,1,.118-.159c.044-.033.126-.013.191-.018a.623.623,0,0,1,.011.94.163.163,0,0,1-.075.024l.3.975Zm7.28,3.1a2.072,2.072,0,0,1,.275.324c-.066.066-.159.187-.181.176a1.125,1.125,0,0,1-.335-.259.17.17,0,0,1,.241-.241m-.763-.908c.024-.075.16-.19.175-.18.123.081.3.172.325.288a3.439,3.439,0,0,1,0,.792.514.514,0,0,1-.244,0,.684.684,0,0,1-.26-.9m-.047,5.208a2.03,2.03,0,0,1,.324-.274c.066.066.187.159.176.18a1.139,1.139,0,0,1-.259.335.17.17,0,0,1-.241-.241m-.257.255a.25.25,0,0,1,.241,0c.042.042.009.16.009.245-.112.088-.282.273-.328.246-.343-.2-.109-.363.078-.495m-.7-12.428a1.783,1.783,0,0,1,.382.177l-.2.2-.367-.2c.063-.063.141-.188.187-.177m-.374,4.342a1.786,1.786,0,0,1-.382-.178l.2-.2.367.2c-.063.063-.141.189-.187.178" transform="translate(-13.117 -28.818)" fill="#e7e3dd"/>
      <path id="Path_21126" data-name="Path 21126" d="M124.357,156.812v-2.257H122.3c0,.047-.116.12-.176.181-.033-.061-.067-.12-.1-.181h-.8a.888.888,0,0,1-.039.773.381.381,0,0,1-.191.171c-.26.1-.34.008-.267-.261.061-.225.091-.456.146-.683h-.842a.515.515,0,0,1-.466.181.773.773,0,0,1,.02-.181h-2.9v2.257h1.045c1.321-.027,1.486.193,1.486,1.679v9.165l-6.687-13.1H105.23v2.257H106c1.294-.027,1.459.193,1.459,1.679v7.629c.1,0,.192,0,.287-.006.549-.037.2.365.263.552a.437.437,0,0,1-.382.578c-.057.01-.112.015-.168.021v1.711c0,1.486-.165,1.706-1.459,1.678h-.77v2.257h7.761v-2.257h-1.046c-1.321.028-1.486-.192-1.486-1.678v-10.43l7.293,14.365h2.71c.1-.118.22-.224.331-.334.063-.062.129-.122.193-.182.094.143.251.28.268.432,0,.033,0,.055,0,.085h.957v-9.075c-.181,0-.363,0-.543-.009-.068,0-.2-.137-.189-.178.038-.135.118-.356.2-.366a4.812,4.812,0,0,1,.531-.022v-.571a1.984,1.984,0,0,1-.21-.585c-.012-.111.112-.235.21-.357v-3.257c0-1.486.164-1.706,1.459-1.679Zm-18.752-.937c-.063-.063-.189-.14-.178-.187a1.767,1.767,0,0,1,.178-.382l.2.2-.2.367m2.945,5.8c.046-.011.124.115.187.178l-.367.2-.2-.2a1.786,1.786,0,0,1,.382-.178m-.309,6.22a1.786,1.786,0,0,1-.178-.382c-.011-.047.115-.124.178-.187a1.767,1.767,0,0,1,.178.382c.011.046-.115.124-.178.187m.879-4.155a1.785,1.785,0,0,1-.382-.178l.2-.2.367.2c-.063.063-.141.189-.187.178m8.445,3.523a1.786,1.786,0,0,1-.178-.382c-.011-.046.115-.124.178-.187l.2.367-.2.2m.569,4.147a1.8,1.8,0,0,1-.178-.382c-.011-.047.115-.124.178-.187l.2.367-.2.2m1.424-16.421c-.112.088-.282.274-.328.247-.343-.2-.109-.363.078-.5a.25.25,0,0,1,.241,0c.042.042.009.16.009.245" transform="translate(-19.621 -28.818)" fill="#e7e3dd"/>
      <path id="Path_21127" data-name="Path 21127" d="M143.663,172.445c.317-.085.392.188.369.467h6.932c3.358,0,5.312-.578,6.908-2.009,1.789-1.569,2.67-3.99,2.67-7.184s-.881-5.613-2.67-7.183c-1.6-1.431-3.549-1.982-6.908-1.982h-6.426l-.146.265c-.063-.063-.188-.141-.178-.187a.7.7,0,0,1,.031-.078H143.11l.014.01c-.144.094-.3.279-.43.265a1.6,1.6,0,0,1-.482-.164v2.118h.822a.678.678,0,0,1,.177-.713c.044-.033.172-.037.185-.014.079.149.137.308.2.46a.8.8,0,0,1-.026.285c.748.072.871.432.871,1.689v5.928l.2.2-.2.362v3.968c0,1.514-.165,1.734-1.4,1.706h-.826v2.257h1.224c-.014-.214.057-.422.225-.467m14.4-8.6.2.367-.2.2a1.786,1.786,0,0,1-.178-.382c-.01-.046.115-.124.178-.187m-14.641-8.7-.2-.367.2-.2a1.807,1.807,0,0,1,.178.382c.01.047-.116.124-.178.187m13.794,7.315a2.036,2.036,0,0,1,.324-.275c.066.066.187.159.176.18a1.129,1.129,0,0,1-.259.336.17.17,0,0,1-.241-.241m-.257.255a.248.248,0,0,1,.241,0c.042.042.009.16.009.245-.112.088-.282.274-.328.247-.343-.2-.109-.363.078-.495m-.872,4.864c.01-.088.225-.172.36-.215.041-.013.172.112.183.185a3.707,3.707,0,0,1,.009.555,1.664,1.664,0,0,1-.015.549c-.04.107-.227.176-.361.218-.041.013-.181-.116-.184-.185a6.994,6.994,0,0,1,.008-1.108m-.969,3c-.046.01-.124-.115-.187-.178l.367-.2.2.2a1.768,1.768,0,0,1-.382.178m-1.041-15.269.2.2-.2.367c-.063-.063-.188-.14-.178-.187a1.767,1.767,0,0,1,.178-.382m.082,1.221.2.2a1.728,1.728,0,0,1-.382.177c-.046.011-.124-.114-.187-.177l.367-.2m-5.227.286h1.982a3.742,3.742,0,0,1,3.577,1.761,14.648,14.648,0,0,1,.021,10.25.456.456,0,0,1,.1.209c.057.491-.107.675-.547.7l-.2-.076a4.338,4.338,0,0,1-2.949.971h-1.982Zm-2.5,11.491a2.918,2.918,0,0,1,.265.709c.015.132-.17.286-.265.43-.1-.145-.28-.3-.265-.43a2.851,2.851,0,0,1,.265-.709m-1.214-1.128c.006-.069.12-.129.206-.216.251.262.514.513.738.8.032.041-.126.335-.208.341-.251.018-.6.15-.724-.181a1.779,1.779,0,0,1-.011-.74M144.961,161l.2.2-.2.367c-.063-.063-.188-.14-.178-.187a1.768,1.768,0,0,1,.178-.382m-.331,10.988.2.367-.2.2a1.787,1.787,0,0,1-.178-.382c-.011-.047.115-.124.178-.187" transform="translate(-26.517 -28.818)" fill="#e7e3dd"/>
      <path id="Path_21128" data-name="Path 21128" d="M199.884,161.822h2.036c.22-3.881,1.156-5.01,4.183-5.01h2.973l-5.042,7.157.071-.039.2.2a1.779,1.779,0,0,1-.382.178c-.024,0-.055-.024-.088-.062l-4.476,6.352v2.311H213.81v-7.87h-2.2c-.023.46-.054.875-.09,1.265.064.033.128.071.193.1l-.2.2-.019-.01c-.35,3.156-1.326,3.984-4.2,4.08H204.15l9.66-13.6v-2.533H199.884Zm10.971,9.429.2.367-.2.2a1.783,1.783,0,0,1-.177-.382c-.011-.047.115-.124.177-.187m-1.611,1.246c.047-.011.124.115.187.178a1.781,1.781,0,0,1-.382.178c-.047.011-.124-.115-.188-.178a1.8,1.8,0,0,1,.382-.178m-8.666-1.256a.741.741,0,0,1-.537,0c-.307-.157-.238-.372,0-.569.14-.116.258-.258.39-.383a2.366,2.366,0,0,1,.193-.152,1.021,1.021,0,0,1,.19.2.659.659,0,0,1-.238.912m2.207-.665c-.047.011-.124-.115-.188-.178l.367-.2.2.2a1.78,1.78,0,0,1-.382.178m.952-4.765c-.113.088-.283.274-.329.247-.342-.2-.108-.363.079-.495a.246.246,0,0,1,.24,0c.042.042.009.16.01.245m.247-.261a.17.17,0,0,1-.241-.241,2.042,2.042,0,0,1,.325-.275c.066.066.186.159.175.181a1.136,1.136,0,0,1-.259.335m6.788-6.175.367.2c-.063.063-.14.189-.187.178a1.8,1.8,0,0,1-.382-.178l.2-.2m-2.765-3.5c.063.063.189.14.178.187a1.747,1.747,0,0,1-.178.382l-.2-.2.2-.367m-6.935.678c.044-.033.172-.037.185-.014.079.149.137.308.2.46.025.283-.049.562-.369.476s-.3-.709-.015-.922" transform="translate(-37.173 -28.818)" fill="#e7e3dd"/>
      <path id="Path_21129" data-name="Path 21129" d="M273.993,159.658l-.367-.2c.063-.063.14-.188.187-.177a1.227,1.227,0,0,1,.311.139,8.408,8.408,0,0,0-3.708-4.335c-.171.3-.217.673-.392.973-.019.032-.138.04-.185.014-.077-.043-.186-.122-.19-.19a4,4,0,0,1,.011-1.1.393.393,0,0,1,.029-.059,9.764,9.764,0,0,0-3.981-.809c-5.477,0-9.165,3.908-9.165,9.688,0,5.752,3.688,9.715,9.027,9.715,5.642,0,9.3-3.826,9.3-9.743a11.351,11.351,0,0,0-.717-4.077l-.164.164m-16.674,1.7c-.012.024-.14.019-.184-.014-.286-.212-.293-.84.015-.923s.394.194.369.476c-.063.151-.12.312-.2.46m10.9-6.33.2.367-.2.2a1.785,1.785,0,0,1-.178-.382c-.011-.047.115-.124.178-.187m-1.708.159.2.2-.2.368c-.063-.063-.189-.141-.178-.187a1.793,1.793,0,0,1,.178-.383m-3.417-.569.2.367-.2.2a1.78,1.78,0,0,1-.178-.382c-.011-.047.115-.124.178-.187m-2.376,16.243c-.047.011-.124-.115-.187-.178a1.764,1.764,0,0,1,.382-.177c.046-.011.124.115.187.177a1.786,1.786,0,0,1-.382.178m0-6.669c-.047.011-.124-.115-.187-.177a1.729,1.729,0,0,1,.382-.178c.046-.011.124.115.187.178a1.743,1.743,0,0,1-.382.177m1.431,5.607a.623.623,0,0,1-.94.011.212.212,0,0,1-.014-.189.615.615,0,0,1,.936-.014c.033.044.013.127.018.191m7.209-.375-.2-.2.2-.366c.063.063.189.14.178.187a1.781,1.781,0,0,1-.178.382m-3.646,1.472c-2.532,0-4.046-2.7-4.046-7.238a11.025,11.025,0,0,1,.991-5.256,3.434,3.434,0,0,1,3.11-2.092,3.5,3.5,0,0,1,3,2.092,10.76,10.76,0,0,1,.991,5.229c0,4.569-1.486,7.266-4.046,7.266" transform="translate(-47.835 -28.698)" fill="#e7e3dd"/>
      <path id="Path_21130" data-name="Path 21130" d="M304.367,156.812h1.045c1.321-.027,1.486.193,1.486,1.679v9.165l-6.687-13.1h-7.293v2.257h.77a2.57,2.57,0,0,1,.948.1.472.472,0,0,1,.206-.373.212.212,0,0,1,.189.014.624.624,0,0,1,.032.892,4.5,4.5,0,0,1,.085,1.047v9.475l.032-.057c.063.063.189.14.178.187a1.8,1.8,0,0,1-.178.382l-.032-.032v.53c0,1.486-.165,1.706-1.459,1.678h-.77v2.257h7.761v-2.257h-1.046c-1.321.028-1.486-.192-1.486-1.678v-10.43l7.293,14.365H309.9v-5.652l-.163,0a3.636,3.636,0,0,1-.549-.007c-.073-.011-.134-.112-.3-.266.332-.342.669-.681,1.016-1.009v-2.866l-.163.163a1.786,1.786,0,0,1-.178-.382c-.011-.047.115-.124.178-.187l.163.294v-4.512c0-1.486.164-1.706,1.458-1.679h.688v-2.257h-7.678Zm-5.451,14.114a1.768,1.768,0,0,1,.178.382c.011.046-.115.124-.178.187a1.807,1.807,0,0,1-.178-.382c-.011-.047.115-.124.178-.187m-3.085-.251-.368-.2c.063-.063.141-.189.187-.178a1.769,1.769,0,0,1,.382.178l-.2.2m1.625-.487c-.063-.063-.188-.141-.178-.187a1.833,1.833,0,0,1,.178-.383l.2.2-.2.367M301.194,161l-.2-.2.2-.367c.063.063.189.14.178.187a1.785,1.785,0,0,1-.178.382m2.278,1.708a1.784,1.784,0,0,1-.178-.382c-.011-.047.115-.124.178-.187l.2.367-.2.2m1.139,7.563a1.775,1.775,0,0,1-.178-.383c-.011-.046.115-.123.178-.187l.2.368-.2.2m.6-4.716c-.088-.112-.274-.282-.247-.329.2-.342.363-.108.495.079a.25.25,0,0,1,0,.241c-.042.042-.16.009-.245.009m.6.507a1.152,1.152,0,0,1-.335-.259.17.17,0,0,1,.241-.241,2.036,2.036,0,0,1,.275.324c-.066.066-.159.187-.181.176m3.929-10.188.2.367-.2.2a1.786,1.786,0,0,1-.178-.382c-.011-.047.115-.124.178-.187m-1.708-1.139.2.367-.2.2a1.786,1.786,0,0,1-.178-.382c-.011-.047.115-.124.178-.187" transform="translate(-54.618 -28.818)" fill="#e7e3dd"/>
      <path id="Path_21131" data-name="Path 21131" d="M53.835,204.955c-.063-.064-.126-.127-.2-.2l.192-.35-1.99-9.105h-1.4l-1.136,5.2.008-.007.2.367-.2.2c-.029-.059-.063-.116-.093-.173l-1.208,5.528H49.6l.524-2.382h2.032l.524,2.382h1.588l-.351-1.6c-.026.048-.054.1-.079.146m-3.377-8.275.2.2-.2.367c-.063-.063-.189-.141-.178-.187a1.786,1.786,0,0,1,.178-.382m1.5,5.937H50.279l.826-4.223.678,3.336.1-.186c.063.063.188.141.178.188a1.78,1.78,0,0,1-.178.382l-.031-.031Z" transform="translate(-8.952 -36.415)" fill="#dc7644"/>
      <path id="Path_21132" data-name="Path 21132" d="M64.011,196.805H65.98v8.971a.721.721,0,0,1,.146-.058c.046-.01.124.116.187.178a2.443,2.443,0,0,1-.334.159v.356h1.588v-6.485a1.035,1.035,0,0,1-.259-.21.17.17,0,0,1,.241-.241c.007,0,.011.013.018.019v-2.689h1.969V195.3H64.011Zm.958-.954a1.768,1.768,0,0,1,.178.382c.011.046-.115.124-.178.187l-.2-.367.2-.2" transform="translate(-11.936 -36.415)" fill="#dc7644"/>
      <path id="Path_21133" data-name="Path 21133" d="M93.695,196.805h1.97v8.8c.06,0,.128,0,.19,0,.144.078.419.178.41.233a.39.39,0,0,1-.534.325.215.215,0,0,0-.066,0v.246h1.588v-5.26a.169.169,0,0,1-.234-.242,1.244,1.244,0,0,1,.234-.207v-3.9h1.968V195.3H93.695Zm4.634-1.444.2.2-.2.367c-.063-.063-.189-.14-.178-.187a1.768,1.768,0,0,1,.178-.382M96.7,204.555l.2.2a1.786,1.786,0,0,1-.382.178c-.046.01-.124-.115-.187-.178l.367-.2" transform="translate(-17.47 -36.415)" fill="#dc7644"/>
      <path id="Path_21134" data-name="Path 21134" d="M115.379,200.949a2.041,2.041,0,0,0,.453-.5,2.384,2.384,0,0,0,.294-.666,3.149,3.149,0,0,0,.1-.834v-.794a4.089,4.089,0,0,0-.128-1.08,2.512,2.512,0,0,0-.349-.778,1.889,1.889,0,0,0-.516-.508,2.847,2.847,0,0,0-.612-.3,3.076,3.076,0,0,0-.651-.151,5.48,5.48,0,0,0-.635-.04h-2.508v11.115h1.588v-4.795h.936l1.54,4.795h1.651l-1.747-5.129a2.321,2.321,0,0,0,.579-.334m-.21-1.254a1.786,1.786,0,0,1,.382.178l-.2.2-.367-.2c.063-.063.141-.189.187-.178m-3.867,3.532a1.747,1.747,0,0,1-.382-.178l.2-.2.367.2c-.063.063-.14.189-.187.178m3.339-4.247a1.18,1.18,0,0,1-.119.548,1.124,1.124,0,0,1-.3.373,1.274,1.274,0,0,1-.421.215,1.658,1.658,0,0,1-.476.071h-.9v-3.461h1.048a1.451,1.451,0,0,1,.429.063.946.946,0,0,1,.373.222,1.189,1.189,0,0,1,.269.405,1.579,1.579,0,0,1,.1.611Z" transform="translate(-20.666 -36.415)" fill="#dc7644"/>
      <path id="Path_21135" data-name="Path 21135" d="M129.885,201.505h2.763v-1.429h-2.073a.049.049,0,0,1,.011.028,1.786,1.786,0,0,1-.178.382l-.2-.2.115-.208h-.434v-3.271h3.128V195.3H128.3v11.115h4.763V204.9h-3.176Zm1.657-5.815a.246.246,0,0,1,.24,0c.042.042.01.16.01.245-.112.087-.282.273-.329.247-.342-.2-.108-.363.079-.495m-2.192,6.045-.367-.2c.063-.063.141-.188.187-.178a1.767,1.767,0,0,1,.382.178l-.2.2" transform="translate(-23.922 -36.415)" fill="#dc7644"/>
      <path id="Path_21136" data-name="Path 21136" d="M146.376,201.505h2.763v-1.429h-2.763v-3.27H149.5V195.3h-1.56a1.106,1.106,0,0,1,.041.2c0,.141-.172.287-.267.431a1.458,1.458,0,0,1-.273-.434.834.834,0,0,1-.018-.2h-2.639v7.551l.083-.084a1.787,1.787,0,0,1,.178.382c.011.047-.115.124-.178.187-.028-.05-.055-.1-.083-.151v3.227h4.763V204.9h-3.176Zm-.528-2.162c-.063-.063-.189-.14-.178-.187a1.786,1.786,0,0,1,.178-.382l.2.2-.2.367" transform="translate(-26.997 -36.415)" fill="#dc7644"/>
      <path id="Path_21137" data-name="Path 21137" d="M166.116,204.078c.063-.063.14-.188.187-.178a.823.823,0,0,1,.2.08,5.751,5.751,0,0,0,.041-.637v-.382a6.078,6.078,0,0,0-.08-1,2.188,2.188,0,0,0-.4-.921,2.087,2.087,0,0,0-.7-.627,5.71,5.71,0,0,0-.746-.325l-.969-.349c-.116-.053-.247-.114-.389-.183a.8.8,0,0,1-.342-.309,1.279,1.279,0,0,1-.207-.58,4.571,4.571,0,0,1-.047-.579,3.34,3.34,0,0,1,.055-.58,1.061,1.061,0,0,1,.278-.548.89.89,0,0,1,.4-.246,1.458,1.458,0,0,1,.381-.056,1.029,1.029,0,0,1,.54.119,1.377,1.377,0,0,1,.3.246,1.077,1.077,0,0,1,.229.54,3.792,3.792,0,0,1,.04.476v.3h1.588v-.365a3.632,3.632,0,0,0-.191-1.231,2.669,2.669,0,0,0-.187-.4c-.01.014-.024.021-.034.036s-.339-.122-.344-.2c-.007-.116-.037-.258-.038-.389a2.32,2.32,0,0,0-.77-.5,2.949,2.949,0,0,0-1.087-.19,3.47,3.47,0,0,0-1.041.151,2.22,2.22,0,0,0-.881.532,2.748,2.748,0,0,0-.587.849,2.879,2.879,0,0,0-.238,1.215v.317q0,.414.032.826a2.3,2.3,0,0,0,.207.794,1.779,1.779,0,0,0,.635.818,4.026,4.026,0,0,0,.825.421l1.159.412q.127.049.365.159a1,1,0,0,1,.4.334,1.226,1.226,0,0,1,.207.539,4.085,4.085,0,0,1,.047.6v.413a4.38,4.38,0,0,1-.04.563,1.057,1.057,0,0,1-.214.532,1.119,1.119,0,0,1-.317.262,1.346,1.346,0,0,1-.683.135,2.047,2.047,0,0,1-.412-.055.829.829,0,0,1-.46-.31,1.034,1.034,0,0,1-.214-.508c-.007-.053-.011-.1-.017-.146a.662.662,0,0,1-.128.05c-.046.011-.124-.116-.187-.178l.294-.162c0-.013,0-.029,0-.041v-.3h-1.588v.365c0,.032,0,.117.008.254a3.4,3.4,0,0,0,.056.477,3.943,3.943,0,0,0,.151.579,1.958,1.958,0,0,0,.294.564,2.312,2.312,0,0,0,.818.674,2.955,2.955,0,0,0,1.4.295,3.324,3.324,0,0,0,1.223-.207,2.432,2.432,0,0,0,.841-.524,2.59,2.59,0,0,0,.556-.984,3.888,3.888,0,0,0,.125-.549l-.347-.192m-3.5,1.985-.2-.2a1.786,1.786,0,0,1,.382-.178c.046-.01.124.115.187.178l-.367.2" transform="translate(-30.018 -36.379)" fill="#dc7644"/>
      <path id="Path_21138" data-name="Path 21138" d="M197.695,206.412l-1.747-5.129a2.321,2.321,0,0,0,.579-.334,2.041,2.041,0,0,0,.453-.5,2.384,2.384,0,0,0,.294-.666,3.15,3.15,0,0,0,.1-.834v-.794a4.089,4.089,0,0,0-.128-1.08,2.512,2.512,0,0,0-.349-.778,1.889,1.889,0,0,0-.516-.508,2.847,2.847,0,0,0-.612-.3,3.076,3.076,0,0,0-.651-.151,5.48,5.48,0,0,0-.635-.04h-2.508v11.115h1.588v-4.795h.936l.6,1.874c.015-.014.02-.037.037-.049.044-.033.127-.013.191-.018a.618.618,0,0,1,.041.9l.67,2.086Zm-1.313-10.481c.063.063.189.141.178.187a1.792,1.792,0,0,1-.178.383l-.2-.2.2-.368m-.1,1.246a1.764,1.764,0,0,1,.382.177l-.2.2-.367-.2c.063-.063.141-.188.187-.177m-3.889,5.587a1.779,1.779,0,0,1-.178-.382c-.01-.047.115-.124.178-.187a1.781,1.781,0,0,1,.178.382c.011.047-.115.124-.178.187m1.743-7.258a.25.25,0,0,1,.241,0c.042.042.009.16.009.245-.112.088-.282.274-.328.247-.342-.2-.109-.363.078-.5m1.651,3.475a1.18,1.18,0,0,1-.119.548,1.124,1.124,0,0,1-.3.373,1.274,1.274,0,0,1-.421.215,1.658,1.658,0,0,1-.476.071h-.9v-3.461h1.048a1.451,1.451,0,0,1,.429.063.946.946,0,0,1,.373.222,1.188,1.188,0,0,1,.269.405,1.579,1.579,0,0,1,.1.611Z" transform="translate(-35.796 -36.415)" fill="#dc7644"/>
      <path id="Path_21139" data-name="Path 21139" d="M212.84,199.531a2.834,2.834,0,0,1-.265-.709c-.013-.113.119-.242.216-.367l-.69-3.159h-1.4l-1.573,7.2c.225,0,.29.23.268.477a4.949,4.949,0,0,1-.2.46c-.012.024-.14.019-.184-.014a.412.412,0,0,1-.069-.072l-.67,3.065h1.588l.524-2.382h2.032l.524,2.382h1.588l-1.56-7.134-.131.254M210.8,196.5l.2.367-.2.2a1.767,1.767,0,0,1-.178-.382c-.011-.046.115-.124.178-.187m-.255,6.116.826-4.223.857,4.223Z" transform="translate(-38.835 -36.415)" fill="#dc7644"/>
      <path id="Path_21140" data-name="Path 21140" d="M231.868,199.431c-.308-.082-.3-.71-.016-.923a.2.2,0,0,1,.088-.023V196.19a3.207,3.207,0,0,1-.15.311l-.2-.2.2-.367c.042.043.111.091.15.133V195.3h-1.588v6.986L227.7,195.3h-1.588v5.255a.466.466,0,0,1,.159.119c.033.043.013.126.018.191a.413.413,0,0,1-.177.153v5.4H227.7v-6.986l2.651,6.986h1.588v-6.98a.351.351,0,0,1-.072,0m-4.349,4.727c-.112.088-.283.274-.329.247-.342-.2-.108-.363.079-.495a.248.248,0,0,1,.24,0c.042.043.01.16.01.245m3.212-3.671-.2-.2.2-.367c.063.063.189.141.178.187a1.787,1.787,0,0,1-.178.382" transform="translate(-42.161 -36.415)" fill="#dc7644"/>
      <path id="Path_21141" data-name="Path 21141" d="M248.056,203.691a1.823,1.823,0,0,1-.081.62,1.2,1.2,0,0,1-.142.286.866.866,0,0,1-.382.286,1.35,1.35,0,0,1-.507.1.93.93,0,0,1-.533-.135.944.944,0,0,1-.277-.262.934.934,0,0,1-.182-.469,4.972,4.972,0,0,1-.024-.516v-5.478a4.348,4.348,0,0,1,.039-.571,1.063,1.063,0,0,1,.231-.524,1.271,1.271,0,0,1,.317-.255,1.007,1.007,0,0,1,.508-.111.874.874,0,0,1,.571.159,2.022,2.022,0,0,1,.255.238,1.051,1.051,0,0,1,.158.357,1.607,1.607,0,0,1,.049.373v.635h1.54v-.762a2.649,2.649,0,0,0-.207-1.063,2.482,2.482,0,0,0-.507-.779,2.442,2.442,0,0,0-.89-.532,2.952,2.952,0,0,0-1.976-.024,2.3,2.3,0,0,0-.866.492,2.171,2.171,0,0,0-.428.5,2.336,2.336,0,0,0-.246.548,2.633,2.633,0,0,0-.111.572q-.024.286-.024.556v5.763c0,.138,0,.289.008.452a3.507,3.507,0,0,0,.056.508,2.163,2.163,0,0,0,.167.524,2.361,2.361,0,0,0,.325.516,2.677,2.677,0,0,0,.531.43c-.065-.116-.129-.232-.191-.343l.2-.2a1.786,1.786,0,0,1,.178.382c.009.046-.1.118-.169.179.066.042.122.086.194.127a2.532,2.532,0,0,0,1.254.27,3.118,3.118,0,0,0,1.327-.238,2.531,2.531,0,0,0,.754-.508,2.445,2.445,0,0,0,.443-.714,3.234,3.234,0,0,0,.223-1.318v-.46h-1.587Zm.408-7.855c.046-.011.123.115.186.178a1.75,1.75,0,0,1-.382.178c-.047.011-.123-.115-.187-.178a1.754,1.754,0,0,1,.383-.178m-1.6,9.993c-.112.087-.282.273-.328.247-.342-.2-.109-.363.079-.495a.248.248,0,0,1,.24,0c.042.042.009.16.009.245m2.009-.805-.432.285-.706-.285a2.879,2.879,0,0,1,.709-.265c.133-.015.286.17.43.265" transform="translate(-45.56 -36.379)" fill="#dc7644"/>
      <path id="Path_21142" data-name="Path 21142" d="M266.8,196.278c-.011-.046.115-.124.178-.187.01.02.021.039.032.059V195.3h-1.588v4.779h-2.144V195.3h-1.587v6.745c.395.036.463.348.425.691a.436.436,0,0,1-.425.432v3.246h1.587v-4.906h2.144v4.906h1.588v-9.779l-.032.028a1.746,1.746,0,0,1-.178-.382m-4.636,9.9a1.746,1.746,0,0,1-.178-.382c-.011-.046.115-.124.178-.187a1.781,1.781,0,0,1,.177.382c.011.047-.115.124-.177.187m.1-6.346-.2-.2a1.786,1.786,0,0,1,.382-.178c.047-.011.124.115.187.178l-.367.2m3.6,3.962a1.786,1.786,0,0,1-.382-.178l.2-.2.367.2c-.063.063-.14.189-.187.178" transform="translate(-48.795 -36.415)" fill="#dc7644"/>
      <path id="Path_21143" data-name="Path 21143" d="M199.491,33.9c.107-.507.425-1.826.635-2.434s-.6-1.429-.689-2.244a3.494,3.494,0,0,0-1.2-2.249,29.311,29.311,0,0,1-3.532-2.687c-.5-.616-2.421-1.965-2.924-2.479a9.7,9.7,0,0,0-4.155-1.465,16.519,16.519,0,0,1-4.472-.147c-.81-.313-1.509-1.643-2.117-1.852s-1.1-1.944-1.2-2.249-1.2-2.045-1.5-2.659a6.532,6.532,0,0,1-.551-2.954c.14-.813-.931-1.332-1.734-2.357s-2.522-2.059-3.225-2.879a5.212,5.212,0,0,0-1.4-.931c0,.133.007.265.007.4a3.694,3.694,0,0,1-.009.554c-.011.074-.143.2-.184.185-.134-.042-.331-.113-.363-.216-.127-.409.163-.877-.177-1.277-.444-.209-.9-.408-1.3-.58a.768.768,0,0,1-.093.1.241.241,0,0,1-.238,0,.242.242,0,0,1,0-.238c-.4-.168-.726-.3-.9-.377A23.656,23.656,0,0,0,165.044,1.5a44.031,44.031,0,0,1-5.58-1.277A11.317,11.317,0,0,0,155.3.182c-.171.041-.7.06-1.352.107a1.274,1.274,0,0,1,.143.316c.01.047-.115.124-.178.188A1.786,1.786,0,0,1,153.73.41c-.007-.029.041-.071.092-.113a9.687,9.687,0,0,0-2.6.454c-1.225.5-2.844-.334-3.965-.04s-4.071.365-4.683.461a9.33,9.33,0,0,0-3.08,2.917,2.818,2.818,0,0,1-1.438,1.417c-.716.408-.212.8-.728,1.612s-2.046,1.2-2.455,1.5-1.035,1.718-1.652,2.424a3.415,3.415,0,0,0-.783,1.457,21.536,21.536,0,0,1-1.206,2.184c-.222.361-.193.693-.38.963.023.028.046.055.067.076a2.788,2.788,0,0,1-.323.155.943.943,0,0,1-.1.06c-.613.3-1.141,2.226-1.554,2.832a4.53,4.53,0,0,0-.425,2.195,1.24,1.24,0,0,1,.636.155c.111.071.133.323.145.494.024.331-.271.529-.434.3a.927.927,0,0,0-.395-.325c-.022.284-.048.588-.081.935a13.016,13.016,0,0,0-.029,2.847,7.159,7.159,0,0,0,.879,3.669,3.351,3.351,0,0,1,.49,1.835,15.448,15.448,0,0,0,.886,2.856,3.015,3.015,0,0,0,2.016.614,2.608,2.608,0,0,0,1.253-2.106c-.094-.713.312-.709.526-1.621a26.54,26.54,0,0,1,.852-3.855c.417-1.13.508-1.748.789-2.412,0-.216,0-.433,0-.649a10,10,0,0,1,.016-1.1c.01-.088.186-.169.317-.224a3.94,3.94,0,0,1-.028-1.97c.421-1.385,1.032-1.55,1.448-2.461a48.8,48.8,0,0,1,4.048-5.086,13.825,13.825,0,0,1,3.589-2.912c1.024-.7,1.03-1.311,1.439-1.511a26.552,26.552,0,0,0,3.27-1.7c.82-.6,1.939-.591,2.654-.972s2.131.41,3.253.117a10.42,10.42,0,0,1,4.164.55c.609.21,2.3,1.442,3.728,1.456s4.953,3,5.354,3.511,3.951,3.4,4.25,4.014,1.3,1.742,1.5,2.151a9.661,9.661,0,0,1,.966,1.517c.2.612-.925,1.007-1.024.7a14.455,14.455,0,0,0-2.589-1.94c-.505-.311-1.69-3.248-2.5-3.764s-2.707-2.2-3.111-2.508-2.049-.618-3.061-1.137a52.3,52.3,0,0,0-8.217-1.913c-1.726-.221-4.378.464-5.8.754s-1.332,1-1.746,1.711A11.988,11.988,0,0,1,145.4,13.5a24.62,24.62,0,0,0-3.087,3.528,21.763,21.763,0,0,0-1.249,2.834c-.267.456-.748,1.289-1.14,2.014l.025.025-.2.367-.022-.019c-.131.251-.243.476-.318.647a45.12,45.12,0,0,0-1.579,5.272c-.11.812.063,3.763-.044,4.372s.583,2.751.369,3.664.092,1.018.5,1.093,0,.438,1.322-.058,1.624.321,2.136.022.518-1.011,1.036-1.922a22.9,22.9,0,0,0,2.8-4.954c.734-2.23-.281-2.341.041-4.067a8.8,8.8,0,0,0,.03-2.948c.007-.61.717-.5,1.433-.9s.825-1.11,1.076-1.922a3.913,3.913,0,0,0,.085-2.3c-.191-1.187.107-.543.722-.943s1.225-.5,1.638-1.1a1.432,1.432,0,0,1,1.023-.7,10.6,10.6,0,0,0,1.734-.491c1.021-.4.918-.194,2.034.02a27.038,27.038,0,0,0,4.067.041,12.329,12.329,0,0,1,3.145.642c1.217.318,2.133.225,3.147.541a1.038,1.038,0,0,1,.7,1.328,1.426,1.426,0,0,0,.906.925c.71.211.5.818,1.1,1.944s.194.917.595,1.531c0,0-.928,1.312-1.233,1.309s-2.327-1.243-2.732-1.349a4.773,4.773,0,0,0-2.445.382,7.44,7.44,0,0,0-.423,1.623s1.625.22,2.133.225,1.321.116,1.727.12,1.113.622,1.113.622a3.752,3.752,0,0,1-1.634.593c-.711-.007-1.324.19-1.934.184s-1.334,1.207-1.334,1.207a2.467,2.467,0,0,0,.4,1.122c.3.308,1.32.217,2.031.224a14.915,14.915,0,0,1,2.234.328c.609.108,1.42.421,1.926.528s1.411,1.337,1.411,1.337l-.424,1.622s-.216,1.218-.333,2.742-.622,1.215-.831,1.721-.622,1.214-.83,1.619a26.311,26.311,0,0,0-1.467,4.256,18.347,18.347,0,0,1-.325,1.929c-.11.813-.922.7-1.433,1s-2.34.078-2.95.072-3.65-1.054-4.159-.957c-.329.062-2.1.024-3.313-.01l-.033.05c-.011-.017-.027-.035-.04-.052-.626-.018-1.089-.034-1.089-.034s-8.333-.491-8.641-.291-2.842-.537-3.552-.645a22.579,22.579,0,0,0-3.763.063,38.122,38.122,0,0,1-4.265-.552,4.276,4.276,0,0,0-1.42-.319c-.307.1-2.144.792-2.654.99s-4.364-.857-4.364-.857l-3.863-.039a11.323,11.323,0,0,0-1.72-.932c-.608-.21-2.74-.537-2.74-.537a15.6,15.6,0,0,1-3.435-2.17c-1.006-1.028-3.15-.235-3.458.067s-.924.905-1.336,1.41,1,1.84,1.3,2.454,2.32,1.854,2.454,2.465a7.484,7.484,0,0,0,1.971,2.358c.6.515-.011,3.219-.117,3.727a5.59,5.59,0,0,1-.866,1.467s.534,2.223-.015,3.033a4.635,4.635,0,0,0-.535,2.537c0,.508.1.51.4,1.021s-.212.812-.426,1.928a16.7,16.7,0,0,0,.068,3.356,4.073,4.073,0,0,0,.286,1.935c.3.409-.478,2.131-.669,3.045a22.664,22.664,0,0,0-.293,3.758c.012,1.017.565,2.243.554,3.26s.074,2.746.074,2.746.288,1.732.386,2.14a10.186,10.186,0,0,1-.953,3.651c-.412.5-.024,2.338-.027,2.643a13.361,13.361,0,0,0,.582,2.751,6.272,6.272,0,0,0,1.11.927l2.437.228s1.833-.185,1.937-.489a6.618,6.618,0,0,0,.814-1.545,6.335,6.335,0,0,0,.133-1.6,8.227,8.227,0,0,1-.438-2.1,11.553,11.553,0,0,0-.493-2.195c0-.508.906-3.233.63-3.541s.19-1.218.093-1.626a15.248,15.248,0,0,1-.055-1.7c-.494-.031-.834.085-.807.714.006.142-.176.291-.27.438a4.136,4.136,0,0,1-.279-.441.7.7,0,0,1-.006-.275,2.787,2.787,0,0,1,.007-.553c.059-.286.2-.486.556-.446.264.03.54-.018.8.022a25.554,25.554,0,0,1,.1-2.74c.1-.3.4-3.062.4-3.062l.575-3.626a1.781,1.781,0,0,1,1.061.758c.353.6.351,1.66.91,1.818,1.115.316.946,1.609.946,1.609a25.562,25.562,0,0,1,.468,3.971,20.3,20.3,0,0,1-.535,2.638c-.21.709,1,1.23,1,1.23l-.007.61a23.624,23.624,0,0,1-.845,3.144,8.538,8.538,0,0,0-.323,1.827c-.007.61-.217,1.32-.231,2.743s-.023,2.236-.026,2.541-1.655,2.729-1.455,3.138a10.336,10.336,0,0,0,1.917,1.544l3.456.137a14.844,14.844,0,0,0,2.246-.892c.409-.3.419-1.216.421-1.521s-.382-2.445-.382-2.445l-.073-2.847s.735-2.23.943-2.736.74-2.738.845-3.144-.4-.918-.6-1.429a4.081,4.081,0,0,1-.082-1.933c.108-.609-.576-3.362-.565-4.378s.114-1.219.625-1.519.222-1.828.124-2.236-.784-2.856-.473-3.462.916-.093,2.035-.081.906.924,1.106,1.232a12.774,12.774,0,0,0,2.325,1.346,8.935,8.935,0,0,0,2.119,1.547,12.013,12.013,0,0,0,4.27.043c.814-.094,1.318.42,2.232.531a16.055,16.055,0,0,0,3.862.14c1.121-.191,4.67.76,5.178.765s1.429-.494,1.83.12,4.45,2.384,5.669,2.5a2.857,2.857,0,0,1,1.722.627s.6.922.19,1.324-.312.607-.624,1.315a20.356,20.356,0,0,0-.338,3.25,5.661,5.661,0,0,0,.385,2.14,2.935,2.935,0,0,1-.016,1.626,15.17,15.17,0,0,0-.737,2.535,6.33,6.33,0,0,1-1.046,3.028c-.41.3-1.472,1.176-1.581,1.887s-.7,2.7-.2,3.011,1.813,1.318,1.813,1.318l1.218.215s2.14-.486,2.548-.583a16.733,16.733,0,0,0,2.249-1.2c.511-.3.835-2.229.94-2.533a7.491,7.491,0,0,0-.286-1.935,10.22,10.22,0,0,1,.427-2.029c0-.305.85-3.373.853-3.678s.733-2.306.74-3.017.543-3.452.55-4.062a11.446,11.446,0,0,1,.027-2.643,6.621,6.621,0,0,0-.182-2.137c0-.407.313-.81.931-1.516s.809.517,1.113.519a7.306,7.306,0,0,1,1.419.523,11.732,11.732,0,0,1,.585,2.446,29.549,29.549,0,0,1-.549,4.054,11.225,11.225,0,0,0-.019,3.2c.068.59.172,1.677.182,2.657a.573.573,0,0,1,.436.2c.033.043.013.126.018.191a.525.525,0,0,1-.46.218c-.007.152-.015.3-.029.433-.064.638-.037,1.363-.1,2.2a9.967,9.967,0,0,1-.364,2.11,13.94,13.94,0,0,1-.863,2.256c-.315.912-1.186.856-1.294,1.464s-1.56,1.67-1.461,1.976a7.045,7.045,0,0,0,1.206,1.435,2.572,2.572,0,0,0,1.722.628c.306-.1,1.025.867,1.123,1.173a7.245,7.245,0,0,0,2.934,1.453,2.1,2.1,0,0,0,1.632-.491c.512-.3.635-2.435.74-2.84a11.6,11.6,0,0,0,.64-2.943c-.063-.473-.126-.905-.188-1.468-.059-.037-.072-.127-.031-.277v0c-.021-.21-.042-.438-.063-.694a4.827,4.827,0,0,1,.43-2.334,11.462,11.462,0,0,0,.506-2.272,28.152,28.152,0,0,0-.593-2.834c-.1-.408-.355-1.507-.548-2.527s.321-1.521.331-2.538.552-4.367.559-4.976.525-1.622.532-2.334-.582-2.751-.677-3.464-.182-2.137-.28-2.545.425-1.826.432-2.436a10.565,10.565,0,0,1,1.143-2.429c.208-.506-.191-1.222-.386-2.038s.443-3.656.657-4.569-.294-1.121-.294-1.121l-.993-2.349a8.827,8.827,0,0,1-1.1-2.248c-.094-.713,1.134-1.514,1.342-2.02a4.95,4.95,0,0,0,.025-2.441c-.2-.612-.272-3.358-.365-4.173s.919-.4,1.033-1.616,1.338-1.614,1.651-2.323-.18-2.341-.174-2.849a10.863,10.863,0,0,1-.074-2.746c.215-1.116,1.534-.8,2.247-.994a4.9,4.9,0,0,1,1.829.12,7.884,7.884,0,0,1,1.924.833,12.417,12.417,0,0,0,2.53,1.145,6.248,6.248,0,0,1,1.819,1.137c.505.31,1.424.015,1.933-.082s1.311,1.038,2.02,1.35a3.336,3.336,0,0,0,1.927.434c.713-.094,2.443-.28,2.55-.788M129.4,27.291c-.047.011-.124-.116-.187-.178l.367-.2.2.2a1.845,1.845,0,0,1-.382.178m1.139-9.681c-.047.01-.124-.116-.187-.178a1.78,1.78,0,0,1,.382-.178c.047-.011.124.115.188.178a1.8,1.8,0,0,1-.382.178m3.914,8.318c-.04.107-.227.176-.361.218-.041.012-.181-.116-.184-.185a7.1,7.1,0,0,1,.007-1.093.812.812,0,0,1-.642.019c-.075-.023-.19-.159-.18-.175.081-.122.172-.3.288-.325a3.485,3.485,0,0,1,.792,0,.507.507,0,0,1,0,.245.7.7,0,0,1-.068.076,1.671,1.671,0,0,1,.175-.067c.041-.013.172.111.183.185a3.694,3.694,0,0,1,.009.554,1.669,1.669,0,0,1-.015.55m.74-15.615-.2-.367.2-.2a1.764,1.764,0,0,1,.177.382c.011.046-.115.124-.177.187m20.728-6.451c-.047.011-.124-.115-.187-.178l.367-.2.2.2a1.71,1.71,0,0,1-.382.178m13.142.408c-.043.122-.209.2-.32.3a1.435,1.435,0,0,1-.224-.434,1.07,1.07,0,0,1,.1-.48.35.35,0,0,1,.189-.172c.26-.1.351,0,.264.261a1.66,1.66,0,0,1-.014.526m-29.8,29.877c-.325.188-.84.1-.912-.213-.05-.223.1-.491.161-.74a1.993,1.993,0,0,1,.383.187c.212.164.405.354.606.533a1.611,1.611,0,0,1-.238.233M144.3,18.286l-.2-.2.2-.367c.063.063.188.14.177.187a1.8,1.8,0,0,1-.177.382m9.159-6.192a.24.24,0,0,1-.238,0,.245.245,0,0,1,0-.239,2.074,2.074,0,0,1,.325-.274c.066.066.187.159.176.18a1.141,1.141,0,0,1-.26.335m2.145.958c-.308-.083-.3-.71-.016-.923.044-.033.172-.037.185-.014.079.148.137.308.2.46.025.282-.048.562-.369.477M169.45,25.03a1.487,1.487,0,0,1-.51.076,1.465,1.465,0,0,1-.434-.271,1.449,1.449,0,0,1,.434-.271,1.083,1.083,0,0,1,.508.083c.077.025.132.123.2.188l-.194.194M114.458,54.919c.046-.01.124.116.187.178a1.786,1.786,0,0,1-.382.178c-.047.011-.124-.115-.187-.178a1.808,1.808,0,0,1,.382-.178m-.611,22.158a.589.589,0,0,1,.346-.712,2.887,2.887,0,0,1,.194.714c0,.142-.172.288-.266.432a1.458,1.458,0,0,1-.273-.434m.926,9.452c-.013.024-.141.019-.185-.014-.286-.212-.292-.84.016-.923s.394.194.369.477c-.063.151-.121.311-.2.46M117.7,63.194c-.063-.063-.189-.14-.178-.187a1.78,1.78,0,0,1,.178-.382l.2.2-.2.366m2.114-19.282a1.765,1.765,0,0,1-.178-.382c-.011-.047.115-.124.178-.187l.2.367-.2.2m2.553,3.408c-.042.041-.159.009-.245.009-.087-.112-.273-.282-.247-.328.2-.343.363-.109.495.078a.25.25,0,0,1,0,.241m.294-2.838a1.747,1.747,0,0,1-.178-.382c-.011-.046.115-.124.178-.187a1.764,1.764,0,0,1,.177.382c.011.046-.115.124-.177.187m.808,19.482c-.112.088-.282.274-.328.247-.342-.2-.108-.363.079-.5a.251.251,0,0,1,.24,0c.042.042.009.16.009.245m.086,25.191a1.786,1.786,0,0,1-.178-.382c-.011-.047.115-.124.178-.187l.2.367-.2.2m3.459,4.271a2.916,2.916,0,0,1-.265-.709c-.015-.132.171-.286.265-.43l.33.5-.33.639m.349-22.2c-.142,0-.287-.172-.431-.267a1.465,1.465,0,0,1,.434-.273.589.589,0,0,1,.713.347,2.966,2.966,0,0,1-.715.194m.694-23.68c-.043.123-.209.2-.32.3a1.436,1.436,0,0,1-.224-.434,1.071,1.071,0,0,1,.1-.48.346.346,0,0,1,.189-.171c.26-.1.351,0,.264.26a1.654,1.654,0,0,1-.014.525m7.118,15.259a.39.39,0,0,1-.325-.535c.057-.181-.276-.6.251-.517.119.019.22.237.3.38.037.067.007.172.007.261-.078.145-.178.419-.233.411m.339,1.93-.2-.2.2-.367c.063.063.188.14.178.187a1.768,1.768,0,0,1-.178.382m2.523,5.214a1.742,1.742,0,0,1-.178-.382c-.011-.047.115-.124.178-.187a1.781,1.781,0,0,1,.178.382c.01.047-.116.124-.178.187m1.284-24.435c-.133.015-.286-.17-.43-.265.144-.1.3-.28.43-.265a2.884,2.884,0,0,1,.709.265,2.917,2.917,0,0,1-.709.265m5.744,22.853a.624.624,0,0,1-.941.011.216.216,0,0,1-.013-.19.615.615,0,0,1,.936-.013c.033.044.013.127.018.191m6.639-14.475a1.747,1.747,0,0,1-.178-.382c-.011-.046.115-.124.178-.187l.2.367-.2.2m5.208-2.533c-.013.024-.141.02-.185-.013-.286-.212-.292-.84.016-.923s.394.194.369.476c-.063.151-.121.312-.2.46M158.374,68c-.037.259.113.566-.191.752a.2.2,0,0,1-.189,0,1.5,1.5,0,0,1,0-1.5.205.205,0,0,1,.189,0c.3.185.154.494.191.753m.335,2.112-.33-.5.33-.639a2.884,2.884,0,0,1,.265.709c.015.132-.17.286-.265.43m2.774,10.927c.047-.011.124.115.188.178a1.8,1.8,0,0,1-.382.178c-.047.011-.124-.116-.187-.178a1.78,1.78,0,0,1,.382-.178m-.666,8.436c-.063-.063-.189-.141-.178-.187a1.768,1.768,0,0,1,.178-.382l.2.2-.2.367m.848-2.149c-.055.285-.2.5-.549.443-.09-.014-.2.033-.273-.008-.281-.164-.269-.326-.039-.575a2.836,2.836,0,0,0,.3-.7,3.536,3.536,0,0,1,.285-.426,4.056,4.056,0,0,1,.274.438.694.694,0,0,1,.007.273,2.968,2.968,0,0,1-.007.552m.713-.235a1.807,1.807,0,0,1-.382-.178l.2-.2.367.2c-.063.063-.141.189-.187.178M165.509,48.7c-.022.039-.168.006-.256.006.068-.443-.373-.554-.532-.845-.015-.027.227-.193.35-.294.466-.059.755.1.735.478a1.647,1.647,0,0,1-.3.656m.787-.807c-.308-.082-.3-.71-.016-.923.044-.033.172-.037.185-.014.079.149.137.309.2.46.025.282-.049.561-.369.476m3.064-6.261-.2-.367.2-.2a1.764,1.764,0,0,1,.177.382c.011.046-.115.124-.177.187m2.847,40.433-.2-.2.2-.367c.063.063.188.14.178.187a1.827,1.827,0,0,1-.178.382m1.139-57.433c-.063-.063-.189-.141-.178-.187a1.73,1.73,0,0,1,.178-.382l.2.2-.2.367m.569,34.654c-.063-.063-.189-.141-.178-.187a1.747,1.747,0,0,1,.178-.382l.2.2-.2.367m1.533,6.108a.381.381,0,0,1-.171-.191c-.1-.26-.008-.34.261-.267.241.065.491.094.732.157.044.011.062.117.092.18-.062.247-.524.315-.914.121m1.211,10.1c-.014-.133.171-.286.265-.43l.33.5-.33.639a2.9,2.9,0,0,1-.265-.709m.949,17.4c.042.042.01.16.01.245-.113.088-.283.274-.329.247-.342-.2-.108-.363.079-.495a.246.246,0,0,1,.24,0m-.229-4.518c.066.066.187.159.176.181a1.163,1.163,0,0,1-.26.335.17.17,0,0,1-.241-.241,2.079,2.079,0,0,1,.325-.275m-.031-15.321c.3.185.154.494.191.753-.037.259.113.566-.191.752a.2.2,0,0,1-.189,0,1.5,1.5,0,0,1,0-1.5.2.2,0,0,1,.189,0m.975-36.652a.615.615,0,0,1-.936-.014.214.214,0,0,1,.013-.189.623.623,0,0,1,.94.011c0,.065.015.147-.017.192m.068-.462a1.78,1.78,0,0,1-.178-.382c-.01-.047.116-.124.178-.187a1.78,1.78,0,0,1,.178.382c.011.047-.115.124-.178.187m3.969-14.272c-.047.01-.124-.116-.187-.178l.367-.2.2.2a1.845,1.845,0,0,1-.382.178m6.485,8.321a.24.24,0,0,1-.238,0,.243.243,0,0,1,0-.239,2.085,2.085,0,0,1,.325-.275c.066.066.187.159.175.181a1.136,1.136,0,0,1-.259.335m4.273-1.143c-.182-.057-.6.275-.517-.251.019-.119.237-.22.38-.3.067-.038.172-.007.261-.007.145.079.419.179.411.233a.39.39,0,0,1-.535.325m5.343,3.61a1.167,1.167,0,0,1-.336-.259.171.171,0,0,1,.242-.241,2.031,2.031,0,0,1,.274.324c-.066.066-.159.187-.18.176" transform="translate(-20.164 0)" fill="#e7e3dd"/>
      <path id="Path_21144" data-name="Path 21144" d="M234.742,169.086l.367.2.2-.2a1.747,1.747,0,0,0-.382-.178c-.047-.011-.124.115-.187.178" transform="translate(-43.77 -31.495)" fill="#e7e3dd"/>
      <path id="Path_21145" data-name="Path 21145" d="M235.568,165.464a1.786,1.786,0,0,0,.178.382l.2-.2-.2-.367c-.063.063-.189.14-.178.187" transform="translate(-43.924 -30.818)" fill="#e7e3dd"/>
      <path id="Path_21146" data-name="Path 21146" d="M235.574,166.164a1.785,1.785,0,0,0,.178.382c.063-.063.189-.141.178-.187a1.767,1.767,0,0,0-.178-.382c-.063.063-.189.14-.178.187" transform="translate(-43.925 -30.948)" fill="#e7e3dd"/>
      <path id="Path_21147" data-name="Path 21147" d="M239.031,161.667c-.286.212-.292.84.015.923s.395-.194.369-.477c-.063-.151-.121-.311-.2-.46-.012-.024-.14-.019-.184.014" transform="translate(-44.53 -30.139)" fill="#e7e3dd"/>
      <path id="Path_21148" data-name="Path 21148" d="M237.942,155.574a.353.353,0,0,0-.189.172,1.068,1.068,0,0,0-.1.48,1.455,1.455,0,0,0,.224.434c.111-.1.277-.177.32-.3a1.635,1.635,0,0,0,.014-.526c.088-.264,0-.36-.264-.26" transform="translate(-44.311 -29.001)" fill="#e7e3dd"/>
      <path id="Path_21149" data-name="Path 21149" d="M240.548,154.555h-2.966a.957.957,0,0,1-.08.656.384.384,0,0,1-.19.172c-.261.1-.34.007-.267-.262.05-.186.081-.377.121-.565h-5.727v2.256h.853c1.266-.027,1.431.166,1.431,1.679v10.486c0,1.513-.165,1.706-1.431,1.679h-.853v2.257h4.138c-.063-.051-.133-.1-.125-.141a1.786,1.786,0,0,1,.178-.382l.2.2-.177.321h4.892v-2.257h-.971a.376.376,0,0,1,.016.194,1.969,1.969,0,0,1-.134.665c-.111.155-.29.642-.38.687s-.089.067-.2,0-.067-.067-.111-.2-.111-.089-.089-.421a2.145,2.145,0,0,1,.178-.665l-.133-.347a.96.96,0,0,1-.1-.037l-.149.149a1.768,1.768,0,0,1-.178-.382c0-.021.02-.048.052-.077a3.072,3.072,0,0,1-.141-1.119l-.061.12a2.884,2.884,0,0,1-.265-.709c-.015-.132.17-.286.265-.43l.059.089V158.49c0-1.513.164-1.706,1.43-1.679h.909v-1.18l-.077-.041.077-.077Zm-6.054,12.057-.367-.2c.063-.063.14-.189.187-.177a1.744,1.744,0,0,1,.382.177l-.2.2m.487-2.2a1.785,1.785,0,0,1-.178-.382c-.011-.046.115-.124.178-.187a1.785,1.785,0,0,1,.178.382c.01.047-.115.124-.178.187m0-.569a1.768,1.768,0,0,1-.178-.382c-.011-.046.115-.124.178-.187l.2.367-.2.2m2.058-7.669c-.043.122-.208.2-.32.3a1.457,1.457,0,0,1-.223-.434,1.051,1.051,0,0,1,.1-.481.349.349,0,0,1,.188-.172c.261-.1.352,0,.264.261a1.636,1.636,0,0,1-.014.526m.637,5.091c-.308-.083-.3-.71-.015-.923.044-.033.172-.037.184-.014.08.149.137.309.2.46.025.283-.048.562-.368.477" transform="translate(-43.154 -28.818)" fill="#e7e3dd"/>
      <path id="Path_21150" data-name="Path 21150" d="M271.815,195.7h-.6v-.4H272.9v.4h-.582v2.562h-.5Zm1.3-.4h.485l.547,1.745.548-1.745h.484v2.964h-.456v-1.9l-.395,1.309h-.36l-.395-1.309v1.9h-.457Z" transform="translate(-50.57 -36.415)" fill="#dc7644"/>
    </g>
  </g>
</svg>
