<svg xmlns="http://www.w3.org/2000/svg" width="158.24" height="173.097" viewBox="0 0 158.24 173.097">
  <path id="Path_21119" data-name="Path 21119" d="M265.227,58.287c.185-.872.732-3.139,1.093-4.186s-1.025-2.458-1.185-3.858a6.009,6.009,0,0,0-2.059-3.868c-1.042-.709-5.21-3.563-6.073-4.621s-4.163-3.378-5.028-4.263-5.743-2.68-7.144-2.52-6.3.285-7.69-.253-2.6-2.824-3.64-3.184-1.89-3.342-2.059-3.868-2.062-3.517-2.577-4.572a11.232,11.232,0,0,1-.947-5.08c.241-1.4-1.6-2.29-2.981-4.053s-4.337-3.541-5.545-4.951a8.964,8.964,0,0,0-2.4-1.6c0,.228.013.456.013.683a6.356,6.356,0,0,1-.015.953c-.02.127-.246.343-.316.319-.231-.073-.569-.194-.624-.372-.218-.7.28-1.508-.3-2.2-.764-.36-1.542-.7-2.237-1a1.325,1.325,0,0,1-.159.171.415.415,0,0,1-.41,0,.416.416,0,0,1,0-.408c-.69-.29-1.249-.518-1.546-.649-1.218-.537-4.7-2.321-5.4-2.328a75.715,75.715,0,0,1-9.6-2.2c-1.915-.718-6.466-.239-7.168-.071-.294.07-1.209.1-2.325.183a2.19,2.19,0,0,1,.246.543c.017.081-.2.214-.306.323A3.07,3.07,0,0,1,186.536.7c-.011-.05.07-.122.158-.194a16.658,16.658,0,0,0-4.47.781c-2.107.853-4.891-.574-6.818-.069s-7,.628-8.052.793-4.759,3.8-5.3,5.017a4.845,4.845,0,0,1-2.472,2.437c-1.231.7-.364,1.381-1.252,2.771s-3.518,2.062-4.222,2.58-1.779,2.955-2.84,4.167a5.873,5.873,0,0,0-1.346,2.506,37.025,37.025,0,0,1-2.075,3.756c-.382.621-.332,1.192-.653,1.656.039.048.078.1.115.132a4.8,4.8,0,0,1-.555.266,1.624,1.624,0,0,1-.171.1c-1.055.515-1.963,3.828-2.672,4.87-.522.764-.582,1.732-.732,3.774a2.131,2.131,0,0,1,1.094.266c.19.122.228.555.249.849.041.569-.466.909-.747.522a1.593,1.593,0,0,0-.678-.558c-.038.488-.083,1.011-.14,1.607-.39,4.018-.02,1.924-.05,4.895a12.311,12.311,0,0,0,1.511,6.309,5.763,5.763,0,0,1,.842,3.156,26.563,26.563,0,0,0,1.523,4.912,5.184,5.184,0,0,0,3.467,1.056c.776-.084,2.318-2.4,2.154-3.622s.537-1.218.9-2.788a45.642,45.642,0,0,1,1.465-6.63c.716-1.943.874-3.006,1.357-4.148,0-.372-.007-.744-.007-1.116a17.2,17.2,0,0,1,.028-1.9c.017-.151.32-.291.546-.385a6.776,6.776,0,0,1-.049-3.388c.723-2.382,1.775-2.665,2.49-4.232s4.66-5.972,6.961-8.746,4.41-3.8,6.171-5.008,1.771-2.255,2.475-2.6a45.657,45.657,0,0,0,5.624-2.915c1.41-1.035,3.334-1.016,4.563-1.672s3.665.705,5.593.2,6.115.585,7.16.946,3.963,2.48,6.41,2.5,8.517,5.157,9.207,6.038,6.795,5.848,7.308,6.9,2.242,3,2.585,3.7,1.323,1.557,1.662,2.609-1.591,1.732-1.761,1.206-3.583-2.8-4.451-3.337-2.906-5.586-4.295-6.473S209.7,20.431,209,19.9s-3.524-1.063-5.264-1.954-11.161-2.911-14.129-3.29-7.528.8-9.98,1.3-2.29,1.726-3,2.942a20.614,20.614,0,0,1-4.415,4.327c-1.586,1.209-4.244,4.678-5.308,6.067s-1.435,3.657-2.147,4.874c-.459.785-1.286,2.216-1.96,3.462l.043.043-.348.631a.41.41,0,0,0-.038-.032c-.225.431-.418.818-.547,1.112a77.591,77.591,0,0,0-2.715,9.065c-.189,1.4.109,6.47-.076,7.518s1,4.73.635,6.3.158,1.75.856,1.879-.008.753,2.273-.1,2.792.553,3.672.038.891-1.739,1.781-3.3,3.545-4.685,4.808-8.52-.484-4.026.07-6.993a15.127,15.127,0,0,0,.052-5.07c.011-1.049,1.232-.862,2.464-1.549s1.419-1.91,1.849-3.3a6.728,6.728,0,0,0,.147-3.959c-.329-2.041.185-.933,1.241-1.621s2.107-.853,2.817-1.9a2.462,2.462,0,0,1,1.76-1.206,18.228,18.228,0,0,0,2.981-.844c1.756-.683,1.578-.334,3.5.035s5.07.052,6.993.07a21.2,21.2,0,0,1,5.408,1.1c2.093.547,3.668.388,5.411.93a1.785,1.785,0,0,1,1.2,2.283,2.452,2.452,0,0,0,1.558,1.591c1.221.362.86,1.407,1.89,3.342s.334,1.577,1.023,2.633c0,0-1.6,2.257-2.121,2.251s-4-2.138-4.7-2.319-3.849.136-4.2.656a12.794,12.794,0,0,0-.727,2.791s2.794.378,3.668.386,2.272.2,2.97.206,1.914,1.069,1.914,1.069a6.452,6.452,0,0,1-2.809,1.02c-1.223-.013-2.276.327-3.325.316s-2.294,2.076-2.294,2.076a4.242,4.242,0,0,0,.68,1.929c.52.53,2.27.374,3.493.385a25.647,25.647,0,0,1,3.842.564c1.048.186,2.441.725,3.313.908s2.426,2.3,2.426,2.3l-.729,2.79s-.371,2.094-.572,4.714-1.07,2.089-1.428,2.959-1.07,2.087-1.427,2.784-2.511,6.269-2.522,7.318a31.539,31.539,0,0,1-.558,3.317c-.189,1.4-1.585,1.207-2.465,1.724s-4.023.134-5.073.123-6.276-1.812-7.151-1.645c-.567.106-3.611.042-5.7-.017l-.056.087c-.02-.029-.046-.06-.069-.09-1.076-.031-1.872-.059-1.872-.059s-14.33-.845-14.858-.5-4.887-.923-6.108-1.109a38.827,38.827,0,0,0-6.472.109c-.876.165-7.333-.95-7.333-.95a7.354,7.354,0,0,0-2.443-.548c-.527.169-3.686,1.361-4.563,1.7s-7.5-1.475-7.5-1.475l-6.644-.067a19.472,19.472,0,0,0-2.957-1.6c-1.045-.361-4.712-.923-4.712-.923s-4.176-1.966-5.906-3.731-5.417-.4-5.947.115-1.589,1.557-2.3,2.424,1.716,3.164,2.23,4.219,3.99,3.188,4.221,4.239,2.349,3.171,3.39,4.056-.018,5.536-.2,6.409a9.613,9.613,0,0,1-1.49,2.522s.919,3.822-.025,5.215a7.971,7.971,0,0,0-.919,4.362c-.008.874.166.877.681,1.756s-.364,1.4-.733,3.316.126,4.9.118,5.771-.027,2.623.491,3.328-.823,3.665-1.15,5.236a38.973,38.973,0,0,0-.5,6.462c.021,1.749.971,3.857.953,5.606s.127,4.721.127,4.721.5,2.978.663,3.679-.929,5.411-1.638,6.279-.041,4.021-.046,4.545a22.979,22.979,0,0,0,1,4.731,10.785,10.785,0,0,0,1.908,1.593l4.191.392s3.152-.318,3.331-.841a11.382,11.382,0,0,0,1.4-2.657,10.894,10.894,0,0,0,.228-2.748,14.147,14.147,0,0,1-.754-3.605c.1-1.151-.852-3.317-.848-3.774.008-.873,1.558-5.559,1.083-6.09s.327-2.094.159-2.8a26.211,26.211,0,0,1-.094-2.925c-.849-.053-1.434.147-1.388,1.228.01.245-.3.5-.464.753a7.108,7.108,0,0,1-.48-.758,1.209,1.209,0,0,1-.01-.473,4.793,4.793,0,0,1,.011-.951c.1-.491.347-.835.957-.767.455.052.929-.031,1.377.038a43.94,43.94,0,0,1,.178-4.712c.18-.522.684-5.266.684-5.266l.989-6.235a3.063,3.063,0,0,1,1.824,1.3c.607,1.039.6,2.855,1.564,3.127,1.918.544,1.627,2.767,1.627,2.767s.993,5.431.8,6.828a34.9,34.9,0,0,1-.921,4.537c-.361,1.22,1.728,2.115,1.728,2.115l-.011,1.049a40.63,40.63,0,0,1-1.454,5.406,14.681,14.681,0,0,0-.555,3.142c-.011,1.049-.374,2.269-.4,4.717s-.039,3.846-.045,4.37-2.845,4.692-2.5,5.4,3.3,2.655,3.3,2.655l5.943.235a25.527,25.527,0,0,0,3.863-1.535c.7-.518.72-2.091.725-2.615s-.656-4.2-.656-4.2l-.126-4.9s1.263-3.835,1.621-4.7,1.272-4.709,1.453-5.407-.683-1.579-1.024-2.458a7.017,7.017,0,0,1-.141-3.324c.186-1.046-.99-5.78-.972-7.528s.2-2.1,1.074-2.612.382-3.143.214-3.844-1.349-4.91-.814-5.954,1.575-.159,3.5-.14,1.558,1.589,1.9,2.118,3.3,1.957,4,2.314,1.729,1.94,3.644,2.659,5.943.235,7.343.074,2.266.722,3.839.914a27.608,27.608,0,0,0,6.641.241c1.928-.329,8.03,1.307,8.9,1.315s2.457-.849,3.146.207,7.652,4.1,9.748,4.295a4.913,4.913,0,0,1,2.962,1.079s1.034,1.585.327,2.277-.536,1.044-1.073,2.262-.4,4.892-.581,5.589a9.733,9.733,0,0,0,.662,3.679,5.048,5.048,0,0,1-.028,2.8c-.186,1.048-1.253,2.96-1.267,4.359s-1.1,4.689-1.8,5.207-2.531,2.023-2.718,3.244-1.2,4.645-.336,5.178,3.118,2.266,3.118,2.266l2.094.369s3.681-.837,4.382-1a28.776,28.776,0,0,0,3.868-2.059c.879-.516,1.437-3.833,1.617-4.355a12.883,12.883,0,0,0-.491-3.328c-.166-.876.729-2.964.734-3.489s1.462-5.8,1.467-6.325,1.26-3.965,1.272-5.189.934-5.936.946-6.985-.316-3.325.046-4.545-.32-2.976-.313-3.675.539-1.393,1.6-2.606,1.391.888,1.914.893a12.565,12.565,0,0,1,2.44.9,20.173,20.173,0,0,1,1.006,4.207,50.809,50.809,0,0,1-.944,6.971,19.3,19.3,0,0,0-.032,5.5c.116,1.014.3,2.883.313,4.569a.985.985,0,0,1,.75.344c.056.074.022.217.031.329a.9.9,0,0,1-.792.375c-.011.262-.027.511-.05.744-.111,1.1-.063,2.343-.167,3.79a17.138,17.138,0,0,1-.625,3.627,23.971,23.971,0,0,1-1.484,3.879c-.541,1.568-2.04,1.472-2.224,2.518s-2.682,2.872-2.513,3.4a12.114,12.114,0,0,0,2.073,2.468,4.422,4.422,0,0,0,2.962,1.08c.526-.169,1.763,1.491,1.932,2.017s3.65,2.31,5.046,2.5a3.615,3.615,0,0,0,2.806-.845c.88-.516,1.091-4.187,1.273-4.884s1.263-3.835,1.1-5.06c-.108-.814-.217-1.557-.323-2.524-.1-.064-.123-.218-.053-.476v-.008c-.036-.361-.071-.753-.108-1.193a8.3,8.3,0,0,1,.74-4.014,19.708,19.708,0,0,0,.87-3.907,48.407,48.407,0,0,0-1.02-4.874c-.168-.7-.61-2.592-.942-4.345s.551-2.616.569-4.365.95-7.51.961-8.557.9-2.79.915-4.014-1-4.731-1.164-5.957-.313-3.675-.481-4.376.732-3.139.743-4.188,1.606-3.307,1.966-4.177-.329-2.1-.664-3.5.762-6.287,1.129-7.857-.505-1.928-.505-1.928l-1.708-4.04a15.178,15.178,0,0,1-1.884-3.865c-.162-1.225,1.95-2.6,2.308-3.474a8.512,8.512,0,0,0,.043-4.2c-.34-1.052-.467-5.775-.628-7.175s1.581-.683,1.777-2.778,2.3-2.776,2.839-3.994-.309-4.025-.3-4.9a18.678,18.678,0,0,1-.127-4.721c.369-1.919,2.637-1.372,3.864-1.71a8.42,8.42,0,0,1,3.145.206,13.557,13.557,0,0,1,3.309,1.433,21.352,21.352,0,0,0,4.351,1.968c1.4.364,2.259,1.421,3.128,1.954s2.448.025,3.324-.141,2.255,1.785,3.474,2.322a5.737,5.737,0,0,0,3.314.747c1.225-.162,4.2-.481,4.384-1.354M144.7,46.929c-.081.018-.214-.2-.322-.306l.631-.348.348.348a3.172,3.172,0,0,1-.658.306m1.959-16.648c-.081.017-.214-.2-.322-.306a3.061,3.061,0,0,1,.656-.306c.081-.018.214.2.323.306a3.1,3.1,0,0,1-.658.306m6.73,14.3c-.069.183-.39.3-.621.375-.07.021-.311-.2-.316-.318a12.2,12.2,0,0,1,.013-1.879,1.4,1.4,0,0,1-1.1.032c-.129-.039-.326-.274-.309-.3.138-.21.3-.52.5-.558a5.993,5.993,0,0,1,1.363-.007.871.871,0,0,1-.008.421,1.2,1.2,0,0,1-.116.131,2.872,2.872,0,0,1,.3-.115c.07-.022.3.192.315.319a6.352,6.352,0,0,1,.015.953,2.871,2.871,0,0,1-.027.946m1.272-26.852-.348-.631c.13-.132.239-.239.348-.348a3.034,3.034,0,0,1,.3.658c.018.08-.2.213-.3.322M190.3,6.64c-.081.018-.213-.2-.322-.306l.631-.348c.13.132.239.241.348.348a2.941,2.941,0,0,1-.658.306m22.6.7c-.074.21-.359.346-.55.515a2.469,2.469,0,0,1-.385-.747,1.841,1.841,0,0,1,.18-.825.6.6,0,0,1,.325-.3c.448-.171.6-.007.453.449a2.854,2.854,0,0,1-.024.9M161.647,58.719c-.56.323-1.445.166-1.568-.367-.087-.383.172-.845.277-1.273a3.428,3.428,0,0,1,.659.322c.365.283.7.609,1.042.916a2.77,2.77,0,0,1-.41.4m8.678-27.275-.348-.348.348-.631c.108.109.323.241.3.322a3.1,3.1,0,0,1-.3.658M186.075,20.8a.412.412,0,0,1-.41,0,.421.421,0,0,1,0-.411,3.566,3.566,0,0,1,.558-.471c.113.113.322.273.3.309a1.963,1.963,0,0,1-.446.576m3.689,1.648c-.53-.143-.519-1.221-.028-1.586.076-.057.3-.064.318-.024.136.255.236.53.344.79.043.485-.083.967-.634.82m23.8,20.6a2.557,2.557,0,0,1-.877.132,2.519,2.519,0,0,1-.747-.466,2.49,2.49,0,0,1,.747-.466,1.862,1.862,0,0,1,.873.143c.133.043.227.211.339.323-.112.112-.224.222-.334.334M119,94.437c.08-.017.213.2.322.306a3.07,3.07,0,0,1-.658.306c-.081.018-.213-.2-.322-.306a3.108,3.108,0,0,1,.658-.306m-1.051,38.1a1.012,1.012,0,0,1,.595-1.224,4.964,4.964,0,0,1,.333,1.228c.008.243-.3.5-.457.743a2.507,2.507,0,0,1-.47-.747m1.592,16.253c-.022.041-.242.032-.318-.024-.491-.365-.5-1.444.028-1.586.551-.147.677.333.634.82-.108.26-.208.534-.344.79m5.036-40.126c-.109-.108-.325-.241-.306-.322a3.06,3.06,0,0,1,.306-.656c.109.108.218.217.348.348l-.348.63m3.634-33.157a3.036,3.036,0,0,1-.306-.658c-.018-.081.2-.213.306-.322l.348.631c-.131.13-.241.239-.348.348m4.39,5.86c-.073.071-.274.015-.421.015-.15-.193-.47-.485-.424-.564.344-.59.624-.187.851.134a.43.43,0,0,1-.006.414m.506-4.881a3,3,0,0,1-.306-.658c-.018-.08.2-.214.306-.322a3.033,3.033,0,0,1,.3.658c.018.08-.2.213-.3.322m1.389,33.5c-.193.151-.485.471-.564.425-.589-.344-.186-.624.136-.852a.431.431,0,0,1,.413.006c.073.073.015.276.015.421m.148,43.319a3.07,3.07,0,0,1-.306-.657c-.018-.081.2-.213.306-.322l.348.631c-.131.13-.239.239-.348.348m5.948,7.344a5.015,5.015,0,0,1-.456-1.22c-.025-.227.294-.491.456-.739.164.248.327.494.568.859-.169.327-.368.713-.568,1.1m.6-38.169c-.243.007-.494-.3-.741-.459a2.519,2.519,0,0,1,.746-.47,1.013,1.013,0,0,1,1.225.6,5.1,5.1,0,0,1-1.23.333m1.193-40.719c-.074.211-.36.347-.55.516a2.468,2.468,0,0,1-.385-.747,1.841,1.841,0,0,1,.18-.825.594.594,0,0,1,.325-.294c.448-.173.6-.008.453.448a2.844,2.844,0,0,1-.024.9M154.632,108a.671.671,0,0,1-.56-.921c.1-.312-.474-1.032.432-.888.2.032.378.407.516.653.064.115.011.3.011.449-.134.249-.306.72-.4.706m.583,3.318c-.109-.109-.218-.217-.348-.348l.348-.631c.109.109.323.241.306.322a3.041,3.041,0,0,1-.306.658m4.338,8.966a2.994,2.994,0,0,1-.306-.656c-.018-.081.2-.214.306-.322a3.061,3.061,0,0,1,.306.656c.017.081-.2.214-.306.322m2.208-42.019c-.228.025-.491-.292-.739-.456.248-.164.512-.481.739-.456a4.959,4.959,0,0,1,1.22.456,5.017,5.017,0,0,1-1.22.456m9.878,39.3a1.073,1.073,0,0,1-1.619.02.372.372,0,0,1-.022-.326,1.057,1.057,0,0,1,1.61-.022c.056.076.022.218.031.329m11.417-24.892a3,3,0,0,1-.306-.658c-.018-.08.2-.213.306-.322l.348.631-.348.348m8.956-4.355c-.022.041-.242.034-.318-.022-.491-.365-.5-1.445.028-1.586.55-.147.677.333.634.818-.108.26-.208.536-.344.79m2.511,28.6c-.064.445.194.974-.329,1.293a.344.344,0,0,1-.325,0,2.572,2.572,0,0,1,0-2.585.353.353,0,0,1,.325,0c.523.319.264.849.329,1.294m.576,3.632-.568-.859c.169-.327.369-.713.568-1.1a4.959,4.959,0,0,1,.456,1.22c.025.227-.292.491-.456.739m4.77,18.789c.081-.018.214.2.323.306a3.1,3.1,0,0,1-.658.306c-.081.018-.214-.2-.322-.306a3.06,3.06,0,0,1,.656-.306m-1.146,14.506c-.109-.109-.325-.242-.306-.322a3.042,3.042,0,0,1,.306-.658c.108.109.217.218.348.348l-.348.631m1.458-3.7c-.1.49-.347.852-.944.761-.155-.024-.351.056-.469-.014-.483-.283-.463-.561-.067-.989a4.878,4.878,0,0,0,.519-1.2,6.074,6.074,0,0,1,.49-.733,6.971,6.971,0,0,1,.471.754,1.193,1.193,0,0,1,.011.47,5.1,5.1,0,0,1-.011.949m1.227-.4a3.108,3.108,0,0,1-.657-.306c.109-.109.217-.218.348-.348l.631.348c-.109.108-.242.325-.322.306m5.383-66c-.038.067-.288.01-.441.01.116-.762-.642-.953-.915-1.454-.025-.046.39-.332.6-.505.8-.1,1.3.171,1.265.821a2.833,2.833,0,0,1-.511,1.128m1.353-1.388c-.53-.141-.519-1.221-.028-1.586.076-.056.3-.064.318-.024.136.256.236.532.344.792.043.485-.084.965-.634.818m5.268-10.766-.348-.631c.13-.132.239-.239.348-.348a3.034,3.034,0,0,1,.3.658c.018.08-.2.213-.3.322m4.9,69.528-.348-.348.348-.631c.108.108.323.241.306.322a3.139,3.139,0,0,1-.306.658m1.959-98.761c-.109-.109-.325-.242-.306-.322a2.973,2.973,0,0,1,.306-.658c.108.109.217.217.348.348l-.348.631m.979,59.59c-.109-.109-.325-.242-.306-.322a3,3,0,0,1,.306-.658l.348.348c-.113.2-.231.418-.348.631m2.636,10.5a.655.655,0,0,1-.294-.329c-.172-.448-.014-.585.449-.459.414.112.845.161,1.259.27.076.02.106.2.158.309-.106.425-.9.541-1.572.208m2.082,17.36c-.024-.228.294-.492.456-.74l.568.859c-.169.327-.368.713-.568,1.1a4.983,4.983,0,0,1-.456-1.219m1.631,29.929c.073.073.017.276.017.421-.194.151-.487.471-.565.425-.589-.346-.186-.624.136-.851a.424.424,0,0,1,.413,0m-.393-7.77c.113.113.322.273.3.311a2,2,0,0,1-.446.576.293.293,0,0,1-.414-.414,3.575,3.575,0,0,1,.558-.473m-.053-26.345c.523.319.264.849.329,1.294-.064.445.194.974-.329,1.293a.349.349,0,0,1-.325,0,2.573,2.573,0,0,1,0-2.585.352.352,0,0,1,.325,0M228.827,62.6a1.057,1.057,0,0,1-1.61-.024.368.368,0,0,1,.022-.325,1.071,1.071,0,0,1,1.617.018c-.007.112.027.253-.029.33m.116-.795a3.058,3.058,0,0,1-.306-.656c-.017-.081.2-.214.306-.322a3.062,3.062,0,0,1,.306.656c.018.081-.2.214-.306.322m6.825-24.542c-.081.017-.214-.2-.322-.306l.631-.348.348.348a3.174,3.174,0,0,1-.657.306m11.151,14.309a.412.412,0,0,1-.41,0,.418.418,0,0,1,0-.411,3.583,3.583,0,0,1,.558-.473c.113.113.322.274.3.311a1.953,1.953,0,0,1-.445.576m7.347-1.966c-.313-.1-1.034.473-.89-.432.032-.2.407-.378.653-.516.115-.066.3-.011.449-.013.249.136.72.308.706.4a.67.67,0,0,1-.919.56m9.188,6.209a2.007,2.007,0,0,1-.578-.445.293.293,0,0,1,.415-.414,3.5,3.5,0,0,1,.471.557c-.113.113-.273.322-.309.3" transform="translate(-108.139 -0.001)" fill="#fff"/>
</svg>
